<svg width="267" height="50" viewBox="0 0 267 50" fill="none" xmlns="http://www.w3.org/2000/svg">
<path d="M36.0035 34.1866C35.3267 33.7928 34.1987 33.7928 33.503 34.1866L23.7266 39.7374C23.031 40.1312 21.9217 40.1312 21.2261 39.7187L19.0452 38.4435C18.3684 38.0497 18.3684 37.3933 19.0452 36.9995L26.7911 32.5363C27.468 32.1425 28.6148 32.105 29.3292 32.4426C29.3292 32.4426 29.4797 32.5176 30.3257 32.5176C32.5818 32.5176 34.4055 30.6986 34.4055 28.4482C34.4055 26.1979 32.5818 24.3789 30.3257 24.3789C28.0696 24.3789 26.2459 26.1979 26.2459 28.4482C26.2459 28.8795 26.2459 28.8795 26.2459 28.8795C26.3587 29.3296 25.8887 30.0235 25.1931 30.4173L16.4319 35.4618C15.7551 35.8556 14.627 35.8556 13.9502 35.4618L9.92682 33.1177C9.24999 32.7239 8.68597 31.7487 8.68597 30.9611L8.70477 27.3043C8.70477 26.5167 9.2688 25.5415 9.96443 25.1477L18.9324 19.9907C19.6092 19.5969 20.7373 19.6157 21.4141 20.0282C21.4141 20.0282 21.8465 20.2908 22.8806 20.2908C25.1367 20.2908 26.9603 18.4717 26.9603 16.2214C26.9603 13.9711 25.1367 12.152 22.8806 12.152C20.6245 12.152 18.8008 13.9711 18.8008 16.2214C18.8008 16.4839 18.8008 16.4839 18.8008 16.4839C18.8384 16.7652 18.312 17.3091 17.6352 17.7029L10.002 22.1098C9.3252 22.5036 8.76117 22.1848 8.76117 21.3972L8.77997 17.8904C8.77997 17.1028 9.344 16.1276 10.0396 15.7338L19.722 10.2392C20.4177 9.84544 20.9817 8.88905 20.9817 8.08268V1.03162C20.9817 0.244 20.4177 -0.0935507 19.722 0.300258L1.39126 10.7081C0.69563 11.1019 0.131606 12.0583 0.131606 12.8646L0 35.9118C0 36.6995 0.545224 37.6746 1.24085 38.0684L21.1885 49.6952C21.8653 50.089 22.9934 50.1077 23.689 49.7139L42.2078 39.1936C42.9034 38.7998 42.9034 38.1622 42.2078 37.7684L36.0035 34.1866ZM30.3257 27.0605C31.1153 27.0605 31.7358 27.6981 31.7358 28.467C31.7358 29.2546 31.0965 29.8734 30.3257 29.8734C29.5361 29.8734 28.9156 29.2358 28.9156 28.467C28.9156 27.6794 29.5549 27.0605 30.3257 27.0605ZM22.8806 14.7962C23.6702 14.7962 24.2906 15.4338 24.2906 16.2026C24.2906 16.9715 23.6702 17.6279 22.8806 17.6279C22.0909 17.6279 21.4705 16.9903 21.4705 16.2214C21.4705 15.4525 22.0909 14.7962 22.8806 14.7962Z" fill="#9B9B9B"/>
<path d="M25.4186 0.16877C24.7417 -0.225039 24.1777 0.0937588 24.1777 0.881377V8.0262C24.1777 8.81381 24.7417 9.78896 25.4186 10.1828L34.1045 15.246C34.7814 15.6398 34.7814 16.2962 34.1045 16.69L20.38 24.5849C19.7031 24.9787 18.5563 25.0162 17.8418 24.6412C17.8418 24.6412 17.6538 24.5474 16.7702 24.5474C14.5141 24.5474 12.6904 26.3664 12.6904 28.6168C12.6904 30.8671 14.5141 32.6861 16.7702 32.6861C19.0263 32.6861 20.85 30.8671 20.85 28.6168C20.85 28.2042 20.85 28.2042 20.85 28.2042C20.756 27.7729 21.2448 27.1166 21.9216 26.7227L35.195 19.0904C35.8718 18.6965 36.4358 19.0153 36.4358 19.803L36.3794 29.2544C36.3794 30.042 36.9247 31.0171 37.6203 31.4109L43.7682 34.9552C44.445 35.349 45.0278 35.0302 45.0278 34.2426L45.1406 13.127C45.1406 12.3393 44.5954 11.3642 43.8998 10.9704L25.4186 0.16877ZM16.789 30.042C15.9994 30.042 15.3789 29.4044 15.3789 28.6355C15.3789 27.8667 16.0182 27.2291 16.789 27.2291C17.5786 27.2291 18.1991 27.8667 18.1991 28.6355C18.1991 29.4044 17.5598 30.042 16.789 30.042Z" fill="#DC911B"/>
<path d="M60.487 29.6804C61.3423 29.6804 62.055 29.6078 62.6965 29.3901C63.338 29.1724 63.9082 28.9547 64.4071 28.737C64.6922 28.6644 64.8347 28.5919 64.9773 28.6644C65.1198 28.6644 65.1911 28.8821 65.3337 29.1724L66.4028 31.4946C66.5453 31.7849 66.5453 31.9301 66.5453 32.0752C66.5453 32.2204 66.4028 32.3655 66.2602 32.4381C65.2624 33.0912 64.2645 33.454 63.1954 33.7443C62.1976 33.962 61.1285 34.1072 60.0594 34.1072C58.5626 34.1072 57.2797 33.8894 56.2818 33.3815C55.2127 32.8735 54.4287 32.2929 53.7872 31.4221C53.1458 30.6238 52.6469 29.6078 52.3618 28.5193C52.0054 27.2856 51.8628 26.0519 51.8628 24.7457C51.8628 23.3668 52.0767 22.0606 52.5043 20.972C52.932 19.8109 53.5021 18.8675 54.2149 18.0692C54.9276 17.271 55.8542 16.6179 56.852 16.1824C57.8499 15.747 58.9903 15.5293 60.2732 15.5293C61.271 15.5293 62.1976 15.6019 63.0529 15.747C63.9082 15.8922 64.6922 16.1824 65.4762 16.6178C65.6187 16.6904 65.69 16.763 65.7613 16.8356C65.8326 16.9081 65.9038 16.9807 65.9038 17.0533C65.9038 17.1258 65.9038 17.1984 65.9038 17.3435C65.9038 17.4887 65.8326 17.6338 65.7613 17.779L64.906 19.8835C64.7635 20.2463 64.6922 20.3915 64.5496 20.4641C64.4071 20.5366 64.2645 20.5366 63.9082 20.3915C63.5518 20.3189 63.2667 20.1738 62.9816 20.1012C62.6965 20.0286 62.4114 19.9561 62.1976 19.8835C61.9125 19.8109 61.6987 19.8109 61.4136 19.8109C61.1285 19.8109 60.8434 19.8109 60.5583 19.8109C59.4892 19.8109 58.6339 20.2463 57.9924 21.1172C57.3509 21.988 56.9946 23.2217 56.9946 24.8182C56.9946 26.4148 57.2797 27.6485 57.8499 28.5193C58.2775 29.245 59.2041 29.6804 60.487 29.6804Z" fill="#9B9B9B"/>
<path d="M84.5062 24.6739H84.3637L83.0807 27.5767L81.7978 30.4069C81.584 30.8423 81.4414 31.1326 81.2276 31.2778C81.0138 31.4229 80.7287 31.4955 80.3723 31.4955H78.6617C78.2341 31.4955 77.949 31.4229 77.8065 31.2778C77.6639 31.1326 77.4501 30.8423 77.2363 30.4069L76.0959 28.0847L74.5991 24.8916H74.4566V33.1646C74.4566 33.3823 74.3853 33.5274 74.314 33.6C74.2427 33.6726 74.1002 33.6725 73.8864 33.6725H70.3939C70.1801 33.6725 70.0376 33.6726 69.9663 33.6C69.895 33.5274 69.8237 33.3823 69.8237 33.1646V17.6346C69.8237 16.8363 69.9663 16.2558 70.2514 16.0381C70.5365 15.7478 71.0354 15.6026 71.6769 15.6026H73.6013C74.1715 15.6026 74.5278 15.6752 74.7417 15.8929C74.9555 16.1106 75.2406 16.4009 75.4544 16.8363L77.4501 21.118L79.4458 25.327H79.517L81.5127 21.118L83.5084 16.8363C83.7222 16.4009 84.0073 16.0381 84.2211 15.8204C84.5062 15.6027 84.9339 15.4575 85.5753 15.4575H87.1434C87.4285 15.4575 87.6423 15.4575 87.8561 15.5301C88.0699 15.6026 88.2837 15.6752 88.4263 15.8204C88.5688 15.9655 88.7114 16.1106 88.7827 16.4009C88.8539 16.6186 88.9252 16.9815 88.9252 17.3443V33.0194C88.9252 33.2371 88.8539 33.3823 88.7827 33.4548C88.7114 33.5274 88.5688 33.5274 88.355 33.5274H85.0051C84.7913 33.5274 84.6488 33.5274 84.5775 33.4548C84.5062 33.3823 84.4349 33.2371 84.4349 33.0194V24.6739H84.5062Z" fill="#9B9B9B"/>
<path d="M101.042 25.472C101.042 25.98 100.971 26.488 100.757 26.996C100.543 27.504 100.258 27.8668 99.902 28.2296C99.5456 28.5925 99.118 28.8828 98.6191 29.0279C98.1201 29.2456 97.6212 29.3182 97.1223 29.3182C96.5521 29.3182 96.0532 29.2456 95.6255 29.0279C95.1266 28.8102 94.7703 28.5199 94.4139 28.2296C94.0575 27.8668 93.7724 27.504 93.5586 26.996C93.3448 26.5605 93.2735 26.0526 93.2735 25.472C93.2735 24.964 93.3448 24.456 93.5586 23.948C93.7724 23.44 94.0575 23.0772 94.4139 22.7143C94.7703 22.3515 95.1979 22.0612 95.6255 21.8435C96.1245 21.6258 96.6234 21.5532 97.1223 21.5532C97.6925 21.5532 98.1914 21.6258 98.6903 21.8435C99.1893 22.0612 99.5456 22.3515 99.902 22.6418C100.258 23.0046 100.543 23.3675 100.757 23.8754C100.971 24.3834 101.042 24.964 101.042 25.472Z" fill="#9B9B9B"/>
<path d="M118.148 15.6748C118.861 15.6748 119.288 15.8199 119.502 16.1102C119.716 16.4005 119.787 16.8359 119.787 17.4165V33.2366C119.787 33.4543 119.787 33.5995 119.716 33.672C119.645 33.7446 119.502 33.8172 119.217 33.8172H115.653C115.297 33.8172 115.083 33.672 115.083 33.3092V19.9564H110.949L110.878 21.1901C110.735 23.0769 110.664 24.746 110.522 26.1974C110.379 27.6488 110.165 28.8825 109.809 29.8984C109.453 30.987 108.882 31.8578 108.17 32.5835C107.457 33.3092 106.388 33.9623 105.105 34.4703C104.82 34.5429 104.606 34.6154 104.535 34.6154C104.463 34.6154 104.321 34.4703 104.178 34.2526L102.895 31.5675C102.824 31.3498 102.753 31.2047 102.824 31.1321C102.824 31.0595 102.967 30.9144 103.18 30.8418C103.822 30.5515 104.321 30.1161 104.677 29.7533C105.034 29.3179 105.39 28.8099 105.604 28.0842C105.818 27.4311 106.031 26.5602 106.103 25.5443C106.174 24.5283 106.316 23.2946 106.388 21.7706L106.602 17.4165C106.602 17.1262 106.602 16.9085 106.673 16.6908C106.744 16.4731 106.815 16.3279 106.887 16.1828C107.029 16.0377 107.172 15.9651 107.386 15.8925C107.599 15.8199 107.884 15.82 108.241 15.82H118.148V15.6748Z" fill="#DC911B"/>
<path d="M139.458 24.6737C139.458 26.1251 139.316 27.4314 139.03 28.5925C138.745 29.7536 138.246 30.697 137.605 31.4953C136.964 32.2935 136.108 32.9467 135.11 33.3821C134.113 33.8175 132.83 34.0352 131.404 34.0352C130.05 34.0352 128.838 33.8175 127.84 33.3821C126.843 32.9467 125.987 32.3661 125.346 31.5679C124.704 30.7696 124.205 29.8262 123.92 28.6651C123.635 27.5039 123.421 26.1977 123.421 24.7463C123.421 23.3675 123.564 22.0612 123.92 20.9001C124.277 19.739 124.776 18.7956 125.417 17.9247C126.059 17.1264 126.914 16.4733 127.912 16.0379C128.91 15.6025 130.05 15.3848 131.404 15.3848C132.758 15.3848 133.97 15.6025 134.968 16.0379C135.966 16.4733 136.821 17.1264 137.462 17.9247C138.104 18.723 138.603 19.739 138.959 20.8275C139.316 21.9886 139.458 23.2949 139.458 24.6737ZM134.398 24.7463C134.398 24.0932 134.326 23.44 134.255 22.8595C134.184 22.2789 134.041 21.6984 133.756 21.2629C133.542 20.8275 133.257 20.4647 132.83 20.1744C132.473 19.8841 131.974 19.739 131.333 19.739C130.834 19.739 130.406 19.8841 130.05 20.1018C129.694 20.3921 129.408 20.6824 129.123 21.1178C128.91 21.5532 128.696 22.0612 128.624 22.6418C128.482 23.2223 128.482 23.8029 128.482 24.456C128.482 25.2543 128.553 25.98 128.624 26.5605C128.696 27.2137 128.91 27.7217 129.123 28.1571C129.337 28.5925 129.694 28.9553 130.05 29.1731C130.406 29.3908 130.905 29.5359 131.475 29.5359C132.046 29.5359 132.473 29.3908 132.901 29.1005C133.257 28.8102 133.542 28.4473 133.756 28.0119C133.97 27.5765 134.113 26.9959 134.255 26.4154C134.326 25.98 134.398 25.3994 134.398 24.7463Z" fill="#DC911B"/>
<path d="M147.869 33.2367C147.869 33.4544 147.869 33.5995 147.798 33.6721C147.727 33.7447 147.584 33.7447 147.299 33.7447H143.735C143.379 33.7447 143.165 33.5996 143.165 33.2367V20.6095C143.165 19.9564 143.236 19.3759 143.45 18.7953C143.664 18.2147 143.878 17.7068 144.306 17.1988C144.662 16.7634 145.161 16.4005 145.802 16.1102C146.444 15.8199 147.157 15.6748 148.083 15.6748H155.781C155.995 15.6748 156.137 15.6748 156.208 15.7474C156.28 15.8199 156.28 15.9651 156.28 16.2554V19.1581C156.28 19.3759 156.28 19.521 156.208 19.5936C156.137 19.6661 155.995 19.7387 155.852 19.7387H149.58C149.223 19.7387 148.938 19.8113 148.796 19.8838C148.582 19.9564 148.439 20.1016 148.368 20.2467C148.297 20.3918 148.226 20.537 148.154 20.6821C148.154 20.8273 148.083 21.045 148.083 21.1901V33.2367H147.869Z" fill="#DC911B"/>
<path d="M169.965 23.4397L167.684 27.2858L164.263 32.5834C164.12 32.8737 163.906 33.0189 163.835 33.2366C163.692 33.3817 163.55 33.5269 163.407 33.5994C163.265 33.672 163.051 33.7446 162.908 33.7446C162.695 33.7446 162.481 33.8171 162.196 33.8171H160.913C160.129 33.8171 159.63 33.5994 159.416 33.2366C159.202 32.8737 159.06 32.3657 159.06 31.7852V16.3278C159.06 15.965 159.273 15.8198 159.63 15.8198H163.122C163.407 15.8198 163.55 15.8924 163.621 15.965C163.692 16.0375 163.692 16.1827 163.692 16.4004V26.1973H163.835L166.044 22.6414L169.537 17.0535C169.679 16.7632 169.893 16.5455 169.965 16.4004C170.107 16.2552 170.25 16.1101 170.392 16.0375C170.535 15.965 170.749 15.8924 170.891 15.8924C171.105 15.8924 171.319 15.8924 171.604 15.8924H172.816C173.528 15.8924 174.027 16.0375 174.241 16.3278C174.526 16.6181 174.669 17.1261 174.669 17.9243V33.3817C174.669 33.7446 174.455 33.8897 174.098 33.8897H170.606C170.321 33.8897 170.178 33.8171 170.107 33.7446C170.036 33.672 170.036 33.5268 170.036 33.3091V23.5848H169.965V23.4397Z" fill="#DC911B"/>
<path d="M187.071 29.6811C187.926 29.6811 188.639 29.6085 189.28 29.3908C189.921 29.1731 190.492 28.9554 190.991 28.7377C191.276 28.6651 191.418 28.5925 191.561 28.6651C191.703 28.6651 191.775 28.8828 191.917 29.1731L192.986 31.4953C193.129 31.7856 193.129 31.9308 193.129 32.0759C193.129 32.221 192.986 32.3662 192.844 32.4387C191.846 33.0919 190.848 33.4547 189.779 33.745C188.781 33.9627 187.712 34.1078 186.643 34.1078C185.146 34.1078 183.863 33.8901 182.865 33.3821C181.796 32.8742 181.012 32.2936 180.371 31.4228C179.729 30.6245 179.23 29.6085 178.945 28.52C178.66 27.3589 178.518 26.1252 178.518 24.8189C178.518 23.4401 178.731 22.1338 179.159 21.0453C179.587 19.8842 180.157 18.9408 180.87 18.1425C181.582 17.3442 182.509 16.6911 183.507 16.2557C184.505 15.8202 185.645 15.6025 186.928 15.6025C187.926 15.6025 188.852 15.6751 189.708 15.8203C190.563 15.9654 191.347 16.2557 192.131 16.6911C192.274 16.7637 192.345 16.8362 192.416 16.9088C192.487 16.9814 192.559 17.0539 192.559 17.1265C192.559 17.1991 192.559 17.2716 192.559 17.4168C192.559 17.5619 192.487 17.7071 192.416 17.8522L191.561 19.9567C191.418 20.3196 191.347 20.4647 191.204 20.5373C191.062 20.6099 190.919 20.6099 190.563 20.4647C190.207 20.3922 189.921 20.247 189.636 20.1745C189.351 20.1019 189.066 20.0293 188.852 19.9567C188.567 19.8842 188.353 19.8842 188.068 19.8842C187.783 19.8842 187.498 19.8842 187.213 19.8842C186.144 19.8842 185.289 20.3196 184.647 21.1904C184.006 22.0613 183.649 23.295 183.649 24.8915C183.649 26.488 183.934 27.7217 184.505 28.5925C184.861 29.2457 185.788 29.6811 187.071 29.6811Z" fill="#DC911B"/>
<path d="M209.094 19.8112H204.746V33.2366C204.746 33.4543 204.746 33.5994 204.675 33.672C204.604 33.7446 204.461 33.8171 204.176 33.8171H200.612C200.256 33.8171 200.042 33.672 200.042 33.3091V19.8837H195.837C195.48 19.8837 195.338 19.666 195.338 19.3032V16.4004C195.338 16.1101 195.409 15.9649 195.48 15.8924C195.552 15.8198 195.694 15.8198 195.908 15.8198H209.236C209.45 15.8198 209.593 15.8198 209.664 15.8924C209.735 15.9649 209.807 16.1101 209.807 16.4004V19.3032C209.593 19.5934 209.45 19.8112 209.094 19.8112Z" fill="#DC911B"/>
<path d="M223.491 23.4397L221.211 27.2858L217.789 32.5834C217.647 32.8737 217.433 33.0189 217.362 33.2366C217.219 33.3817 217.077 33.5269 216.934 33.5994C216.792 33.672 216.578 33.7446 216.435 33.7446C216.221 33.7446 216.008 33.8171 215.723 33.8171H214.368C213.584 33.8171 213.085 33.5994 212.872 33.2366C212.658 32.8737 212.515 32.3657 212.515 31.7852V16.3278C212.515 15.965 212.729 15.8198 213.085 15.8198H216.578C216.863 15.8198 217.005 15.8924 217.077 15.965C217.148 16.0375 217.148 16.1827 217.148 16.4004V26.1973H217.291L219.5 22.6414L222.993 17.0535C223.135 16.7632 223.349 16.5455 223.42 16.4004C223.563 16.2552 223.705 16.1101 223.848 16.0375C223.99 15.965 224.204 15.8924 224.347 15.8924C224.561 15.8924 224.774 15.8924 225.059 15.8924H226.271C226.984 15.8924 227.483 16.0375 227.697 16.3278C227.982 16.6181 228.124 17.1261 228.124 17.9243V33.3817C228.124 33.7446 227.91 33.8897 227.554 33.8897H224.062C223.777 33.8897 223.634 33.8171 223.563 33.7446C223.491 33.672 223.491 33.5268 223.491 33.3091V23.5848V23.4397Z" fill="#DC911B"/>
<path d="M243.733 24.1651C244.161 24.3103 244.517 24.528 244.802 24.6731C245.087 24.8908 245.301 25.1085 245.515 25.3262C245.729 25.5439 245.871 25.8342 245.943 26.1971C246.085 26.4873 246.156 26.8502 246.228 27.213L247.796 33.1638C247.796 33.2363 247.867 33.3815 247.796 33.4541C247.796 33.5992 247.653 33.6718 247.439 33.6718H243.662C243.59 33.6718 243.519 33.6718 243.377 33.5992C243.305 33.5992 243.234 33.454 243.163 33.3089L241.595 27.8662C241.452 27.4307 241.31 27.1405 241.167 26.8502C241.025 26.5599 240.811 26.3422 240.526 26.1971C240.312 26.0519 239.956 25.9794 239.67 25.9068C239.314 25.8342 238.958 25.8342 238.53 25.8342H237.39V33.2364C237.39 33.4541 237.39 33.5266 237.318 33.5992C237.247 33.6718 237.105 33.6718 236.962 33.6718H233.042C232.899 33.6718 232.757 33.6718 232.686 33.5992C232.614 33.5266 232.543 33.4541 232.543 33.2364V16.0373C232.543 15.8196 232.614 15.747 232.686 15.6744C232.757 15.6019 232.899 15.6019 233.042 15.6019H236.962C237.105 15.6019 237.247 15.6019 237.318 15.6744C237.39 15.747 237.39 15.8196 237.39 16.0373V22.4234H238.601C238.886 22.4234 239.1 22.4234 239.385 22.3509C239.67 22.2783 239.956 22.2057 240.169 22.0606C240.454 21.9154 240.668 21.6977 240.882 21.4075C241.096 21.1172 241.238 20.7543 241.381 20.2463L242.521 15.8921C242.521 15.747 242.593 15.6019 242.735 15.6019C242.878 15.6019 242.949 15.5293 243.02 15.5293H246.798C247.012 15.5293 247.154 15.6019 247.154 15.747C247.154 15.8922 247.154 15.9647 247.154 16.0373L245.943 20.6818C245.8 21.4075 245.515 22.0606 245.087 22.5686C244.731 23.1491 244.232 23.5845 243.733 23.8748V24.1651Z" fill="#DC911B"/>
<path d="M261.052 30.1888H256.063L255.208 33.1641C255.137 33.3818 255.065 33.527 254.994 33.5996C254.923 33.6721 254.709 33.7447 254.424 33.7447H250.718C250.575 33.7447 250.432 33.6721 250.432 33.5996C250.361 33.527 250.361 33.3819 250.432 33.2367L255.422 17.2713C255.635 16.6182 255.921 16.1102 256.206 15.9651C256.491 15.7474 256.99 15.6748 257.56 15.6748H259.627C259.912 15.6748 260.197 15.6748 260.411 15.7474C260.625 15.7474 260.838 15.8199 261.052 15.9651C261.195 16.0376 261.409 16.2554 261.551 16.4731C261.694 16.6908 261.836 16.9811 261.979 17.3439L266.968 33.3093C266.968 33.3818 267.039 33.527 266.968 33.5996C266.968 33.7447 266.825 33.7447 266.612 33.7447H262.763C262.549 33.7447 262.407 33.7447 262.264 33.6721C262.121 33.5995 262.05 33.527 261.979 33.3093L261.052 30.1888ZM257.061 26.4151H259.912L259.413 24.3832L258.629 20.6821H258.415L257.56 24.4558L257.061 26.4151Z" fill="#DC911B"/>
</svg>
