<svg width="20" height="20" viewBox="0 0 20 20" fill="none" xmlns="http://www.w3.org/2000/svg">
<g clip-path="url(#clip0_1260_3636)">
<path d="M19.6116 15.9032L17.3944 14.425L15.4233 13.1112C15.0429 12.8581 14.5317 12.9411 14.2509 13.3015L13.0313 14.8694C12.7693 15.2097 12.298 15.3074 11.9223 15.0994C11.0948 14.6391 10.1161 14.2057 7.95686 12.0436C5.79759 9.88157 5.36138 8.90572 4.90104 8.07815C4.69303 7.70245 4.7908 7.23117 5.13103 6.96922L6.69895 5.74958C7.05937 5.4688 7.14238 4.9576 6.8893 4.57718L5.61587 2.66685L4.09726 0.388903C3.83878 0.00117267 3.32137 -0.115232 2.92176 0.124413L1.17038 1.1751C0.697063 1.45397 0.349137 1.90428 0.19867 2.43267C-0.28027 4.17886 -0.376831 8.03089 5.79653 14.2043C11.9699 20.3776 15.8216 20.2807 17.5678 19.8018C18.0962 19.6513 18.5465 19.3034 18.8253 18.8301L19.876 17.0787C20.1157 16.6791 19.9993 16.1617 19.6116 15.9032Z" fill="white"/>
</g>
<defs>
<clipPath id="clip0_1260_3636">
<rect width="20" height="20" fill="white"/>
</clipPath>
</defs>
</svg>
