<svg width="9" height="6" viewBox="0 0 9 6" fill="none" xmlns="http://www.w3.org/2000/svg">
<path d="M8.84985 1.51693C9.05005 1.32421 9.05005 1.01174 8.84985 0.819021L8.66861 0.644543C8.46841 0.451819 8.14383 0.451819 7.94363 0.644543L4.5 3.95962L1.05637 0.644545C0.856173 0.451822 0.53159 0.451822 0.331392 0.644545L0.150148 0.819024C-0.0500493 1.01175 -0.0500493 1.32421 0.150148 1.51694L3.95291 5.17774C3.95402 5.17882 3.95513 5.1799 3.95625 5.18098L4.13749 5.35546C4.21257 5.42773 4.30513 5.4729 4.40207 5.49097C4.43617 5.49732 4.47081 5.50032 4.50541 5.49997C4.6348 5.49867 4.76378 5.4505 4.86251 5.35546L5.04375 5.18098C5.04498 5.1798 5.0462 5.17861 5.04742 5.17742L8.84985 1.51693Z" fill="#DC911B"/>
</svg>
