<svg width="60" height="69" viewBox="0 0 60 69" fill="none" xmlns="http://www.w3.org/2000/svg">
<path d="M32.7494 49.8364C32.7494 49.9862 32.7043 50.1209 32.6141 50.2407C32.524 50.3455 32.3662 50.4354 32.1409 50.5103C31.9306 50.5851 31.6451 50.6375 31.2845 50.6675C30.9239 50.7124 30.4657 50.7349 29.9098 50.7349C29.3539 50.7349 28.8957 50.7124 28.5351 50.6675C28.1745 50.6375 27.8816 50.5851 27.6562 50.5103C27.4459 50.4354 27.2956 50.3455 27.2055 50.2407C27.1153 50.1209 27.0703 49.9862 27.0703 49.8364V29.8462C27.0703 29.6965 27.1153 29.5692 27.2055 29.4644C27.2956 29.3446 27.4459 29.2472 27.6562 29.1724C27.8816 29.0825 28.1745 29.0151 28.5351 28.9702C28.8957 28.9253 29.3539 28.9028 29.9098 28.9028C30.4657 28.9028 30.9239 28.9253 31.2845 28.9702C31.6451 29.0151 31.9306 29.0825 32.1409 29.1724C32.3662 29.2472 32.524 29.3446 32.6141 29.4644C32.7043 29.5692 32.7494 29.6965 32.7494 29.8462V49.8364ZM33.1775 23.0181C33.1775 24.1561 32.9447 24.9422 32.4789 25.3765C32.0132 25.8107 31.1493 26.0278 29.8873 26.0278C28.6102 26.0278 27.7464 25.8182 27.2956 25.3989C26.8599 24.9797 26.6421 24.2235 26.6421 23.1304C26.6421 21.9924 26.8675 21.2062 27.3182 20.772C27.7839 20.3228 28.6553 20.0981 29.9324 20.0981C31.1944 20.0981 32.0507 20.3153 32.5015 20.7495C32.9522 21.1688 33.1775 21.925 33.1775 23.0181Z" fill="white"/>
<path fill-rule="evenodd" clip-rule="evenodd" d="M53.0769 21.2353L30 7.96611L6.92308 21.2353V47.765L30 61.0342L53.0769 47.765V21.2353ZM31.1532 0.663242C30.4395 0.252877 29.5605 0.252878 28.8468 0.663242L1.15449 16.5863C0.440123 16.9971 0 17.7566 0 18.5785V50.4217C0 51.2437 0.440124 52.0032 1.15449 52.414L28.8468 68.3371C29.5605 68.7474 30.4395 68.7474 31.1532 68.3371L58.8455 52.414C59.5599 52.0032 60 51.2437 60 50.4217V18.5785C60 17.7566 59.5599 16.9971 58.8455 16.5863L31.1532 0.663242Z" fill="white"/>
</svg>
