<svg viewBox="0 0 73 60" fill="none" xmlns="http://www.w3.org/2000/svg">
<path d="M27.0007 59.7293C26.3815 60.0902 25.6185 60.0902 24.9993 59.7293L1.00074 45.7397C0.38148 45.3787 2.47814e-06 44.7116 2.41502e-06 43.9896L-3.09935e-08 16.0104C-9.41107e-08 15.2885 0.381477 14.6213 1.00074 14.2603L24.9993 0.270747C25.6185 -0.090242 26.3815 -0.0902421 27.0007 0.270747L50.9993 14.2603C51.6185 14.6213 52 15.2884 52 16.0104L52 43.9896C52 44.7116 51.6185 45.3787 50.9993 45.7397L27.0007 59.7293Z" fill="#F3F3F3"/>
<path d="M61.125 42.5C61.125 43.9881 60.5964 45.253 59.5391 46.2946C58.4818 47.3363 57.1979 47.8571 55.6875 47.8571C54.1771 47.8571 52.8932 47.3363 51.8359 46.2946C50.7786 45.253 50.25 43.9881 50.25 42.5C50.25 41.3839 50.5804 40.3609 51.2412 39.4308C51.902 38.5007 52.7799 37.8404 53.875 37.4498V26.4286H57.5V37.4498C58.5951 37.8404 59.473 38.5007 60.1338 39.4308C60.7946 40.3609 61.125 41.3839 61.125 42.5ZM64.75 42.5C64.75 41.0677 64.429 39.7284 63.7871 38.4821C63.1452 37.2359 62.2578 36.1942 61.125 35.3571V13.9286C61.125 12.4405 60.5964 11.1756 59.5391 10.1339C58.4818 9.09226 57.1979 8.57143 55.6875 8.57143C54.1771 8.57143 52.8932 9.09226 51.8359 10.1339C50.7786 11.1756 50.25 12.4405 50.25 13.9286V35.3571C49.1172 36.1942 48.2298 37.2359 47.5879 38.4821C46.946 39.7284 46.625 41.0677 46.625 42.5C46.625 44.974 47.5076 47.0805 49.2729 48.8198C51.0382 50.559 53.1764 51.4286 55.6875 51.4286C58.1986 51.4286 60.3368 50.559 62.1021 48.8198C63.8673 47.0805 64.75 44.974 64.75 42.5ZM68.375 42.5C68.375 45.9412 67.1336 48.8849 64.6509 51.3309C62.1681 53.777 59.1803 55 55.6875 55C52.1947 55 49.2069 53.777 46.7241 51.3309C44.2414 48.8849 43 45.9412 43 42.5C43 39.1146 44.2083 36.2035 46.625 33.7667V13.9286C46.625 11.4546 47.5076 9.34803 49.2729 7.60882C51.0382 5.86961 53.1764 5 55.6875 5C58.1986 5 60.3368 5.86961 62.1021 7.60882C63.8673 9.34803 64.75 11.4546 64.75 13.9286V33.7667C67.1667 36.2035 68.375 39.1146 68.375 42.5ZM72 26.4286V30H66.5625V26.4286H72ZM72 19.2857V22.8571H66.5625V19.2857H72ZM72 12.1429V15.7143H66.5625V12.1429H72Z" fill="#DC911B"/>
<path d="M19.8226 18.4106C19.8226 19.7419 18.743 20.8212 17.4113 20.8212C16.0796 20.8212 15 19.7419 15 18.4106C15 17.0793 16.0796 16 17.4113 16C18.743 16 19.8226 17.0793 19.8226 18.4106Z" fill="#DC911B"/>
<path d="M38.0003 41.5894C38.0003 42.9208 36.9207 44 35.589 44C34.2573 44 33.1777 42.9208 33.1777 41.5894C33.1777 40.2581 34.2573 39.1788 35.589 39.1788C36.9207 39.1788 38.0003 40.2581 38.0003 41.5894Z" fill="#DC911B"/>
<path fill-rule="evenodd" clip-rule="evenodd" d="M16.4844 18.4106C16.4844 18.9226 16.8996 19.3377 17.4118 19.3377C18.0841 19.3377 18.7961 19.3608 19.5322 19.4056C20.0435 19.4367 20.4832 19.0476 20.5143 18.5365C20.5454 18.0254 20.1562 17.5858 19.6449 17.5547C18.8756 17.5079 18.1258 17.4834 17.4118 17.4834C16.8996 17.4834 16.4844 17.8985 16.4844 18.4106ZM18.1523 35.9457C17.7557 36.2696 17.6968 36.8537 18.0208 37.2503C18.5507 37.8988 19.2666 38.5147 20.1321 39.105C20.6925 39.4934 21.2947 39.8383 21.9282 40.1444C22.3893 40.3672 22.9439 40.1742 23.1668 39.7132C23.3897 39.2521 23.1966 38.6978 22.7354 38.4749C22.1771 38.2051 21.659 37.9071 21.1864 37.5793L21.1802 37.5751C20.4066 37.0478 19.8404 36.5461 19.4573 36.0772C19.1333 35.6806 18.549 35.6218 18.1523 35.9457ZM18.5139 32.7928C18.8691 33.1617 19.4562 33.173 19.8253 32.818C20.2811 32.3794 20.9023 31.9189 21.7108 31.4416C22.1925 31.1617 22.7345 30.8779 23.3206 30.5896C23.7802 30.3636 23.9695 29.8078 23.7434 29.3484C23.5173 28.8889 22.9615 28.6997 22.5019 28.9257C21.8908 29.2262 21.3072 29.5312 20.7758 29.8401L20.7706 29.8431C19.8763 30.3708 19.1281 30.9153 18.5391 31.4818C18.1701 31.8369 18.1588 32.4238 18.5139 32.7928ZM23.0056 18.8107C22.9267 19.3167 23.2729 19.7908 23.779 19.8697C25.2396 20.0975 26.6656 20.3911 27.9477 20.7362C28.4422 20.8694 28.9511 20.5765 29.0843 20.0821C29.2175 19.5876 28.9246 19.0789 28.43 18.9457C27.0731 18.5804 25.5805 18.2739 24.0649 18.0376C23.5588 17.9587 23.0846 18.3048 23.0056 18.8107ZM25.0803 40.367C24.9565 40.8639 25.259 41.367 25.756 41.4908C27.0207 41.8059 28.3438 42.0334 29.6811 42.1928C30.1897 42.2535 30.6512 41.8904 30.7118 41.382C30.7725 40.8735 30.4093 40.4122 29.9008 40.3516C28.6247 40.1994 27.3799 39.9843 26.2044 39.6915C25.7074 39.5677 25.2041 39.8702 25.0803 40.367ZM25.5016 28.5555C25.7101 29.0232 26.2584 29.2334 26.7262 29.025C27.9103 28.4974 29.113 27.9603 30.1956 27.4208C30.654 27.1923 30.8403 26.6356 30.6118 26.1773C30.3832 25.7191 29.8264 25.5328 29.368 25.7612C28.3276 26.2798 27.162 26.8007 25.9712 27.3312C25.5033 27.5397 25.2931 28.0878 25.5016 28.5555ZM31.4504 20.926C31.1896 21.3667 31.3355 21.9353 31.7764 22.196C32.547 22.6518 32.7684 22.9989 32.8023 23.1478C32.8039 23.155 32.8056 23.1622 32.8074 23.1693C32.8163 23.2042 32.8231 23.2599 32.7701 23.3739C32.7097 23.5038 32.5807 23.6848 32.3394 23.9123C31.9667 24.2636 31.9494 24.8504 32.3008 25.223C32.6522 25.5955 33.2391 25.6128 33.6118 25.2615C34.2585 24.6519 34.8688 23.7775 34.6084 22.7255C34.3897 21.7874 33.5654 21.0997 32.7209 20.6001C32.28 20.3394 31.7112 20.4853 31.4504 20.926ZM32.7261 41.5264C32.7089 42.0381 33.1099 42.467 33.6218 42.4842C34.2845 42.5065 34.942 42.5165 35.5892 42.5165C36.1014 42.5165 36.5166 42.1014 36.5166 41.5894C36.5166 41.0773 36.1014 40.6622 35.5892 40.6622C34.9611 40.6622 34.3244 40.6525 33.6842 40.6309C33.1723 40.6137 32.7433 41.0146 32.7261 41.5264Z" fill="#DC911B"/>
</svg>
