<svg width="220" height="220" viewBox="0 0 220 220" fill="none" xmlns="http://www.w3.org/2000/svg">
<path d="M110.377 9.77783L210.223 109.624L109.624 210.222L9.77836 110.376L110.377 9.77783Z" fill="white"/>
<path d="M106 9.77783L205.846 109.624V109.624L5.40141 110.376L106 9.77783Z" fill="#F7EB35"/>
<path fill-rule="evenodd" clip-rule="evenodd" d="M207.615 109.621L110.38 12.3853L12.3858 110.379L109.621 207.615L207.615 109.621ZM110.377 9.77783L9.77836 110.376L109.624 210.222L210.223 109.624L110.377 9.77783Z" fill="#080104"/>
<path fill-rule="evenodd" clip-rule="evenodd" d="M209.036 110.53L10.9776 111.313L10.9661 109.469L209.024 108.686L209.036 110.53Z" fill="#080104"/>
<path fill-rule="evenodd" clip-rule="evenodd" d="M217.392 109.632L110.368 2.60742L2.6072 110.368L109.631 217.393L217.392 109.632ZM110.365 0L-0.000218694 110.365L109.634 220L220 109.635L110.365 0Z" fill="#080104"/>
<path d="M144.291 69.6301C144.553 63.4513 143.118 57.3148 140.143 51.8861C137.167 46.4573 132.764 41.9434 127.41 38.8338L116.377 57.8773C118.249 58.9648 119.789 60.5434 120.83 62.4419C121.87 64.3405 122.372 66.4865 122.28 68.6474L144.291 69.6301Z" fill="#080104"/>
<path d="M93.4695 38.7601C88.1167 41.8465 83.7141 46.3414 80.7393 51.7573C77.7645 57.1731 76.3308 63.3034 76.5939 69.4834L98.6044 68.5959C98.5124 66.4347 99.0137 64.2908 100.054 62.3967C101.094 60.5027 102.634 58.9307 104.506 57.8513L93.4695 38.7601Z" fill="#080104"/>
<path d="M93.5355 97.4396C98.8953 100.538 104.998 102.112 111.181 101.991C117.365 101.87 123.393 100.058 128.613 96.7524L116.797 78.1327C114.971 79.2888 112.863 79.9224 110.7 79.9648C108.538 80.0071 106.404 79.4567 104.529 78.373L93.5355 97.4396Z" fill="#080104"/>
<path d="M117.952 67.9957C117.947 63.7953 114.539 60.3865 110.338 60.3818C106.138 60.3771 102.737 63.7783 102.741 67.9786C102.746 72.1789 106.155 75.5878 110.355 75.5925C114.556 75.5972 117.957 72.196 117.952 67.9957Z" fill="#080104"/>
<path d="M45.9012 121.197L43.3079 121.195L43.3057 119.24L45.899 119.243C46.2587 119.244 46.5516 119.169 46.7777 119.019C47.0096 118.869 47.1776 118.663 47.2817 118.4C47.3859 118.132 47.4378 117.832 47.4374 117.5C47.437 117.162 47.3815 116.848 47.271 116.559C47.1662 116.264 47.0006 116.025 46.7741 115.842C46.5535 115.66 46.2604 115.568 45.8949 115.568L44.1196 115.566L44.1306 125.321L41.5895 125.318L41.5764 113.609L45.8927 113.613C46.7455 113.614 47.4796 113.781 48.095 114.115C48.7103 114.448 49.1807 114.907 49.5063 115.491C49.8376 116.071 50.0037 116.736 50.0045 117.486C50.0054 118.242 49.8408 118.899 49.5107 119.456C49.1865 120.008 48.717 120.437 48.1024 120.741C47.4878 121.046 46.754 121.198 45.9012 121.197Z" fill="#080104"/>
<path d="M54.7453 115.714L52.0323 125.33L49.3433 125.327L53.2897 113.622L54.9692 113.624L54.7453 115.714ZM56.9056 125.336L54.1536 115.714L53.8989 113.622L55.6045 113.624L59.612 125.339L56.9056 125.336ZM56.9964 120.969L56.9986 122.923L51.2812 122.917L51.279 120.962L56.9964 120.969Z" fill="#080104"/>
<path d="M69.5131 123.403L69.5153 125.35L62.0487 125.341L62.0465 123.395L69.5131 123.403ZM62.7688 123.396L62.7742 128.221L60.3811 128.219L60.2364 123.393L62.7688 123.396ZM71.358 123.405L71.1371 128.231L68.8049 128.228L68.7995 123.403L71.358 123.405ZM68.1881 113.638L68.1903 115.593L63.0733 115.587L63.0711 113.633L68.1881 113.638ZM70.0243 113.641L70.0374 125.35L67.505 125.347L67.4919 113.638L70.0243 113.641ZM62.7665 113.632L65.3076 113.635L64.9997 118.428C64.9542 119.222 64.8766 119.921 64.7671 120.527C64.6633 121.127 64.5334 121.653 64.3773 122.103C64.2269 122.553 64.0591 122.947 63.8739 123.285C63.6886 123.617 63.4916 123.906 63.2831 124.152C63.0745 124.393 62.8601 124.61 62.6398 124.803C62.4196 124.996 62.2022 125.175 61.9878 125.341L60.6041 125.34L60.6019 123.393L61.0892 123.394C61.2341 123.265 61.379 123.091 61.5238 122.872C61.6685 122.647 61.8016 122.349 61.9231 121.979C62.0445 121.61 62.1513 121.135 62.2435 120.556C62.3356 119.977 62.4074 119.267 62.4586 118.425L62.7665 113.632Z" fill="#080104"/>
<path d="M75.0712 121.053L79.0225 113.651L81.4417 113.653L81.4549 125.363L78.9921 125.36L78.9839 118.042L75.0674 125.356L72.6046 125.353L72.5915 113.643L75.0629 113.646L75.0712 121.053Z" fill="#080104"/>
<path d="M92.3948 118.612L92.397 120.566C92.3979 121.392 92.2885 122.115 92.0688 122.737C91.8548 123.353 91.5479 123.87 91.148 124.288C90.754 124.701 90.2757 125.011 89.7132 125.22C89.1565 125.428 88.5387 125.532 87.86 125.531C87.1812 125.53 86.5603 125.425 85.9973 125.215C85.4401 125.006 84.9583 124.694 84.5517 124.281C84.1509 123.862 83.8399 123.344 83.6188 122.728C83.3976 122.105 83.2866 121.381 83.2857 120.556L83.2835 118.601C83.2825 117.754 83.389 117.015 83.603 116.382C83.8169 115.744 84.1267 115.214 84.5323 114.791C84.938 114.362 85.4191 114.041 85.9758 113.827C86.5325 113.608 87.1503 113.499 87.8291 113.5C88.5078 113.5 89.1258 113.611 89.683 113.831C90.2402 114.047 90.7221 114.369 91.1287 114.798C91.5353 115.222 91.8463 115.753 92.0616 116.392C92.2828 117.025 92.3939 117.765 92.3948 118.612ZM89.8646 120.563L89.8624 118.593C89.8618 118.035 89.8177 117.561 89.7303 117.169C89.6428 116.772 89.5119 116.448 89.3376 116.196C89.1633 115.943 88.9513 115.758 88.7017 115.64C88.4521 115.522 88.162 115.462 87.8313 115.462C87.5006 115.462 87.2077 115.52 86.9525 115.638C86.7032 115.756 86.4916 115.94 86.3179 116.192C86.1499 116.444 86.0226 116.768 85.9361 117.165C85.8553 117.556 85.8152 118.031 85.8158 118.588L85.818 120.559C85.8186 121.095 85.8627 121.553 85.9501 121.934C86.0376 122.315 86.1685 122.626 86.3428 122.867C86.5171 123.109 86.729 123.289 86.9786 123.407C87.234 123.52 87.5271 123.576 87.8578 123.577C88.1827 123.577 88.4698 123.521 88.7191 123.409C88.9743 123.291 89.1858 123.112 89.3538 122.871C89.5218 122.63 89.649 122.319 89.7356 121.938C89.8222 121.558 89.8652 121.099 89.8646 120.563Z" fill="#080104"/>
<path d="M98.6399 115.764L95.9268 125.379L93.2378 125.376L97.1842 113.671L98.8638 113.673L98.6399 115.764ZM100.8 125.385L98.0481 115.763L97.7934 113.672L99.4991 113.674L103.507 125.388L100.8 125.385ZM100.891 121.018L100.893 122.972L95.1757 122.966L95.1735 121.011L100.891 121.018Z" fill="#080104"/>
<path d="M107.27 113.682L107.283 125.392L104.734 125.389L104.72 113.679L107.27 113.682ZM113.44 113.689L109.506 120.593L106.695 120.59L106.344 118.362L108.128 118.364L110.36 113.686L113.44 113.689ZM110.782 125.396L108.183 120.182L109.93 118.414L113.801 125.399L110.782 125.396Z" fill="#080104"/>
<path d="M119.81 113.696L119.823 125.406L117.291 125.403L117.278 113.694L119.81 113.696ZM122.961 113.7L122.963 115.654L114.191 115.644L114.189 113.69L122.961 113.7Z" fill="#080104"/>
<path d="M126.833 121.111L130.784 113.709L133.203 113.711L133.216 125.421L130.754 125.418L130.745 118.1L126.829 125.414L124.366 125.411L124.353 113.701L126.824 113.704L126.833 121.111Z" fill="#080104"/>
<path d="M139.528 120.321L136.935 120.318L136.925 118.613L139.135 118.616C139.483 118.616 139.767 118.563 139.988 118.456C140.214 118.344 140.379 118.18 140.483 117.966C140.593 117.746 140.648 117.481 140.648 117.17C140.647 116.811 140.598 116.524 140.499 116.309C140.4 116.089 140.24 115.928 140.019 115.826C139.799 115.724 139.512 115.673 139.158 115.672L137.8 115.671L137.811 125.426L135.261 125.423L135.248 113.714L139.156 113.718C139.788 113.719 140.354 113.784 140.853 113.913C141.352 114.042 141.776 114.238 142.124 114.502C142.472 114.765 142.737 115.097 142.917 115.5C143.103 115.902 143.196 116.377 143.197 116.924C143.198 117.406 143.094 117.851 142.885 118.258C142.677 118.665 142.349 118.997 141.903 119.254C141.462 119.511 140.885 119.655 140.172 119.687L139.528 120.321ZM139.447 125.428L136.219 125.425L137.235 123.479L139.445 123.482C139.782 123.482 140.054 123.416 140.263 123.282C140.472 123.148 140.622 122.969 140.715 122.743C140.807 122.513 140.853 122.25 140.853 121.955C140.853 121.623 140.809 121.333 140.722 121.087C140.64 120.84 140.504 120.652 140.312 120.523C140.12 120.389 139.862 120.322 139.537 120.321L137.344 120.319L137.36 118.614L140.023 118.617L140.624 119.293C141.303 119.272 141.845 119.394 142.252 119.657C142.658 119.915 142.948 120.253 143.123 120.671C143.303 121.084 143.394 121.524 143.394 121.99C143.395 122.741 143.242 123.374 142.935 123.888C142.634 124.397 142.191 124.782 141.605 125.045C141.019 125.301 140.3 125.429 139.447 125.428Z" fill="#080104"/>
<path d="M152.284 118.478L152.286 120.424L147.091 120.418L147.089 118.472L152.284 118.478ZM147.806 113.728L147.819 125.438L145.269 125.435L145.256 113.725L147.806 113.728ZM154.124 113.735L154.137 125.445L151.613 125.442L151.6 113.732L154.124 113.735Z" fill="#080104"/>
<path d="M165.111 118.693L165.114 120.648C165.115 121.473 165.005 122.197 164.785 122.819C164.571 123.435 164.265 123.952 163.865 124.37C163.471 124.782 162.992 125.093 162.43 125.301C161.873 125.51 161.255 125.613 160.577 125.613C159.898 125.612 159.277 125.507 158.714 125.297C158.157 125.087 157.675 124.776 157.268 124.362C156.868 123.944 156.557 123.426 156.335 122.809C156.114 122.187 156.003 121.463 156.002 120.637L156 118.683C155.999 117.836 156.106 117.096 156.32 116.464C156.534 115.826 156.843 115.295 157.249 114.872C157.655 114.444 158.136 114.123 158.693 113.909C159.249 113.69 159.867 113.58 160.546 113.581C161.225 113.582 161.843 113.693 162.4 113.913C162.957 114.128 163.439 114.45 163.845 114.88C164.252 115.304 164.563 115.835 164.778 116.473C164.999 117.106 165.111 117.846 165.111 118.693ZM162.581 120.645L162.579 118.674C162.578 118.117 162.534 117.642 162.447 117.251C162.359 116.854 162.229 116.529 162.054 116.277C161.88 116.025 161.668 115.84 161.418 115.722C161.169 115.603 160.879 115.544 160.548 115.544C160.217 115.543 159.924 115.602 159.669 115.72C159.42 115.837 159.208 116.022 159.035 116.274C158.867 116.526 158.739 116.85 158.653 117.246C158.572 117.638 158.532 118.112 158.533 118.67L158.535 120.64C158.535 121.176 158.579 121.635 158.667 122.016C158.754 122.396 158.885 122.708 159.059 122.949C159.234 123.19 159.446 123.37 159.695 123.489C159.951 123.601 160.244 123.658 160.574 123.658C160.899 123.659 161.186 123.603 161.436 123.49C161.691 123.373 161.902 123.193 162.07 122.952C162.238 122.711 162.366 122.4 162.452 122.02C162.539 121.639 162.582 121.181 162.581 120.645Z" fill="#080104"/>
<path d="M53.8198 136.284L55.7768 136.286C55.7507 136.973 55.6034 137.553 55.3349 138.025C55.0664 138.494 54.6835 138.849 54.1861 139.092C53.6932 139.334 53.097 139.455 52.3976 139.454C51.8551 139.453 51.3731 139.369 50.9514 139.201C50.5298 139.029 50.1708 138.777 49.8746 138.446C49.5783 138.115 49.3537 137.707 49.2007 137.221C49.0522 136.731 48.9776 136.168 48.9769 135.532L48.9751 133.98C48.9744 133.344 49.0522 132.781 49.2086 132.291C49.3695 131.802 49.5976 131.392 49.8932 131.061C50.1932 130.727 50.5538 130.476 50.9751 130.309C51.4008 130.138 51.8804 130.053 52.414 130.053C53.1268 130.054 53.7233 130.18 54.2033 130.432C54.6833 130.684 55.0536 131.05 55.3141 131.532C55.5792 132.01 55.739 132.594 55.7936 133.285L53.8299 133.283C53.8159 132.847 53.7617 132.506 53.6673 132.259C53.5774 132.007 53.4337 131.831 53.2363 131.731C53.0389 131.626 52.7654 131.573 52.4157 131.573C52.1556 131.573 51.9315 131.616 51.7433 131.704C51.5551 131.788 51.4006 131.923 51.2797 132.112C51.1589 132.3 51.0695 132.547 51.0116 132.852C50.9581 133.158 50.9316 133.53 50.9321 133.97L50.9339 135.534C50.9343 135.965 50.9594 136.333 51.0091 136.639C51.0587 136.941 51.1375 137.188 51.2453 137.38C51.3531 137.573 51.499 137.713 51.6829 137.802C51.8713 137.89 52.109 137.934 52.3959 137.934C52.7277 137.935 52.9944 137.889 53.196 137.797C53.4022 137.705 53.5544 137.54 53.6528 137.301C53.7512 137.063 53.8068 136.724 53.8198 136.284Z" fill="#080104"/>
<path d="M63.8848 134.06L63.8865 135.586C63.8872 136.231 63.8027 136.796 63.6328 137.281C63.4675 137.762 63.2303 138.166 62.9213 138.492C62.6168 138.814 62.2472 139.057 61.8125 139.22C61.3823 139.382 60.9049 139.463 60.3803 139.463C59.8558 139.462 59.3759 139.38 58.9409 139.216C58.5103 139.053 58.1379 138.809 57.8237 138.487C57.514 138.16 57.2737 137.755 57.1027 137.274C56.9318 136.788 56.846 136.223 56.8453 135.578L56.8436 134.052C56.8428 133.391 56.9251 132.813 57.0905 132.319C57.2558 131.821 57.4952 131.407 57.8086 131.077C58.1221 130.742 58.494 130.491 58.9242 130.324C59.3544 130.153 59.8318 130.068 60.3563 130.068C60.8809 130.069 61.3585 130.155 61.7891 130.327C62.2197 130.495 62.5921 130.747 62.9063 131.082C63.2205 131.413 63.4608 131.828 63.6273 132.326C63.7982 132.821 63.884 133.398 63.8848 134.06ZM61.9295 135.584L61.9277 134.045C61.9273 133.61 61.8932 133.239 61.8256 132.934C61.758 132.624 61.6569 132.37 61.5221 132.173C61.3874 131.976 61.2236 131.832 61.0307 131.74C60.8378 131.647 60.6136 131.601 60.3581 131.601C60.1025 131.6 59.8761 131.646 59.679 131.738C59.4863 131.83 59.3228 131.974 59.1885 132.171C59.0587 132.367 58.9604 132.621 58.8935 132.93C58.831 133.236 58.8001 133.606 58.8006 134.042L58.8023 135.58C58.8028 135.999 58.8368 136.357 58.9044 136.654C58.972 136.951 59.0731 137.194 59.2078 137.383C59.3425 137.571 59.5063 137.712 59.6992 137.804C59.8966 137.892 60.1231 137.937 60.3786 137.937C60.6297 137.937 60.8516 137.893 61.0443 137.806C61.2414 137.714 61.4049 137.574 61.5347 137.386C61.6645 137.197 61.7629 136.955 61.8298 136.657C61.8967 136.36 61.9299 136.002 61.9295 135.584Z" fill="#080104"/>
<path d="M71.6767 137.83L71.6784 139.35L65.9082 139.343L65.9065 137.824L71.6767 137.83ZM66.4647 137.824L66.4689 141.592L64.6195 141.59L64.5077 137.822L66.4647 137.824ZM73.1024 137.832L72.9318 141.599L71.1294 141.597L71.1252 137.83L73.1024 137.832ZM70.6526 130.206L70.6543 131.731L66.7 131.727L66.6983 130.201L70.6526 130.206ZM72.0716 130.207L72.0819 139.35L70.1249 139.348L70.1146 130.205L72.0716 130.207ZM66.4629 130.201L68.4266 130.203L68.1887 133.945C68.1535 134.565 68.0936 135.111 68.009 135.584C67.9288 136.053 67.8284 136.463 67.7077 136.815C67.5915 137.166 67.4619 137.474 67.3187 137.737C67.1755 137.997 67.0233 138.223 66.8622 138.415C66.701 138.603 66.5353 138.773 66.3651 138.923C66.1949 139.074 66.0269 139.214 65.8612 139.343L64.7919 139.342L64.7902 137.823L65.1668 137.823C65.2787 137.723 65.3907 137.587 65.5026 137.415C65.6144 137.239 65.7173 137.007 65.8111 136.718C65.905 136.43 65.9875 136.059 66.0587 135.607C66.1299 135.155 66.1854 134.6 66.225 133.943L66.4629 130.201Z" fill="#080104"/>
<path d="M79.7468 137.839L79.7485 139.359L75.4915 139.354L75.4898 137.835L79.7468 137.839ZM76.0932 130.212L76.1035 139.355L74.133 139.353L74.1228 130.209L76.0932 130.212ZM79.1708 133.92L79.1724 135.396L75.4871 135.392L75.4854 133.916L79.1708 133.92ZM79.7248 130.216L79.7265 131.742L75.483 131.737L75.4813 130.211L79.7248 130.216Z" fill="#080104"/>
<path d="M84.2306 136.143L82.2265 136.14L82.2248 134.614L84.2288 134.617C84.5068 134.617 84.7332 134.559 84.9079 134.441C85.0871 134.324 85.2169 134.163 85.2974 133.958C85.3779 133.749 85.418 133.515 85.4177 133.255C85.4174 132.991 85.3745 132.746 85.2891 132.52C85.2081 132.29 85.0801 132.104 84.9051 131.961C84.7346 131.818 84.5081 131.747 84.2256 131.747L82.8537 131.745L82.8623 139.362L80.8985 139.36L80.8883 130.217L84.2239 130.221C84.883 130.221 85.4503 130.352 85.9258 130.612C86.4013 130.872 86.7649 131.23 87.0165 131.687C87.2725 132.139 87.4009 132.659 87.4016 133.245C87.4022 133.835 87.275 134.348 87.02 134.783C86.7694 135.214 86.4066 135.548 85.9316 135.786C85.4566 136.025 84.8896 136.143 84.2306 136.143Z" fill="#080104"/>
<path d="M91.0358 135.642L87.9227 130.225L90.3639 130.228L91.9687 133.909L93.4818 133.911L93.2013 135.644L91.0358 135.642ZM91.9433 135.335L90.2666 139.371L87.8254 139.368L90.355 134.222L91.9433 135.335ZM94.7285 130.233L94.7388 139.376L92.7818 139.374L92.7715 130.23L94.7285 130.233ZM99.4967 130.238L96.4562 135.648L94.3109 135.645L94.0265 133.912L95.5195 133.913L97.0756 130.235L99.4967 130.238ZM97.18 139.379L95.548 135.339L97.1339 134.229L99.6212 139.381L97.18 139.379Z" fill="#080104"/>
<path d="M102.375 136.025L105.428 130.245L107.298 130.247L107.308 139.39L105.405 139.388L105.398 133.673L102.372 139.384L100.469 139.382L100.458 130.239L102.368 130.241L102.375 136.025Z" fill="#080104"/>
<path d="M109.578 130.249L111.306 130.251L113.31 136.508L115.294 130.256L116.821 130.257L114.047 139.397L112.574 139.396L109.578 130.249ZM108.878 130.248L110.526 130.25L110.788 136.279L110.792 139.394L108.888 139.392L108.878 130.248ZM116.067 130.256L117.722 130.258L117.732 139.402L115.835 139.399L115.832 136.285L116.067 130.256Z" fill="#080104"/>
<path d="M126.213 134.13L126.215 135.656C126.216 136.301 126.131 136.866 125.961 137.351C125.796 137.832 125.559 138.236 125.25 138.562C124.945 138.884 124.576 139.127 124.141 139.29C123.711 139.452 123.233 139.533 122.709 139.533C122.184 139.532 121.704 139.45 121.269 139.286C120.839 139.123 120.466 138.879 120.152 138.557C119.842 138.23 119.602 137.825 119.431 137.344C119.26 136.858 119.174 136.293 119.174 135.648L119.172 134.122C119.171 133.461 119.254 132.883 119.419 132.389C119.584 131.891 119.824 131.477 120.137 131.146C120.45 130.812 120.822 130.561 121.253 130.394C121.683 130.223 122.16 130.138 122.685 130.138C123.209 130.139 123.687 130.225 124.117 130.397C124.548 130.565 124.92 130.817 125.235 131.152C125.549 131.483 125.789 131.898 125.956 132.396C126.127 132.891 126.212 133.468 126.213 134.13ZM124.258 135.654L124.256 134.115C124.256 133.68 124.222 133.309 124.154 133.004C124.086 132.694 123.985 132.44 123.851 132.243C123.716 132.046 123.552 131.902 123.359 131.809C123.166 131.717 122.942 131.671 122.686 131.671C122.431 131.67 122.205 131.716 122.007 131.808C121.815 131.9 121.651 132.044 121.517 132.241C121.387 132.437 121.289 132.691 121.222 133C121.159 133.306 121.128 133.676 121.129 134.112L121.131 135.65C121.131 136.069 121.165 136.427 121.233 136.724C121.3 137.021 121.401 137.264 121.536 137.453C121.671 137.641 121.835 137.782 122.028 137.874C122.225 137.962 122.451 138.007 122.707 138.007C122.958 138.007 123.18 137.963 123.373 137.876C123.57 137.784 123.733 137.644 123.863 137.456C123.993 137.267 124.091 137.025 124.158 136.727C124.225 136.43 124.258 136.072 124.258 135.654Z" fill="#080104"/>
<path d="M133.265 137.899L133.267 139.419L129.01 139.414L129.008 137.895L133.265 137.899ZM129.612 130.272L129.622 139.415L127.652 139.413L127.641 130.269L129.612 130.272ZM132.689 133.98L132.691 135.456L129.006 135.452L129.004 133.976L132.689 133.98ZM133.243 130.276L133.245 131.802L129.001 131.797L129 130.271L133.243 130.276Z" fill="#080104"/>
<path d="M137.651 138.526C137.65 138.25 137.749 138.02 137.946 137.836C138.143 137.647 138.41 137.553 138.746 137.554C139.082 137.554 139.349 137.649 139.546 137.837C139.744 138.022 139.843 138.252 139.843 138.528C139.843 138.805 139.745 139.035 139.548 139.219C139.351 139.403 139.084 139.495 138.748 139.494C138.412 139.494 138.145 139.402 137.947 139.217C137.75 139.033 137.651 138.802 137.651 138.526Z" fill="#080104"/>
<path d="M141.659 138.53C141.659 138.254 141.757 138.024 141.954 137.84C142.151 137.652 142.418 137.558 142.754 137.558C143.09 137.559 143.357 137.653 143.555 137.842C143.752 138.026 143.851 138.257 143.851 138.533C143.852 138.809 143.753 139.039 143.556 139.223C143.359 139.407 143.092 139.499 142.756 139.499C142.42 139.498 142.153 139.406 141.956 139.222C141.758 139.037 141.659 138.807 141.659 138.53Z" fill="#080104"/>
<path d="M145.667 138.535C145.667 138.259 145.765 138.029 145.962 137.845C146.159 137.656 146.426 137.562 146.762 137.563C147.098 137.563 147.365 137.658 147.563 137.846C147.76 138.031 147.859 138.261 147.859 138.537C147.86 138.814 147.761 139.044 147.564 139.228C147.367 139.412 147.101 139.504 146.764 139.503C146.428 139.503 146.161 139.411 145.964 139.226C145.766 139.042 145.667 138.811 145.667 138.535Z" fill="#080104"/>
<path d="M149.675 138.539C149.675 138.263 149.773 138.033 149.97 137.849C150.167 137.661 150.434 137.567 150.77 137.567C151.107 137.568 151.373 137.662 151.571 137.851C151.768 138.035 151.867 138.266 151.868 138.542C151.868 138.818 151.77 139.048 151.573 139.232C151.375 139.416 151.109 139.508 150.773 139.508C150.436 139.507 150.169 139.415 149.972 139.231C149.774 139.046 149.676 138.816 149.675 138.539Z" fill="#080104"/>
<path d="M153.683 138.544C153.683 138.268 153.782 138.038 153.979 137.854C154.176 137.665 154.442 137.571 154.779 137.572C155.115 137.572 155.382 137.667 155.579 137.855C155.777 138.04 155.876 138.27 155.876 138.546C155.876 138.823 155.778 139.053 155.581 139.237C155.384 139.421 155.117 139.513 154.781 139.512C154.444 139.512 154.178 139.42 153.98 139.235C153.783 139.051 153.684 138.82 153.683 138.544Z" fill="#080104"/>
<path d="M157.692 138.548C157.691 138.272 157.79 138.042 157.987 137.858C158.184 137.67 158.45 137.576 158.787 137.576C159.123 137.577 159.39 137.671 159.587 137.86C159.785 138.044 159.884 138.275 159.884 138.551C159.884 138.827 159.786 139.057 159.589 139.241C159.392 139.425 159.125 139.517 158.789 139.517C158.453 139.516 158.186 139.424 157.988 139.24C157.791 139.055 157.692 138.825 157.692 138.548Z" fill="#080104"/>
<path d="M161.7 138.553C161.699 138.277 161.798 138.047 161.995 137.863C162.192 137.674 162.459 137.58 162.795 137.581C163.131 137.581 163.398 137.676 163.595 137.864C163.793 138.049 163.892 138.279 163.892 138.555C163.892 138.832 163.794 139.062 163.597 139.246C163.4 139.43 163.133 139.522 162.797 139.521C162.461 139.521 162.194 139.428 161.996 139.244C161.799 139.06 161.7 138.829 161.7 138.553Z" fill="#080104"/>
<path d="M165.708 138.557C165.708 138.281 165.806 138.051 166.003 137.867C166.2 137.679 166.467 137.585 166.803 137.585C167.139 137.586 167.406 137.68 167.604 137.869C167.801 138.053 167.9 138.284 167.9 138.56C167.901 138.836 167.802 139.066 167.605 139.25C167.408 139.434 167.141 139.526 166.805 139.526C166.469 139.525 166.202 139.433 166.005 139.249C165.807 139.064 165.708 138.834 165.708 138.557Z" fill="#080104"/>
<path d="M61.3627 144.7L59.3181 152.063L57.2915 152.06L60.2656 143.098L61.5314 143.099L61.3627 144.7ZM62.991 152.067L60.9167 144.699L60.7247 143.098L62.0102 143.099L65.0307 152.069L62.991 152.067ZM63.0594 148.723L63.061 150.219L58.752 150.215L58.7503 148.718L63.0594 148.723Z" fill="#080104"/>
<path d="M67.8671 143.106L67.8772 152.072L65.9555 152.07L65.9454 143.104L67.8671 143.106ZM72.5173 143.111L69.5521 148.398L67.4336 148.395L67.1694 146.689L68.5139 146.691L70.1955 143.109L72.5173 143.111ZM70.5138 152.075L68.5548 148.083L69.8716 146.729L72.7897 152.078L70.5138 152.075Z" fill="#080104"/>
<path d="M77.3182 143.117L77.3283 152.083L75.4197 152.081L75.4097 143.115L77.3182 143.117ZM79.6925 143.119L79.6942 144.616L73.083 144.608L73.0813 143.112L79.6925 143.119Z" fill="#080104"/>
<path d="M82.6109 148.794L85.5888 143.126L87.4121 143.128L87.4221 152.094L85.566 152.092L85.5597 146.488L82.6081 152.089L80.7519 152.087L80.7419 143.12L82.6046 143.123L82.6109 148.794Z" fill="#080104"/>
<path d="M92.1794 148.189L90.2249 148.187L90.2169 146.881L91.8828 146.883C92.1451 146.884 92.3593 146.843 92.5254 146.761C92.6958 146.675 92.8203 146.55 92.8988 146.386C92.9817 146.217 93.023 146.014 93.0227 145.776C93.0224 145.501 92.985 145.281 92.9105 145.117C92.836 144.949 92.7156 144.825 92.5494 144.747C92.3831 144.669 92.1666 144.63 91.8999 144.629L90.8768 144.628L90.8851 152.098L88.9634 152.096L88.9534 143.13L91.8982 143.133C92.3748 143.134 92.8012 143.183 93.1774 143.282C93.5535 143.381 93.8729 143.531 94.1354 143.733C94.398 143.934 94.5972 144.189 94.7331 144.497C94.8734 144.805 94.9438 145.169 94.9442 145.587C94.9446 145.957 94.8663 146.297 94.7093 146.609C94.5522 146.921 94.3054 147.175 93.969 147.372C93.6369 147.569 93.202 147.679 92.6642 147.703L92.1794 148.189ZM92.1182 152.099L89.6849 152.097L90.4506 150.607L92.1165 150.609C92.3701 150.609 92.5756 150.558 92.7329 150.456C92.8901 150.353 93.0037 150.216 93.0734 150.044C93.1432 149.867 93.178 149.666 93.1777 149.44C93.1774 149.186 93.1444 148.964 93.0786 148.775C93.0172 148.586 92.9142 148.442 92.7698 148.344C92.6254 148.241 92.4308 148.189 92.1859 148.189L90.5331 148.187L90.5448 146.882L92.5518 146.884L93.0049 147.402C93.5165 147.386 93.9254 147.479 94.2317 147.68C94.538 147.878 94.7569 148.137 94.8884 148.457C95.0243 148.773 95.0925 149.11 95.0929 149.467C95.0935 150.042 94.9782 150.526 94.7469 150.92C94.52 151.31 94.1858 151.605 93.7444 151.806C93.303 152.002 92.7609 152.1 92.1182 152.099Z" fill="#080104"/>
<path d="M101.793 146.777L101.795 148.268L97.879 148.263L97.8773 146.773L101.793 146.777ZM98.4176 143.14L98.4277 152.106L96.506 152.104L96.4959 143.138L98.4176 143.14ZM103.179 143.146L103.189 152.112L101.287 152.11L101.277 143.144L103.179 143.146Z" fill="#080104"/>
<path d="M111.461 146.942L111.462 148.439C111.463 149.071 111.38 149.625 111.215 150.101C111.054 150.573 110.822 150.969 110.521 151.289C110.224 151.604 109.864 151.842 109.44 152.002C109.02 152.161 108.554 152.241 108.043 152.24C107.531 152.24 107.063 152.159 106.639 151.999C106.219 151.838 105.856 151.6 105.549 151.283C105.247 150.963 105.013 150.566 104.846 150.094C104.68 149.617 104.596 149.063 104.595 148.431L104.594 146.934C104.593 146.286 104.673 145.719 104.834 145.235C104.996 144.747 105.229 144.341 105.535 144.017C105.84 143.689 106.203 143.443 106.623 143.279C107.042 143.111 107.508 143.027 108.019 143.028C108.531 143.029 108.997 143.113 109.417 143.282C109.837 143.447 110.2 143.693 110.506 144.022C110.813 144.347 111.047 144.754 111.209 145.242C111.376 145.727 111.46 146.294 111.461 146.942ZM109.554 148.436L109.552 146.928C109.551 146.501 109.518 146.137 109.452 145.838C109.386 145.534 109.288 145.285 109.156 145.092C109.025 144.899 108.865 144.757 108.677 144.667C108.489 144.576 108.27 144.531 108.021 144.531C107.772 144.53 107.551 144.575 107.359 144.665C107.171 144.755 107.011 144.897 106.881 145.09C106.754 145.282 106.658 145.531 106.593 145.834C106.532 146.134 106.502 146.497 106.502 146.924L106.504 148.433C106.504 148.844 106.537 149.195 106.603 149.486C106.669 149.778 106.768 150.016 106.899 150.201C107.031 150.386 107.19 150.523 107.379 150.614C107.571 150.7 107.792 150.744 108.041 150.744C108.286 150.744 108.502 150.701 108.69 150.615C108.883 150.525 109.042 150.388 109.169 150.203C109.295 150.019 109.391 149.781 109.456 149.489C109.522 149.198 109.554 148.847 109.554 148.436Z" fill="#080104"/>
<path d="M117.412 149.141L119.32 149.143C119.295 149.816 119.151 150.385 118.889 150.849C118.628 151.308 118.254 151.657 117.769 151.894C117.288 152.132 116.707 152.25 116.025 152.249C115.496 152.249 115.026 152.166 114.614 152.001C114.203 151.833 113.853 151.586 113.564 151.261C113.275 150.937 113.056 150.536 112.907 150.06C112.762 149.579 112.689 149.027 112.689 148.403L112.687 146.882C112.686 146.258 112.762 145.706 112.915 145.226C113.072 144.746 113.294 144.343 113.582 144.019C113.875 143.691 114.227 143.445 114.637 143.282C115.053 143.114 115.52 143.03 116.041 143.031C116.736 143.032 117.318 143.155 117.786 143.402C118.254 143.649 118.615 144.009 118.869 144.481C119.128 144.949 119.283 145.522 119.337 146.2L117.422 146.198C117.408 145.771 117.355 145.436 117.263 145.194C117.175 144.947 117.035 144.775 116.843 144.676C116.65 144.573 116.383 144.521 116.042 144.521C115.789 144.521 115.57 144.564 115.387 144.65C115.203 144.732 115.052 144.865 114.935 145.049C114.817 145.234 114.73 145.476 114.673 145.776C114.621 146.075 114.595 146.441 114.596 146.872L114.597 148.405C114.598 148.828 114.622 149.189 114.671 149.489C114.719 149.785 114.796 150.027 114.901 150.216C115.006 150.405 115.148 150.543 115.328 150.629C115.511 150.715 115.743 150.759 116.023 150.759C116.347 150.759 116.607 150.715 116.803 150.625C117.004 150.534 117.153 150.372 117.249 150.139C117.345 149.905 117.399 149.572 117.412 149.141Z" fill="#080104"/>
<path d="M124.121 143.169L124.131 152.135L122.223 152.133L122.213 143.167L124.121 143.169ZM126.495 143.172L126.497 144.668L119.886 144.661L119.884 143.164L126.495 143.172Z" fill="#080104"/>
<path d="M129.004 146.401L130.821 146.404C131.46 146.404 132.013 146.522 132.481 146.756C132.949 146.991 133.31 147.322 133.564 147.749C133.823 148.176 133.952 148.675 133.953 149.246C133.953 149.677 133.879 150.069 133.731 150.422C133.587 150.775 133.378 151.08 133.103 151.339C132.832 151.597 132.504 151.796 132.119 151.935C131.739 152.074 131.309 152.143 130.828 152.143L127.719 152.139L127.709 143.173L129.63 143.175L129.639 150.651L130.826 150.653C131.093 150.653 131.316 150.587 131.495 150.456C131.674 150.325 131.809 150.153 131.901 149.939C131.992 149.726 132.038 149.49 132.038 149.231C132.037 148.981 131.991 148.755 131.899 148.554C131.807 148.353 131.671 148.194 131.492 148.079C131.313 147.96 131.09 147.9 130.823 147.9L129.006 147.898L129.004 146.401Z" fill="#080104"/>
<path d="M135.169 151.267C135.168 150.996 135.264 150.77 135.456 150.59C135.649 150.405 135.909 150.313 136.237 150.314C136.564 150.314 136.825 150.407 137.017 150.592C137.21 150.773 137.306 150.999 137.307 151.269C137.307 151.54 137.211 151.766 137.019 151.947C136.827 152.127 136.567 152.217 136.239 152.217C135.911 152.216 135.65 152.126 135.458 151.945C135.265 151.764 135.169 151.538 135.169 151.267Z" fill="#080104"/>
<path d="M139.078 151.271C139.077 151.001 139.173 150.775 139.365 150.594C139.558 150.41 139.818 150.318 140.146 150.318C140.473 150.319 140.734 150.411 140.926 150.596C141.119 150.777 141.215 151.003 141.216 151.274C141.216 151.545 141.12 151.771 140.928 151.951C140.736 152.131 140.476 152.221 140.148 152.221C139.82 152.221 139.559 152.13 139.367 151.949C139.174 151.768 139.078 151.542 139.078 151.271Z" fill="#080104"/>
<path d="M142.987 151.276C142.986 151.005 143.082 150.779 143.274 150.599C143.467 150.414 143.727 150.322 144.055 150.323C144.382 150.323 144.643 150.416 144.835 150.601C145.028 150.781 145.124 151.007 145.125 151.278C145.125 151.549 145.029 151.775 144.837 151.955C144.645 152.136 144.385 152.226 144.057 152.225C143.729 152.225 143.468 152.134 143.276 151.954C143.083 151.773 142.987 151.547 142.987 151.276Z" fill="#080104"/>
<path d="M146.895 151.28C146.895 151.009 146.991 150.784 147.183 150.603C147.376 150.419 147.636 150.327 147.963 150.327C148.291 150.327 148.552 150.42 148.744 150.605C148.937 150.786 149.033 151.012 149.034 151.283C149.034 151.554 148.938 151.779 148.746 151.96C148.554 152.14 148.294 152.23 147.966 152.23C147.638 152.229 147.377 152.139 147.185 151.958C146.992 151.777 146.896 151.551 146.895 151.28Z" fill="#080104"/>
<path d="M150.804 151.285C150.804 151.014 150.9 150.788 151.092 150.608C151.284 150.423 151.545 150.331 151.872 150.331C152.2 150.332 152.461 150.424 152.653 150.609C152.846 150.79 152.942 151.016 152.943 151.287C152.943 151.558 152.847 151.784 152.655 151.964C152.463 152.145 152.203 152.235 151.875 152.234C151.547 152.234 151.286 152.143 151.094 151.962C150.901 151.781 150.805 151.556 150.804 151.285Z" fill="#080104"/>
<path d="M154.713 151.289C154.713 151.018 154.809 150.792 155.001 150.612C155.193 150.427 155.454 150.335 155.781 150.336C156.109 150.336 156.37 150.429 156.562 150.614C156.755 150.795 156.851 151.02 156.852 151.291C156.852 151.562 156.756 151.788 156.564 151.968C156.372 152.149 156.112 152.239 155.784 152.239C155.456 152.238 155.195 152.148 155.003 151.967C154.81 151.786 154.714 151.56 154.713 151.289Z" fill="#080104"/>
<path d="M173.916 113.596L173.93 125.393L171.572 125.39L171.559 113.593L173.916 113.596Z" fill="#D7294A"/>
<path d="M177.975 113.601L177.988 125.398L175.63 125.395L175.617 113.598L177.975 113.601Z" fill="#D7294A"/>
<path d="M116.461 185.51L116.463 187.31L111.303 201.889L107.972 201.885L113.156 188.128L106.562 188.121L106.559 185.499L116.461 185.51Z" fill="#080104"/>
<path d="M83.6943 161.252L83.7001 166.366L82.372 166.365L82.3662 161.251L83.6943 161.252ZM85.0082 161.254L85.0095 162.345L81.0582 162.341L81.057 161.249L85.0082 161.254Z" fill="#080104"/>
<path d="M87.0558 162.239L87.0627 168.336L85.744 168.334L85.7361 161.254L86.9555 161.256L87.0558 162.239ZM89.7136 163.641L89.714 163.981C89.7145 164.381 89.6802 164.736 89.6112 165.045C89.5422 165.35 89.4386 165.61 89.3002 165.824C89.1649 166.035 88.9949 166.196 88.7903 166.306C88.5856 166.412 88.3462 166.466 88.072 166.465C87.8168 166.465 87.5962 166.405 87.4101 166.285C87.2272 166.162 87.0727 165.993 86.9464 165.779C86.8201 165.564 86.719 165.314 86.6431 165.027C86.5671 164.74 86.5085 164.433 86.4672 164.105L86.4666 163.576C86.504 163.226 86.5588 162.905 86.6309 162.612C86.703 162.316 86.802 162.059 86.9278 161.842C87.0567 161.625 87.2125 161.458 87.3951 161.341C87.5809 161.222 87.8014 161.162 88.0566 161.163C88.3339 161.163 88.575 161.214 88.7799 161.315C88.988 161.416 89.1599 161.569 89.2956 161.774C89.4345 161.975 89.5387 162.232 89.6084 162.544C89.6781 162.856 89.7132 163.222 89.7136 163.641ZM88.3906 163.98L88.3902 163.639C88.39 163.394 88.3756 163.184 88.347 163.011C88.3216 162.838 88.2805 162.696 88.2236 162.585C88.1668 162.475 88.0927 162.395 88.0012 162.344C87.9098 162.294 87.7979 162.268 87.6656 162.268C87.5364 162.268 87.423 162.293 87.3254 162.343C87.2309 162.394 87.1538 162.468 87.094 162.565C87.0343 162.66 86.9887 162.776 86.9574 162.915C86.926 163.05 86.9088 163.205 86.9059 163.378L86.9069 164.304C86.9135 164.509 86.9404 164.69 86.9879 164.848C87.0385 165.005 87.119 165.132 87.2293 165.226C87.3397 165.318 87.4895 165.364 87.6785 165.364C87.814 165.364 87.9258 165.336 88.014 165.279C88.1053 165.222 88.1792 165.137 88.2358 165.024C88.2924 164.911 88.3316 164.767 88.3535 164.594C88.3785 164.421 88.3909 164.216 88.3906 163.98Z" fill="#080104"/>
<path d="M92.7828 165.199L92.7801 162.836C92.7799 162.682 92.7609 162.559 92.723 162.467C92.6882 162.376 92.6346 162.31 92.5621 162.269C92.4927 162.225 92.4076 162.202 92.3068 162.202C92.1933 162.202 92.0988 162.226 92.0233 162.273C91.9477 162.32 91.8911 162.388 91.8533 162.476C91.8188 162.564 91.8016 162.67 91.8017 162.793L90.4736 162.791C90.4734 162.571 90.5157 162.363 90.6005 162.167C90.6854 161.969 90.8096 161.796 90.9733 161.648C91.1401 161.497 91.3385 161.379 91.5684 161.294C91.7984 161.209 92.0567 161.167 92.3434 161.167C92.6837 161.168 92.9863 161.226 93.2511 161.343C93.5159 161.457 93.7256 161.638 93.8803 161.887C94.035 162.137 94.1125 162.46 94.113 162.857L94.1155 165.135C94.1158 165.421 94.1303 165.655 94.1588 165.834C94.1906 166.014 94.2364 166.168 94.2964 166.298L94.2965 166.378L92.9637 166.376C92.9037 166.235 92.8578 166.058 92.826 165.847C92.7974 165.633 92.783 165.417 92.7828 165.199ZM92.9413 163.252L92.9469 164.046L92.4601 164.046C92.334 164.046 92.2238 164.066 92.1293 164.107C92.038 164.148 91.9608 164.206 91.8979 164.281C91.835 164.354 91.7878 164.439 91.7564 164.537C91.7282 164.634 91.7141 164.738 91.7142 164.848C91.7144 164.971 91.7318 165.075 91.7666 165.16C91.8013 165.246 91.8534 165.31 91.9227 165.354C91.9921 165.399 92.0741 165.421 92.1686 165.421C92.3135 165.421 92.4395 165.391 92.5466 165.331C92.6537 165.272 92.7324 165.199 92.7827 165.114C92.8361 165.029 92.8534 164.951 92.8344 164.878L93.1375 165.394C93.0998 165.51 93.0479 165.631 92.9819 165.757C92.919 165.883 92.8388 166 92.7412 166.107C92.6437 166.214 92.5225 166.302 92.3776 166.371C92.2359 166.437 92.0674 166.47 91.872 166.47C91.5979 166.469 91.3473 166.406 91.1203 166.28C90.8933 166.154 90.7135 165.977 90.5809 165.75C90.4515 165.523 90.3866 165.253 90.3862 164.941C90.3859 164.683 90.4266 164.45 90.5083 164.242C90.5932 164.031 90.719 163.853 90.8858 163.708C91.0527 163.561 91.2636 163.447 91.5188 163.369C91.7739 163.29 92.0732 163.251 92.4167 163.252L92.9413 163.252Z" fill="#080104"/>
<path d="M98.0316 163.319L98.0328 164.416L95.9911 164.414L95.9898 163.317L98.0316 163.319ZM96.4176 161.266L96.4234 166.38L95.0953 166.379L95.0895 161.265L96.4176 161.266ZM98.932 161.269L98.9378 166.383L97.6144 166.382L97.6087 161.268L98.932 161.269Z" fill="#080104"/>
<path d="M101.772 165.38C101.895 165.38 102.001 165.355 102.089 165.304C102.18 165.254 102.25 165.172 102.297 165.059C102.344 164.945 102.369 164.799 102.372 164.619L103.615 164.621C103.615 165.005 103.534 165.337 103.37 165.618C103.21 165.895 102.993 166.109 102.719 166.26C102.448 166.408 102.141 166.481 101.797 166.481C101.454 166.48 101.154 166.425 100.899 166.314C100.644 166.204 100.433 166.043 100.265 165.832C100.101 165.62 99.9764 165.363 99.891 165.061C99.8088 164.755 99.7674 164.405 99.767 164.011L99.7665 163.638C99.7661 163.251 99.8067 162.904 99.8883 162.598C99.973 162.293 100.097 162.035 100.261 161.824C100.428 161.613 100.637 161.452 100.889 161.342C101.144 161.232 101.443 161.178 101.787 161.178C102.155 161.178 102.475 161.256 102.746 161.411C103.018 161.562 103.229 161.786 103.38 162.082C103.535 162.379 103.613 162.744 103.613 163.179L102.37 163.178C102.367 162.982 102.343 162.82 102.299 162.691C102.258 162.559 102.193 162.458 102.105 162.388C102.02 162.316 101.906 162.279 101.764 162.279C101.616 162.279 101.496 162.31 101.405 162.373C101.317 162.433 101.249 162.521 101.202 162.638C101.158 162.751 101.128 162.893 101.113 163.063C101.097 163.233 101.09 163.425 101.09 163.64L101.09 164.013C101.091 164.243 101.097 164.443 101.11 164.613C101.126 164.78 101.156 164.922 101.2 165.039C101.248 165.152 101.315 165.237 101.404 165.294C101.495 165.351 101.618 165.379 101.772 165.38Z" fill="#080104"/>
<path d="M107.246 161.279L107.247 162.38L105.342 162.378L105.341 161.276L107.246 161.279ZM105.7 161.277L105.706 166.391L104.378 166.389L104.372 161.275L105.7 161.277ZM108.229 161.28L108.235 166.394L106.902 166.392L106.896 161.278L108.229 161.28Z" fill="#080104"/>
<path d="M109.064 164.012L109.063 163.667C109.063 163.267 109.11 162.913 109.204 162.604C109.301 162.295 109.44 162.037 109.619 161.829C109.798 161.619 110.014 161.46 110.266 161.353C110.521 161.243 110.806 161.188 111.121 161.188C111.439 161.189 111.725 161.244 111.977 161.355C112.232 161.462 112.45 161.622 112.63 161.833C112.813 162.041 112.953 162.3 113.051 162.608C113.149 162.917 113.198 163.272 113.199 163.672L113.199 164.017C113.2 164.414 113.151 164.767 113.054 165.076C112.957 165.384 112.817 165.644 112.634 165.855C112.455 166.066 112.239 166.225 111.987 166.332C111.735 166.438 111.452 166.492 111.137 166.491C110.821 166.491 110.536 166.437 110.281 166.33C110.029 166.222 109.811 166.063 109.628 165.852C109.445 165.64 109.305 165.38 109.207 165.071C109.112 164.762 109.064 164.409 109.064 164.012ZM110.387 163.669L110.387 164.014C110.387 164.25 110.403 164.455 110.435 164.628C110.47 164.802 110.519 164.945 110.582 165.059C110.648 165.172 110.727 165.256 110.819 165.309C110.91 165.363 111.016 165.39 111.135 165.39C111.255 165.39 111.362 165.364 111.457 165.31C111.551 165.257 111.628 165.173 111.688 165.06C111.751 164.947 111.796 164.803 111.825 164.63C111.856 164.457 111.871 164.252 111.871 164.016L111.871 163.671C111.87 163.441 111.853 163.239 111.818 163.066C111.783 162.889 111.734 162.746 111.671 162.635C111.608 162.522 111.529 162.437 111.434 162.38C111.343 162.32 111.239 162.29 111.122 162.29C111.006 162.289 110.902 162.319 110.811 162.379C110.722 162.436 110.645 162.521 110.579 162.634C110.516 162.744 110.468 162.888 110.433 163.064C110.402 163.237 110.386 163.439 110.387 163.669Z" fill="#080104"/>
<path d="M115.357 162.271L115.364 168.368L114.045 168.366L114.037 161.286L115.257 161.288L115.357 162.271ZM118.015 163.673L118.015 164.013C118.016 164.413 117.982 164.768 117.913 165.076C117.844 165.382 117.74 165.642 117.602 165.856C117.466 166.067 117.296 166.227 117.092 166.337C116.887 166.444 116.648 166.498 116.373 166.497C116.118 166.497 115.898 166.437 115.711 166.317C115.529 166.194 115.374 166.025 115.248 165.811C115.121 165.596 115.02 165.346 114.944 165.059C114.868 164.772 114.81 164.465 114.768 164.137L114.768 163.608C114.805 163.258 114.86 162.937 114.932 162.644C115.004 162.348 115.103 162.091 115.229 161.874C115.358 161.656 115.514 161.49 115.696 161.373C115.882 161.254 116.103 161.194 116.358 161.194C116.635 161.195 116.876 161.245 117.081 161.346C117.289 161.447 117.461 161.6 117.597 161.805C117.736 162.007 117.84 162.264 117.91 162.576C117.979 162.888 118.014 163.254 118.015 163.673ZM116.692 164.012L116.692 163.671C116.691 163.425 116.677 163.216 116.648 163.043C116.623 162.869 116.582 162.727 116.525 162.617C116.468 162.507 116.394 162.426 116.303 162.376C116.211 162.325 116.099 162.3 115.967 162.3C115.838 162.3 115.724 162.325 115.627 162.375C115.532 162.425 115.455 162.499 115.395 162.597C115.336 162.691 115.29 162.808 115.259 162.947C115.227 163.082 115.21 163.236 115.207 163.41L115.208 164.336C115.215 164.541 115.242 164.722 115.289 164.88C115.34 165.037 115.42 165.163 115.531 165.258C115.641 165.349 115.791 165.395 115.98 165.396C116.115 165.396 116.227 165.367 116.315 165.311C116.407 165.254 116.481 165.169 116.537 165.056C116.594 164.943 116.633 164.799 116.655 164.626C116.68 164.453 116.692 164.248 116.692 164.012Z" fill="#080104"/>
<path d="M120.976 161.294L120.981 166.408L119.653 166.406L119.648 161.292L120.976 161.294ZM122.29 161.295L122.291 162.387L118.34 162.383L118.338 161.291L122.29 161.295Z" fill="#080104"/>
<path d="M125.955 163.351L125.956 164.447L123.914 164.445L123.913 163.348L125.955 163.351ZM124.341 161.298L124.347 166.412L123.019 166.41L123.013 161.296L124.341 161.298ZM126.855 161.301L126.861 166.414L125.538 166.413L125.532 161.299L126.855 161.301Z" fill="#080104"/>
<path d="M128.776 162.796L129.967 162.798C130.37 162.798 130.714 162.876 130.997 163.03C131.281 163.182 131.499 163.395 131.65 163.669C131.802 163.943 131.878 164.26 131.878 164.619C131.879 164.881 131.835 165.122 131.747 165.342C131.662 165.56 131.538 165.75 131.374 165.914C131.214 166.074 131.015 166.199 130.779 166.287C130.543 166.374 130.272 166.418 129.966 166.418L127.934 166.416L127.928 161.302L129.261 161.303L129.266 165.321L129.97 165.321C130.112 165.322 130.225 165.289 130.31 165.223C130.398 165.157 130.461 165.072 130.499 164.968C130.54 164.86 130.56 164.744 130.56 164.618C130.56 164.486 130.539 164.366 130.498 164.259C130.46 164.148 130.397 164.062 130.309 163.998C130.223 163.932 130.11 163.899 129.968 163.899L128.777 163.897L128.776 162.796ZM133.789 161.308L133.795 166.422L132.471 166.421L132.465 161.307L133.789 161.308Z" fill="#080104"/>
<path d="M136.235 164.119L137.504 161.313L138.78 161.314L138.786 166.428L137.476 166.426L137.473 163.628L136.21 166.425L134.929 166.424L134.923 161.31L136.232 161.311L136.235 164.119ZM137.544 159.238L138.518 159.239C138.518 159.516 138.45 159.76 138.315 159.971C138.183 160.179 137.994 160.343 137.749 160.462C137.506 160.582 137.218 160.641 136.884 160.641C136.38 160.64 135.981 160.509 135.688 160.247C135.394 159.985 135.247 159.648 135.247 159.235L136.211 159.236C136.211 159.4 136.262 159.545 136.363 159.671C136.464 159.797 136.637 159.861 136.883 159.861C137.126 159.861 137.296 159.798 137.393 159.672C137.494 159.546 137.544 159.402 137.544 159.238Z" fill="#080104"/>
<path d="M97.3617 172.833L98.6299 170.027L99.906 170.028L99.9118 175.142L98.6026 175.14L98.5994 172.342L97.3359 175.139L96.0551 175.138L96.0494 170.024L97.3585 170.025L97.3617 172.833Z" fill="#080104"/>
<path d="M103.831 172.084L103.832 173.18L101.791 173.178L101.789 172.081L103.831 172.084ZM102.217 170.031L102.223 175.145L100.895 175.143L100.889 170.029L102.217 170.031ZM104.732 170.033L104.737 175.147L103.414 175.146L103.408 170.032L104.732 170.033Z" fill="#080104"/>
<path d="M106.499 170.035L107.823 170.037L107.801 171.734C107.792 172.288 107.738 172.764 107.637 173.161C107.537 173.558 107.402 173.89 107.232 174.158C107.065 174.425 106.872 174.639 106.651 174.8C106.431 174.957 106.196 175.073 105.947 175.149L105.711 175.148L105.696 174.061L105.823 174.047C105.974 173.877 106.092 173.712 106.177 173.551C106.265 173.391 106.33 173.224 106.37 173.051C106.411 172.874 106.438 172.681 106.45 172.469C106.466 172.255 106.475 172.009 106.478 171.732L106.499 170.035ZM106.844 170.036L109.822 170.039L109.828 175.153L108.509 175.152L108.505 171.163L106.846 171.161L106.844 170.036ZM105.44 174.047L110.498 174.053L110.501 176.695L109.177 176.693L109.175 175.152L106.803 175.15L106.805 176.69L105.443 176.689L105.44 174.047Z" fill="#080104"/>
<path d="M113.25 175.251C112.9 175.251 112.589 175.197 112.318 175.09C112.05 174.982 111.823 174.828 111.637 174.626C111.451 174.421 111.309 174.173 111.211 173.883C111.113 173.593 111.064 173.262 111.063 172.891L111.063 172.47C111.062 172.054 111.109 171.69 111.204 171.378C111.298 171.063 111.431 170.799 111.604 170.585C111.777 170.371 111.99 170.212 112.242 170.108C112.497 170.001 112.785 169.948 113.107 169.948C113.428 169.949 113.71 170.003 113.953 170.11C114.199 170.214 114.402 170.372 114.563 170.583C114.724 170.791 114.846 171.05 114.928 171.359C115.01 171.668 115.051 172.027 115.052 172.437L115.053 173.042L111.626 173.038L111.625 172.107L113.752 172.109L113.752 171.991C113.751 171.783 113.729 171.61 113.685 171.471C113.641 171.329 113.571 171.223 113.477 171.154C113.382 171.085 113.256 171.05 113.098 171.05C112.966 171.049 112.854 171.076 112.763 171.129C112.672 171.183 112.599 171.266 112.546 171.38C112.492 171.493 112.453 171.641 112.428 171.824C112.403 172.003 112.391 172.219 112.391 172.471L112.392 172.892C112.392 173.128 112.412 173.327 112.454 173.488C112.495 173.645 112.555 173.774 112.634 173.875C112.716 173.973 112.815 174.044 112.932 174.088C113.048 174.129 113.184 174.15 113.338 174.15C113.571 174.151 113.781 174.11 113.967 174.028C114.156 173.943 114.316 173.828 114.448 173.684L114.979 174.488C114.887 174.607 114.761 174.727 114.601 174.846C114.44 174.966 114.248 175.063 114.025 175.139C113.801 175.214 113.543 175.252 113.25 175.251Z" fill="#080104"/>
<path d="M117.238 170.047L117.243 175.161L115.915 175.16L115.909 170.046L117.238 170.047ZM120.017 170.051L118.168 173.277L117 173.275L116.829 171.966L117.561 171.967L118.348 170.049L120.017 170.051ZM118.373 175.163L117.482 173.021L118.634 172.355L120.131 175.165L118.373 175.163Z" fill="#080104"/>
<path d="M122.469 174.161C122.592 174.161 122.698 174.136 122.786 174.085C122.877 174.035 122.947 173.953 122.994 173.84C123.041 173.726 123.066 173.58 123.069 173.4L124.312 173.402C124.312 173.786 124.231 174.118 124.067 174.399C123.907 174.676 123.69 174.89 123.416 175.041C123.145 175.188 122.838 175.262 122.494 175.262C122.151 175.261 121.852 175.206 121.596 175.095C121.341 174.985 121.13 174.824 120.962 174.613C120.798 174.401 120.673 174.144 120.588 173.842C120.506 173.536 120.464 173.186 120.464 172.792L120.464 172.419C120.463 172.031 120.504 171.685 120.585 171.379C120.67 171.074 120.794 170.816 120.958 170.605C121.125 170.394 121.334 170.233 121.586 170.123C121.841 170.013 122.14 169.958 122.484 169.959C122.852 169.959 123.172 170.037 123.443 170.191C123.715 170.343 123.926 170.567 124.077 170.863C124.232 171.16 124.31 171.525 124.31 171.96L123.067 171.959C123.064 171.763 123.04 171.601 122.996 171.472C122.955 171.339 122.89 171.239 122.802 171.169C122.717 171.097 122.603 171.06 122.461 171.06C122.313 171.06 122.193 171.091 122.102 171.154C122.014 171.214 121.946 171.302 121.899 171.419C121.855 171.532 121.825 171.674 121.81 171.844C121.794 172.014 121.787 172.206 121.787 172.42L121.787 172.794C121.788 173.024 121.794 173.224 121.807 173.394C121.823 173.561 121.853 173.703 121.897 173.82C121.945 173.933 122.012 174.018 122.101 174.075C122.192 174.132 122.315 174.16 122.469 174.161Z" fill="#080104"/>
<path fill-rule="evenodd" clip-rule="evenodd" d="M78.4816 159.659C78.4799 158.131 79.7167 156.894 81.2441 156.896L138.861 156.961C140.388 156.963 141.627 158.202 141.629 159.73L141.648 176.323C141.65 177.85 140.413 179.087 138.885 179.086L81.2689 179.021C79.7415 179.019 78.502 177.78 78.5002 176.252L78.4816 159.659ZM81.2462 158.74C80.737 158.739 80.3248 159.152 80.3253 159.661L80.344 176.254C80.3445 176.763 80.7577 177.177 81.2669 177.177L138.883 177.242C139.392 177.242 139.805 176.83 139.804 176.321L139.785 159.727C139.785 159.218 139.372 158.805 138.863 158.805L81.2462 158.74Z" fill="#080104"/>
</svg>
