<svg width="220" height="220" viewBox="0 0 220 220" fill="none" xmlns="http://www.w3.org/2000/svg">
<path d="M110.377 9.77783L210.223 109.624L109.624 210.222L9.77836 110.376L110.377 9.77783Z" fill="white"/>
<path d="M110.377 9.77783L210.223 109.624V109.624L9.77836 110.376L110.377 9.77783Z" fill="#F7EB35"/>
<path fill-rule="evenodd" clip-rule="evenodd" d="M203.238 109.621L106.003 12.3853L8.00883 110.379L105.244 207.615L203.238 109.621ZM106 9.77783L5.40141 110.376L105.247 210.222L205.846 109.624L106 9.77783Z" fill="#080104"/>
<path fill-rule="evenodd" clip-rule="evenodd" d="M209.036 110.53L10.9776 111.313L10.9661 109.469L209.024 108.686L209.036 110.53Z" fill="#080104"/>
<path fill-rule="evenodd" clip-rule="evenodd" d="M217.392 109.632L110.368 2.60742L2.6072 110.368L109.631 217.393L217.392 109.632ZM110.365 0L-0.000218694 110.365L109.634 220L220 109.635L110.365 0Z" fill="#080104"/>
<path d="M144.291 69.6301C144.553 63.4513 143.118 57.3148 140.143 51.8861C137.167 46.4573 132.764 41.9434 127.41 38.8338L116.377 57.8773C118.249 58.9648 119.789 60.5434 120.83 62.4419C121.87 64.3405 122.372 66.4865 122.28 68.6474L144.291 69.6301Z" fill="#080104"/>
<path d="M93.4695 38.7601C88.1167 41.8465 83.7141 46.3414 80.7393 51.7573C77.7645 57.1731 76.3308 63.3034 76.5939 69.4834L98.6044 68.5959C98.5124 66.4347 99.0137 64.2908 100.054 62.3967C101.094 60.5027 102.634 58.9307 104.506 57.8513L93.4695 38.7601Z" fill="#080104"/>
<path d="M93.5355 97.4396C98.8953 100.538 104.998 102.112 111.181 101.991C117.365 101.87 123.393 100.058 128.613 96.7524L116.797 78.1327C114.971 79.2888 112.863 79.9224 110.7 79.9648C108.538 80.0071 106.404 79.4567 104.529 78.373L93.5355 97.4396Z" fill="#080104"/>
<path d="M117.952 67.9957C117.947 63.7953 114.539 60.3865 110.338 60.3818C106.138 60.3771 102.737 63.7783 102.741 67.9786C102.746 72.1789 106.155 75.5878 110.355 75.5925C114.556 75.5972 117.957 72.196 117.952 67.9957Z" fill="#080104"/>
<path d="M45.9032 121.197L43.3099 121.195L43.3077 119.24L45.901 119.243C46.2607 119.244 46.5536 119.169 46.7797 119.019C47.0116 118.869 47.1796 118.663 47.2837 118.4C47.3878 118.132 47.4397 117.832 47.4393 117.5C47.439 117.162 47.3835 116.848 47.2729 116.559C47.1682 116.264 47.0026 116.025 46.7761 115.842C46.5554 115.66 46.2624 115.568 45.8969 115.568L44.1216 115.566L44.1325 125.321L41.5914 125.318L41.5783 113.609L45.8947 113.613C46.7475 113.614 47.4816 113.781 48.0969 114.115C48.7122 114.448 49.1827 114.907 49.5082 115.491C49.8396 116.071 50.0057 116.736 50.0065 117.486C50.0073 118.242 49.8427 118.899 49.5127 119.456C49.1884 120.008 48.719 120.437 48.1043 120.741C47.4897 121.046 46.756 121.198 45.9032 121.197Z" fill="#080104"/>
<path d="M54.7473 115.714L52.0342 125.33L49.3452 125.327L53.2916 113.622L54.9712 113.624L54.7473 115.714ZM56.9075 125.336L54.1555 115.714L53.9008 113.622L55.6065 113.624L59.614 125.339L56.9075 125.336ZM56.9984 120.969L57.0006 122.923L51.2831 122.917L51.2809 120.962L56.9984 120.969Z" fill="#080104"/>
<path d="M69.515 123.403L69.5172 125.35L62.0506 125.341L62.0484 123.395L69.515 123.403ZM62.7707 123.396L62.7761 128.221L60.383 128.219L60.2384 123.393L62.7707 123.396ZM71.3599 123.406L71.1391 128.231L68.8069 128.228L68.8014 123.403L71.3599 123.406ZM68.19 113.638L68.1922 115.593L63.0752 115.587L63.0731 113.633L68.19 113.638ZM70.0262 113.641L70.0394 125.35L67.507 125.347L67.4938 113.638L70.0262 113.641ZM62.7685 113.632L65.3096 113.635L65.0016 118.428C64.9561 119.222 64.8786 119.921 64.769 120.527C64.6653 121.127 64.5353 121.653 64.3792 122.103C64.2289 122.553 64.0611 122.947 63.8758 123.285C63.6905 123.617 63.4936 123.906 63.285 124.152C63.0764 124.393 62.862 124.61 62.6418 124.803C62.4215 124.996 62.2042 125.175 61.9897 125.341L60.606 125.34L60.6038 123.393L61.0912 123.394C61.2361 123.265 61.3809 123.091 61.5257 122.872C61.6705 122.647 61.8036 122.349 61.925 121.979C62.0464 121.61 62.1532 121.135 62.2454 120.556C62.3376 119.977 62.4093 119.267 62.4606 118.425L62.7685 113.632Z" fill="#080104"/>
<path d="M75.0732 121.053L79.0244 113.651L81.4437 113.653L81.4568 125.363L78.994 125.36L78.9858 118.042L75.0693 125.356L72.6065 125.353L72.5934 113.643L75.0649 113.646L75.0732 121.053Z" fill="#080104"/>
<path d="M92.3967 118.612L92.3989 120.566C92.3999 121.392 92.2905 122.115 92.0707 122.737C91.8567 123.353 91.5498 123.87 91.15 124.288C90.7559 124.701 90.2777 125.011 89.7151 125.22C89.1584 125.428 88.5407 125.532 87.8619 125.531C87.1831 125.53 86.5622 125.425 85.9993 125.215C85.4421 125.006 84.9602 124.694 84.5536 124.281C84.1528 123.862 83.8419 123.344 83.6207 122.728C83.3996 122.105 83.2885 121.381 83.2876 120.556L83.2854 118.601C83.2845 117.754 83.391 117.015 83.6049 116.382C83.8188 115.744 84.1286 115.214 84.5343 114.791C84.9399 114.362 85.4211 114.041 85.9778 113.827C86.5345 113.608 87.1522 113.499 87.831 113.5C88.5098 113.5 89.1278 113.611 89.685 113.831C90.2422 114.047 90.724 114.369 91.1306 114.798C91.5372 115.222 91.8482 115.753 92.0636 116.392C92.2847 117.025 92.3958 117.765 92.3967 118.612ZM89.8666 120.563L89.8644 118.593C89.8637 118.035 89.8197 117.561 89.7322 117.169C89.6448 116.772 89.5139 116.448 89.3395 116.196C89.1652 115.943 88.9532 115.758 88.7036 115.64C88.454 115.522 88.1639 115.462 87.8332 115.462C87.5025 115.462 87.2096 115.52 86.9545 115.638C86.7051 115.756 86.4936 115.94 86.3198 116.192C86.1519 116.444 86.0246 116.768 85.938 117.165C85.8572 117.556 85.8171 118.031 85.8178 118.588L85.82 120.559C85.8206 121.095 85.8646 121.553 85.9521 121.934C86.0395 122.315 86.1704 122.626 86.3447 122.867C86.519 123.109 86.731 123.289 86.9806 123.407C87.236 123.52 87.529 123.576 87.8597 123.577C88.1846 123.577 88.4717 123.521 88.7211 123.409C88.9762 123.291 89.1877 123.112 89.3557 122.871C89.5237 122.63 89.651 122.319 89.7376 121.938C89.8242 121.558 89.8672 121.099 89.8666 120.563Z" fill="#080104"/>
<path d="M98.6418 115.764L95.9288 125.379L93.2398 125.376L97.1862 113.671L98.8657 113.673L98.6418 115.764ZM100.802 125.385L98.0501 115.763L97.7953 113.672L99.501 113.674L103.509 125.388L100.802 125.385ZM100.893 121.018L100.895 122.972L95.1777 122.966L95.1755 121.011L100.893 121.018Z" fill="#080104"/>
<path d="M107.272 113.682L107.285 125.392L104.736 125.389L104.722 113.679L107.272 113.682ZM113.442 113.689L109.508 120.593L106.697 120.59L106.346 118.362L108.13 118.364L110.362 113.686L113.442 113.689ZM110.784 125.396L108.185 120.182L109.932 118.414L113.803 125.399L110.784 125.396Z" fill="#080104"/>
<path d="M119.812 113.696L119.825 125.406L117.293 125.403L117.28 113.694L119.812 113.696ZM122.962 113.7L122.965 115.654L114.193 115.644L114.191 113.69L122.962 113.7Z" fill="#080104"/>
<path d="M126.835 121.111L130.786 113.709L133.205 113.711L133.218 125.421L130.755 125.418L130.747 118.1L126.831 125.414L124.368 125.411L124.355 113.701L126.826 113.704L126.835 121.111Z" fill="#080104"/>
<path d="M139.53 120.321L136.937 120.318L136.927 118.613L139.137 118.616C139.485 118.616 139.769 118.563 139.99 118.456C140.216 118.344 140.381 118.18 140.485 117.966C140.595 117.746 140.65 117.481 140.649 117.17C140.649 116.811 140.599 116.524 140.501 116.309C140.402 116.089 140.242 115.928 140.021 115.826C139.801 115.724 139.514 115.673 139.16 115.672L137.802 115.671L137.813 125.426L135.263 125.423L135.25 113.714L139.158 113.718C139.79 113.719 140.356 113.784 140.855 113.913C141.354 114.042 141.777 114.238 142.126 114.502C142.474 114.765 142.739 115.097 142.919 115.5C143.105 115.902 143.198 116.377 143.199 116.924C143.2 117.406 143.096 117.851 142.887 118.258C142.679 118.665 142.351 118.998 141.905 119.254C141.464 119.511 140.887 119.655 140.174 119.687L139.53 120.321ZM139.449 125.428L136.221 125.425L137.237 123.479L139.447 123.482C139.783 123.482 140.056 123.416 140.265 123.282C140.473 123.148 140.624 122.969 140.717 122.743C140.809 122.513 140.855 122.25 140.855 121.955C140.855 121.623 140.811 121.333 140.723 121.087C140.642 120.84 140.505 120.652 140.314 120.523C140.122 120.389 139.864 120.322 139.539 120.321L137.346 120.319L137.362 118.614L140.025 118.617L140.626 119.293C141.305 119.272 141.847 119.394 142.253 119.657C142.66 119.915 142.95 120.253 143.125 120.671C143.305 121.084 143.396 121.524 143.396 121.99C143.397 122.741 143.244 123.374 142.937 123.888C142.636 124.397 142.193 124.782 141.607 125.045C141.021 125.301 140.302 125.429 139.449 125.428Z" fill="#080104"/>
<path d="M152.286 118.478L152.288 120.424L147.093 120.418L147.091 118.472L152.286 118.478ZM147.808 113.728L147.821 125.438L145.271 125.435L145.258 113.725L147.808 113.728ZM154.126 113.735L154.139 125.445L151.615 125.442L151.602 113.732L154.126 113.735Z" fill="#080104"/>
<path d="M165.113 118.693L165.116 120.648C165.117 121.473 165.007 122.197 164.787 122.819C164.573 123.435 164.266 123.952 163.867 124.37C163.473 124.782 162.994 125.093 162.432 125.301C161.875 125.51 161.257 125.613 160.579 125.613C159.9 125.612 159.279 125.507 158.716 125.297C158.159 125.087 157.677 124.776 157.27 124.362C156.869 123.944 156.559 123.426 156.337 122.809C156.116 122.187 156.005 121.463 156.004 120.637L156.002 118.683C156.001 117.836 156.108 117.096 156.322 116.464C156.535 115.826 156.845 115.295 157.251 114.872C157.657 114.444 158.138 114.123 158.694 113.909C159.251 113.69 159.869 113.58 160.548 113.581C161.226 113.582 161.844 113.693 162.402 113.913C162.959 114.128 163.441 114.45 163.847 114.88C164.254 115.304 164.565 115.835 164.78 116.473C165.001 117.106 165.112 117.846 165.113 118.693ZM162.583 120.645L162.581 118.674C162.58 118.117 162.536 117.642 162.449 117.251C162.361 116.854 162.23 116.529 162.056 116.277C161.882 116.025 161.67 115.84 161.42 115.722C161.171 115.603 160.881 115.544 160.55 115.544C160.219 115.543 159.926 115.602 159.671 115.72C159.422 115.837 159.21 116.022 159.036 116.274C158.869 116.526 158.741 116.85 158.655 117.246C158.574 117.638 158.534 118.112 158.534 118.67L158.537 120.64C158.537 121.176 158.581 121.635 158.669 122.016C158.756 122.396 158.887 122.708 159.061 122.949C159.236 123.19 159.448 123.37 159.697 123.489C159.953 123.601 160.246 123.658 160.576 123.658C160.901 123.659 161.188 123.603 161.438 123.491C161.693 123.373 161.904 123.193 162.072 122.952C162.24 122.711 162.368 122.4 162.454 122.02C162.541 121.639 162.584 121.181 162.583 120.645Z" fill="#080104"/>
<path d="M53.8198 136.285L55.7768 136.287C55.7507 136.973 55.6034 137.553 55.3349 138.026C55.0664 138.494 54.6835 138.85 54.1861 139.092C53.6932 139.334 53.097 139.455 52.3976 139.454C51.8551 139.454 51.3731 139.37 50.9514 139.202C50.5298 139.029 50.1708 138.778 49.8746 138.447C49.5783 138.116 49.3537 137.707 49.2007 137.221C49.0522 136.732 48.9776 136.168 48.9769 135.532L48.9751 133.981C48.9744 133.345 49.0522 132.782 49.2086 132.292C49.3695 131.802 49.5976 131.392 49.8932 131.062C50.1932 130.727 50.5538 130.477 50.9751 130.31C51.4008 130.138 51.8804 130.053 52.414 130.054C53.1268 130.054 53.7233 130.181 54.2033 130.432C54.6833 130.684 55.0536 131.051 55.3141 131.533C55.5792 132.01 55.739 132.594 55.7936 133.285L53.8299 133.283C53.8159 132.848 53.7617 132.506 53.6673 132.259C53.5774 132.008 53.4337 131.832 53.2363 131.731C53.0389 131.626 52.7654 131.574 52.4157 131.573C52.1556 131.573 51.9315 131.617 51.7433 131.704C51.5551 131.788 51.4006 131.924 51.2797 132.112C51.1589 132.3 51.0695 132.547 51.0116 132.853C50.9581 133.158 50.9316 133.531 50.9321 133.971L50.9339 135.534C50.9343 135.965 50.9594 136.334 51.0091 136.64C51.0587 136.941 51.1375 137.188 51.2453 137.381C51.3531 137.573 51.499 137.714 51.6829 137.802C51.8713 137.89 52.109 137.934 52.3959 137.935C52.7277 137.935 52.9944 137.889 53.196 137.797C53.4022 137.706 53.5544 137.54 53.6528 137.302C53.7512 137.063 53.8068 136.724 53.8198 136.285Z" fill="#080104"/>
<path d="M63.8848 134.06L63.8865 135.586C63.8872 136.231 63.8027 136.796 63.6328 137.282C63.4675 137.763 63.2303 138.167 62.9213 138.493C62.6168 138.815 62.2472 139.057 61.8125 139.22C61.3823 139.383 60.9049 139.464 60.3803 139.463C59.8558 139.463 59.3759 139.381 58.9409 139.217C58.5103 139.053 58.1379 138.81 57.8237 138.487C57.514 138.16 57.2737 137.756 57.1027 137.274C56.9318 136.789 56.846 136.223 56.8453 135.579L56.8436 134.053C56.8428 133.391 56.9251 132.813 57.0905 132.32C57.2558 131.822 57.4952 131.407 57.8086 131.077C58.1221 130.742 58.494 130.492 58.9242 130.325C59.3544 130.154 59.8318 130.068 60.3563 130.069C60.8809 130.069 61.3585 130.156 61.7891 130.328C62.2197 130.496 62.5921 130.747 62.9063 131.083C63.2205 131.414 63.4608 131.829 63.6273 132.327C63.7982 132.821 63.884 133.399 63.8848 134.06ZM61.9295 135.584L61.9277 134.046C61.9273 133.61 61.8932 133.24 61.8256 132.934C61.758 132.624 61.6569 132.371 61.5221 132.174C61.3874 131.977 61.2236 131.832 61.0307 131.74C60.8378 131.648 60.6136 131.601 60.3581 131.601C60.1025 131.601 59.8761 131.647 59.679 131.739C59.4863 131.83 59.3228 131.975 59.1885 132.171C59.0587 132.368 58.9604 132.621 58.8935 132.931C58.831 133.236 58.8001 133.607 58.8006 134.042L58.8023 135.581C58.8028 135.999 58.8368 136.357 58.9044 136.655C58.972 136.952 59.0731 137.195 59.2078 137.383C59.3425 137.572 59.5063 137.712 59.6992 137.805C59.8966 137.893 60.1231 137.937 60.3786 137.937C60.6297 137.938 60.8516 137.894 61.0443 137.806C61.2414 137.714 61.4049 137.574 61.5347 137.386C61.6645 137.198 61.7629 136.955 61.8298 136.658C61.8967 136.361 61.9299 136.003 61.9295 135.584Z" fill="#080104"/>
<path d="M71.6767 137.831L71.6784 139.35L65.9082 139.344L65.9065 137.824L71.6767 137.831ZM66.4647 137.825L66.4689 141.593L64.6195 141.591L64.5077 137.823L66.4647 137.825ZM73.1024 137.832L72.9318 141.6L71.1294 141.598L71.1252 137.83L73.1024 137.832ZM70.6526 130.206L70.6543 131.732L66.7 131.728L66.6983 130.202L70.6526 130.206ZM72.0716 130.208L72.0819 139.351L70.1249 139.349L70.1146 130.205L72.0716 130.208ZM66.4629 130.201L68.4266 130.204L68.1887 133.946C68.1535 134.566 68.0936 135.112 68.009 135.585C67.9288 136.054 67.8284 136.464 67.7077 136.815C67.5915 137.167 67.4619 137.474 67.3187 137.738C67.1755 137.997 67.0233 138.223 66.8622 138.416C66.701 138.604 66.5353 138.773 66.3651 138.924C66.1949 139.074 66.0269 139.214 65.8612 139.344L64.7919 139.343L64.7902 137.823L65.1668 137.823C65.2787 137.723 65.3907 137.587 65.5026 137.416C65.6144 137.24 65.7173 137.008 65.8111 136.719C65.905 136.43 65.9875 136.06 66.0587 135.608C66.1299 135.156 66.1854 134.601 66.225 133.944L66.4629 130.201Z" fill="#080104"/>
<path d="M79.7468 137.84L79.7485 139.359L75.4915 139.355L75.4898 137.835L79.7468 137.84ZM76.0932 130.212L76.1035 139.355L74.133 139.353L74.1228 130.21L76.0932 130.212ZM79.1708 133.921L79.1724 135.396L75.4871 135.392L75.4854 133.916L79.1708 133.921ZM79.7248 130.216L79.7265 131.742L75.483 131.737L75.4813 130.211L79.7248 130.216Z" fill="#080104"/>
<path d="M84.2306 136.143L82.2265 136.141L82.2248 134.615L84.2288 134.617C84.5068 134.617 84.7332 134.559 84.9079 134.442C85.0871 134.325 85.2169 134.164 85.2974 133.959C85.3779 133.75 85.4179 133.515 85.4177 133.256C85.4174 132.992 85.3745 132.747 85.2891 132.521C85.2081 132.29 85.0801 132.104 84.9051 131.961C84.7346 131.819 84.5081 131.748 84.2256 131.747L82.8537 131.746L82.8622 139.363L80.8985 139.361L80.8882 130.218L84.2239 130.221C84.883 130.222 85.4503 130.352 85.9258 130.612C86.4013 130.873 86.7649 131.231 87.0165 131.688C87.2725 132.14 87.4009 132.659 87.4015 133.245C87.4022 133.836 87.275 134.348 87.0199 134.783C86.7694 135.214 86.4066 135.549 85.9316 135.787C85.4566 136.025 84.8896 136.144 84.2306 136.143Z" fill="#080104"/>
<path d="M91.0358 135.642L87.9227 130.225L90.3639 130.228L91.9686 133.91L93.4818 133.912L93.2013 135.644L91.0358 135.642ZM91.9433 135.335L90.2666 139.371L87.8254 139.369L90.355 134.222L91.9433 135.335ZM94.7285 130.233L94.7388 139.376L92.7818 139.374L92.7715 130.231L94.7285 130.233ZM99.4966 130.238L96.4562 135.648L94.3109 135.646L94.0265 133.912L95.5195 133.914L97.0756 130.236L99.4966 130.238ZM97.18 139.379L95.548 135.339L97.1339 134.23L99.6212 139.382L97.18 139.379Z" fill="#080104"/>
<path d="M102.375 136.025L105.428 130.245L107.298 130.247L107.308 139.39L105.405 139.388L105.398 133.674L102.372 139.385L100.469 139.383L100.458 130.239L102.368 130.242L102.375 136.025Z" fill="#080104"/>
<path d="M109.578 130.25L111.306 130.252L113.31 136.508L115.294 130.256L116.821 130.258L114.047 139.398L112.574 139.396L109.578 130.25ZM108.878 130.249L110.526 130.251L110.788 136.28L110.792 139.394L108.888 139.392L108.878 130.249ZM116.067 130.257L117.722 130.259L117.732 139.402L115.835 139.4L115.832 136.285L116.067 130.257Z" fill="#080104"/>
<path d="M126.213 134.13L126.215 135.656C126.216 136.301 126.131 136.866 125.961 137.352C125.796 137.833 125.559 138.237 125.25 138.563C124.945 138.885 124.576 139.127 124.141 139.29C123.711 139.453 123.233 139.534 122.709 139.533C122.184 139.533 121.704 139.451 121.269 139.287C120.839 139.123 120.466 138.88 120.152 138.557C119.842 138.23 119.602 137.826 119.431 137.344C119.26 136.858 119.174 136.293 119.174 135.648L119.172 134.122C119.171 133.461 119.253 132.883 119.419 132.39C119.584 131.892 119.824 131.477 120.137 131.147C120.45 130.812 120.822 130.562 121.253 130.395C121.683 130.224 122.16 130.138 122.685 130.139C123.209 130.139 123.687 130.226 124.117 130.398C124.548 130.566 124.92 130.817 125.235 131.153C125.549 131.484 125.789 131.899 125.956 132.397C126.127 132.891 126.212 133.469 126.213 134.13ZM124.258 135.654L124.256 134.116C124.256 133.68 124.222 133.31 124.154 133.004C124.086 132.694 123.985 132.441 123.851 132.244C123.716 132.047 123.552 131.902 123.359 131.81C123.166 131.718 122.942 131.671 122.686 131.671C122.431 131.671 122.205 131.717 122.007 131.808C121.815 131.9 121.651 132.045 121.517 132.241C121.387 132.438 121.289 132.691 121.222 133.001C121.159 133.306 121.128 133.677 121.129 134.112L121.131 135.651C121.131 136.069 121.165 136.427 121.233 136.725C121.3 137.022 121.401 137.265 121.536 137.453C121.671 137.642 121.835 137.782 122.028 137.875C122.225 137.963 122.451 138.007 122.707 138.007C122.958 138.008 123.18 137.964 123.373 137.876C123.57 137.784 123.733 137.644 123.863 137.456C123.993 137.268 124.091 137.025 124.158 136.728C124.225 136.431 124.258 136.073 124.258 135.654Z" fill="#080104"/>
<path d="M133.265 137.9L133.267 139.42L129.01 139.415L129.008 137.895L133.265 137.9ZM129.612 130.272L129.622 139.415L127.652 139.413L127.641 130.27L129.612 130.272ZM132.689 133.981L132.691 135.456L129.006 135.452L129.004 133.977L132.689 133.981ZM133.243 130.276L133.245 131.802L129.001 131.797L129 130.272L133.243 130.276Z" fill="#080104"/>
<path d="M137.651 138.526C137.65 138.25 137.749 138.02 137.946 137.836C138.143 137.648 138.41 137.554 138.746 137.554C139.082 137.555 139.349 137.649 139.546 137.838C139.744 138.022 139.843 138.253 139.843 138.529C139.843 138.805 139.745 139.035 139.548 139.219C139.351 139.403 139.084 139.495 138.748 139.495C138.412 139.494 138.145 139.402 137.947 139.218C137.75 139.033 137.651 138.803 137.651 138.526Z" fill="#080104"/>
<path d="M141.659 138.531C141.659 138.255 141.757 138.025 141.954 137.841C142.151 137.652 142.418 137.558 142.754 137.559C143.09 137.559 143.357 137.654 143.555 137.842C143.752 138.027 143.851 138.257 143.851 138.533C143.852 138.81 143.753 139.04 143.556 139.224C143.359 139.408 143.092 139.5 142.756 139.499C142.42 139.499 142.153 139.407 141.956 139.222C141.758 139.038 141.659 138.807 141.659 138.531Z" fill="#080104"/>
<path d="M145.667 138.535C145.667 138.259 145.765 138.029 145.962 137.845C146.159 137.657 146.426 137.563 146.762 137.563C147.098 137.564 147.365 137.658 147.563 137.847C147.76 138.031 147.859 138.262 147.859 138.538C147.86 138.814 147.761 139.044 147.564 139.228C147.367 139.412 147.101 139.504 146.764 139.504C146.428 139.503 146.161 139.411 145.964 139.227C145.766 139.042 145.667 138.812 145.667 138.535Z" fill="#080104"/>
<path d="M149.675 138.54C149.675 138.264 149.773 138.034 149.97 137.85C150.167 137.661 150.434 137.567 150.77 137.568C151.107 137.568 151.373 137.663 151.571 137.851C151.768 138.036 151.867 138.266 151.868 138.542C151.868 138.819 151.77 139.049 151.573 139.233C151.375 139.417 151.109 139.509 150.773 139.508C150.436 139.508 150.169 139.416 149.972 139.231C149.774 139.047 149.676 138.816 149.675 138.54Z" fill="#080104"/>
<path d="M153.683 138.544C153.683 138.268 153.781 138.038 153.979 137.854C154.176 137.666 154.442 137.572 154.779 137.572C155.115 137.573 155.382 137.667 155.579 137.856C155.777 138.04 155.876 138.271 155.876 138.547C155.876 138.823 155.778 139.053 155.581 139.237C155.384 139.421 155.117 139.513 154.781 139.513C154.444 139.512 154.178 139.42 153.98 139.236C153.783 139.051 153.684 138.821 153.683 138.544Z" fill="#080104"/>
<path d="M157.692 138.549C157.691 138.273 157.79 138.043 157.987 137.859C158.184 137.67 158.45 137.576 158.787 137.577C159.123 137.577 159.39 137.672 159.587 137.86C159.785 138.045 159.884 138.275 159.884 138.551C159.884 138.828 159.786 139.058 159.589 139.242C159.392 139.426 159.125 139.518 158.789 139.517C158.453 139.517 158.186 139.425 157.988 139.24C157.791 139.056 157.692 138.825 157.692 138.549Z" fill="#080104"/>
<path d="M161.7 138.553C161.699 138.277 161.798 138.047 161.995 137.863C162.192 137.675 162.459 137.581 162.795 137.581C163.131 137.582 163.398 137.676 163.595 137.865C163.793 138.049 163.892 138.28 163.892 138.556C163.892 138.832 163.794 139.062 163.597 139.246C163.4 139.43 163.133 139.522 162.797 139.522C162.461 139.521 162.194 139.429 161.996 139.245C161.799 139.06 161.7 138.83 161.7 138.553Z" fill="#080104"/>
<path d="M165.708 138.558C165.708 138.282 165.806 138.052 166.003 137.868C166.2 137.679 166.467 137.585 166.803 137.586C167.139 137.586 167.406 137.681 167.604 137.869C167.801 138.054 167.9 138.284 167.9 138.56C167.901 138.837 167.802 139.067 167.605 139.251C167.408 139.435 167.141 139.527 166.805 139.526C166.469 139.526 166.202 139.433 166.005 139.249C165.807 139.065 165.708 138.834 165.708 138.558Z" fill="#080104"/>
<path d="M61.3627 144.7L59.3181 152.063L57.2915 152.06L60.2656 143.098L61.5314 143.099L61.3627 144.7ZM62.991 152.067L60.9167 144.699L60.7247 143.098L62.0102 143.099L65.0307 152.069L62.991 152.067ZM63.0594 148.723L63.061 150.219L58.752 150.215L58.7503 148.718L63.0594 148.723Z" fill="#080104"/>
<path d="M67.8671 143.106L67.8772 152.072L65.9555 152.07L65.9454 143.104L67.8671 143.106ZM72.5173 143.111L69.5521 148.398L67.4336 148.395L67.1694 146.689L68.5139 146.691L70.1955 143.109L72.5173 143.111ZM70.5138 152.075L68.5548 148.083L69.8716 146.729L72.7897 152.078L70.5138 152.075Z" fill="#080104"/>
<path d="M77.3182 143.117L77.3283 152.083L75.4197 152.081L75.4097 143.115L77.3182 143.117ZM79.6925 143.119L79.6942 144.616L73.083 144.608L73.0813 143.112L79.6925 143.119Z" fill="#080104"/>
<path d="M82.6109 148.794L85.5888 143.126L87.4121 143.128L87.4221 152.094L85.566 152.092L85.5597 146.488L82.6081 152.089L80.7519 152.087L80.7419 143.12L82.6046 143.123L82.6109 148.794Z" fill="#080104"/>
<path d="M92.1794 148.189L90.2249 148.187L90.2169 146.881L91.8828 146.883C92.1451 146.884 92.3593 146.843 92.5254 146.761C92.6958 146.675 92.8203 146.55 92.8988 146.386C92.9817 146.217 93.023 146.014 93.0227 145.776C93.0224 145.501 92.985 145.281 92.9105 145.117C92.836 144.949 92.7156 144.825 92.5494 144.747C92.3831 144.669 92.1666 144.63 91.8999 144.629L90.8768 144.628L90.8851 152.098L88.9634 152.096L88.9534 143.13L91.8982 143.133C92.3748 143.134 92.8012 143.183 93.1774 143.282C93.5535 143.381 93.8729 143.531 94.1354 143.733C94.398 143.934 94.5972 144.189 94.7331 144.497C94.8734 144.805 94.9438 145.169 94.9442 145.587C94.9446 145.957 94.8663 146.297 94.7093 146.609C94.5522 146.921 94.3055 147.175 93.969 147.372C93.6369 147.569 93.202 147.679 92.6642 147.703L92.1794 148.189ZM92.1182 152.099L89.6849 152.097L90.4506 150.607L92.1165 150.609C92.3701 150.609 92.5756 150.558 92.7329 150.456C92.8902 150.353 93.0037 150.216 93.0734 150.044C93.1432 149.867 93.178 149.666 93.1777 149.44C93.1774 149.186 93.1444 148.964 93.0786 148.775C93.0172 148.586 92.9142 148.442 92.7698 148.344C92.6254 148.241 92.4308 148.189 92.1859 148.189L90.5331 148.187L90.5448 146.882L92.5518 146.884L93.0049 147.402C93.5165 147.386 93.9254 147.479 94.2317 147.68C94.538 147.878 94.7569 148.137 94.8884 148.457C95.0243 148.773 95.0925 149.11 95.0929 149.467C95.0935 150.042 94.9782 150.526 94.7469 150.92C94.52 151.31 94.1858 151.605 93.7444 151.806C93.303 152.002 92.7609 152.1 92.1182 152.099Z" fill="#080104"/>
<path d="M101.793 146.777L101.795 148.268L97.879 148.263L97.8773 146.773L101.793 146.777ZM98.4176 143.14L98.4277 152.106L96.506 152.104L96.4959 143.138L98.4176 143.14ZM103.179 143.146L103.189 152.112L101.287 152.11L101.277 143.144L103.179 143.146Z" fill="#080104"/>
<path d="M111.461 146.942L111.462 148.439C111.463 149.071 111.38 149.625 111.215 150.101C111.054 150.573 110.822 150.969 110.521 151.289C110.224 151.605 109.864 151.842 109.44 152.002C109.02 152.161 108.554 152.241 108.043 152.24C107.531 152.24 107.063 152.159 106.639 151.999C106.219 151.838 105.856 151.6 105.549 151.283C105.247 150.963 105.013 150.566 104.846 150.094C104.68 149.617 104.596 149.063 104.595 148.431L104.594 146.934C104.593 146.286 104.673 145.719 104.834 145.235C104.996 144.747 105.229 144.341 105.535 144.017C105.84 143.689 106.203 143.443 106.623 143.279C107.042 143.111 107.508 143.027 108.019 143.028C108.531 143.029 108.997 143.113 109.417 143.282C109.837 143.447 110.2 143.693 110.506 144.022C110.813 144.347 111.047 144.754 111.209 145.242C111.376 145.727 111.46 146.294 111.461 146.942ZM109.554 148.436L109.552 146.928C109.551 146.501 109.518 146.137 109.452 145.838C109.386 145.534 109.288 145.285 109.156 145.092C109.025 144.899 108.865 144.757 108.677 144.667C108.489 144.576 108.27 144.531 108.021 144.531C107.772 144.53 107.551 144.575 107.359 144.665C107.171 144.755 107.011 144.897 106.881 145.09C106.754 145.282 106.658 145.531 106.593 145.834C106.532 146.134 106.502 146.497 106.502 146.924L106.504 148.433C106.504 148.844 106.538 149.195 106.603 149.486C106.669 149.778 106.768 150.016 106.899 150.201C107.031 150.386 107.19 150.523 107.379 150.614C107.571 150.7 107.792 150.744 108.041 150.744C108.286 150.744 108.502 150.701 108.69 150.615C108.883 150.525 109.042 150.388 109.169 150.203C109.295 150.019 109.391 149.781 109.456 149.489C109.522 149.198 109.554 148.847 109.554 148.436Z" fill="#080104"/>
<path d="M117.412 149.141L119.32 149.143C119.295 149.817 119.151 150.385 118.889 150.849C118.628 151.308 118.254 151.657 117.769 151.894C117.288 152.132 116.707 152.25 116.025 152.249C115.496 152.249 115.026 152.166 114.614 152.002C114.203 151.833 113.853 151.586 113.564 151.261C113.275 150.937 113.056 150.536 112.907 150.06C112.762 149.579 112.689 149.027 112.689 148.403L112.687 146.882C112.686 146.258 112.762 145.706 112.915 145.226C113.072 144.746 113.294 144.343 113.582 144.019C113.875 143.691 114.227 143.445 114.637 143.282C115.053 143.114 115.52 143.03 116.041 143.031C116.736 143.032 117.318 143.155 117.786 143.402C118.254 143.649 118.615 144.009 118.869 144.481C119.128 144.949 119.283 145.522 119.337 146.2L117.422 146.198C117.408 145.771 117.355 145.436 117.263 145.194C117.175 144.947 117.035 144.775 116.843 144.676C116.65 144.573 116.383 144.521 116.042 144.521C115.789 144.521 115.57 144.564 115.387 144.65C115.203 144.732 115.052 144.865 114.935 145.049C114.817 145.234 114.73 145.476 114.673 145.776C114.621 146.075 114.595 146.441 114.596 146.872L114.597 148.405C114.598 148.828 114.622 149.189 114.671 149.489C114.719 149.785 114.796 150.027 114.901 150.216C115.006 150.405 115.148 150.543 115.328 150.629C115.512 150.715 115.743 150.759 116.023 150.759C116.347 150.76 116.607 150.715 116.803 150.625C117.004 150.534 117.153 150.372 117.249 150.139C117.345 149.905 117.399 149.572 117.412 149.141Z" fill="#080104"/>
<path d="M124.121 143.169L124.131 152.135L122.223 152.133L122.213 143.167L124.121 143.169ZM126.495 143.172L126.497 144.668L119.886 144.661L119.884 143.164L126.495 143.172Z" fill="#080104"/>
<path d="M129.004 146.401L130.821 146.404C131.46 146.404 132.013 146.522 132.481 146.756C132.949 146.991 133.31 147.322 133.564 147.749C133.823 148.176 133.952 148.675 133.953 149.246C133.953 149.677 133.88 150.069 133.731 150.422C133.587 150.775 133.378 151.08 133.103 151.339C132.832 151.597 132.504 151.796 132.119 151.935C131.739 152.074 131.309 152.143 130.828 152.143L127.719 152.139L127.709 143.173L129.63 143.175L129.639 150.651L130.826 150.653C131.093 150.653 131.316 150.587 131.495 150.456C131.674 150.325 131.809 150.153 131.901 149.939C131.992 149.726 132.038 149.49 132.038 149.231C132.037 148.981 131.991 148.755 131.899 148.554C131.807 148.353 131.671 148.194 131.492 148.079C131.313 147.96 131.09 147.9 130.823 147.9L129.006 147.898L129.004 146.401Z" fill="#080104"/>
<path d="M135.169 151.267C135.168 150.996 135.264 150.77 135.456 150.59C135.649 150.406 135.909 150.313 136.237 150.314C136.564 150.314 136.825 150.407 137.017 150.592C137.21 150.773 137.306 150.999 137.307 151.27C137.307 151.54 137.211 151.766 137.019 151.947C136.827 152.127 136.567 152.217 136.239 152.217C135.911 152.216 135.65 152.126 135.458 151.945C135.265 151.764 135.169 151.538 135.169 151.267Z" fill="#080104"/>
<path d="M139.078 151.272C139.077 151.001 139.173 150.775 139.365 150.594C139.558 150.41 139.818 150.318 140.146 150.318C140.473 150.319 140.734 150.411 140.926 150.596C141.119 150.777 141.215 151.003 141.216 151.274C141.216 151.545 141.12 151.771 140.928 151.951C140.736 152.131 140.476 152.221 140.148 152.221C139.82 152.221 139.559 152.13 139.367 151.949C139.174 151.768 139.078 151.542 139.078 151.272Z" fill="#080104"/>
<path d="M142.987 151.276C142.986 151.005 143.082 150.779 143.274 150.599C143.467 150.414 143.727 150.322 144.055 150.323C144.382 150.323 144.643 150.416 144.835 150.601C145.028 150.781 145.124 151.007 145.125 151.278C145.125 151.549 145.029 151.775 144.837 151.955C144.645 152.136 144.385 152.226 144.057 152.225C143.729 152.225 143.468 152.134 143.276 151.954C143.083 151.773 142.987 151.547 142.987 151.276Z" fill="#080104"/>
<path d="M146.896 151.28C146.895 151.009 146.991 150.784 147.183 150.603C147.376 150.419 147.636 150.327 147.964 150.327C148.291 150.327 148.552 150.42 148.744 150.605C148.937 150.786 149.033 151.012 149.034 151.283C149.034 151.554 148.938 151.779 148.746 151.96C148.554 152.14 148.294 152.23 147.966 152.23C147.638 152.229 147.377 152.139 147.185 151.958C146.992 151.777 146.896 151.551 146.896 151.28Z" fill="#080104"/>
<path d="M150.804 151.285C150.804 151.014 150.9 150.788 151.092 150.608C151.284 150.423 151.545 150.331 151.872 150.331C152.2 150.332 152.461 150.424 152.653 150.609C152.846 150.79 152.942 151.016 152.943 151.287C152.943 151.558 152.847 151.784 152.655 151.964C152.463 152.145 152.203 152.235 151.875 152.234C151.547 152.234 151.286 152.143 151.094 151.962C150.901 151.782 150.805 151.556 150.804 151.285Z" fill="#080104"/>
<path d="M154.713 151.289C154.713 151.018 154.809 150.792 155.001 150.612C155.193 150.427 155.454 150.335 155.781 150.336C156.109 150.336 156.37 150.429 156.562 150.614C156.755 150.795 156.851 151.021 156.852 151.291C156.852 151.562 156.756 151.788 156.564 151.969C156.372 152.149 156.112 152.239 155.784 152.239C155.456 152.238 155.195 152.148 155.003 151.967C154.81 151.786 154.714 151.56 154.713 151.289Z" fill="#080104"/>
<path d="M173.918 113.596L173.932 125.393L171.574 125.391L171.561 113.594L173.918 113.596Z" fill="#D7294A"/>
<path d="M177.977 113.601L177.99 125.398L175.632 125.395L175.619 113.598L177.977 113.601Z" fill="#D7294A"/>
<path d="M182.034 113.606L182.047 125.403L179.689 125.4L179.676 113.603L182.034 113.606Z" fill="#D7294A"/>
<path d="M116.461 185.51L116.463 187.31L111.303 201.889L107.972 201.885L113.156 188.128L106.562 188.121L106.559 185.499L116.461 185.51Z" fill="#080104"/>
<path d="M83.5576 161.252L83.5633 166.366L82.2352 166.365L82.2295 161.251L83.5576 161.252ZM84.8715 161.254L84.8727 162.345L80.9215 162.341L80.9203 161.249L84.8715 161.254Z" fill="#080104"/>
<path d="M86.9191 162.239L86.926 168.336L85.6073 168.334L85.5994 161.254L86.8188 161.256L86.9191 162.239ZM89.5769 163.641L89.5773 163.981C89.5777 164.381 89.5435 164.736 89.4745 165.045C89.4055 165.35 89.3018 165.61 89.1634 165.824C89.0282 166.035 88.8582 166.196 88.6535 166.306C88.4489 166.412 88.2094 166.466 87.9353 166.465C87.6801 166.465 87.4595 166.405 87.2734 166.285C87.0905 166.162 86.936 165.993 86.8097 165.779C86.6834 165.564 86.5823 165.314 86.5063 165.027C86.4304 164.74 86.3718 164.433 86.3304 164.105L86.3298 163.576C86.3673 163.226 86.422 162.905 86.4942 162.612C86.5663 162.316 86.6653 162.059 86.7911 161.842C86.92 161.625 87.0758 161.458 87.2584 161.341C87.4442 161.222 87.6647 161.162 87.9199 161.163C88.1972 161.163 88.4383 161.214 88.6432 161.315C88.8513 161.416 89.0232 161.569 89.1589 161.774C89.2978 161.975 89.402 162.232 89.4717 162.544C89.5414 162.856 89.5764 163.222 89.5769 163.641ZM88.2539 163.98L88.2535 163.639C88.2533 163.394 88.2388 163.184 88.2103 163.011C88.1849 162.838 88.1438 162.696 88.0869 162.585C88.0301 162.475 87.956 162.395 87.8645 162.344C87.7731 162.294 87.6612 162.268 87.5289 162.268C87.3997 162.268 87.2863 162.293 87.1887 162.343C87.0942 162.394 87.0171 162.468 86.9573 162.565C86.8975 162.66 86.852 162.776 86.8206 162.915C86.7893 163.05 86.7721 163.205 86.7692 163.378L86.7702 164.304C86.7767 164.509 86.8037 164.69 86.8512 164.848C86.9018 165.005 86.9822 165.132 87.0926 165.226C87.203 165.318 87.3527 165.364 87.5418 165.364C87.6773 165.364 87.7891 165.336 87.8773 165.279C87.9686 165.222 88.0425 165.137 88.0991 165.024C88.1557 164.911 88.1949 164.767 88.2168 164.594C88.2418 164.421 88.2542 164.216 88.2539 163.98Z" fill="#080104"/>
<path d="M92.6461 165.199L92.6434 162.836C92.6432 162.682 92.6242 162.559 92.5863 162.467C92.5515 162.376 92.4979 162.31 92.4254 162.269C92.356 162.225 92.2709 162.202 92.1701 162.202C92.0566 162.202 91.9621 162.226 91.8866 162.273C91.811 162.32 91.7543 162.388 91.7166 162.476C91.6821 162.564 91.6649 162.67 91.665 162.793L90.3369 162.791C90.3367 162.571 90.379 162.363 90.4638 162.167C90.5487 161.969 90.6729 161.796 90.8366 161.648C91.0034 161.497 91.2018 161.379 91.4317 161.294C91.6616 161.209 91.92 161.167 92.2067 161.167C92.547 161.168 92.8496 161.226 93.1144 161.343C93.3792 161.457 93.5889 161.638 93.7436 161.887C93.8982 162.137 93.9758 162.46 93.9763 162.857L93.9788 165.135C93.9791 165.421 93.9936 165.655 94.0221 165.834C94.0538 166.014 94.0997 166.168 94.1597 166.298L94.1598 166.378L92.827 166.376C92.767 166.235 92.7211 166.058 92.6893 165.847C92.6607 165.633 92.6463 165.417 92.6461 165.199ZM92.8046 163.252L92.8102 164.046L92.3234 164.046C92.1973 164.046 92.0871 164.066 91.9926 164.107C91.9013 164.148 91.8241 164.206 91.7612 164.281C91.6983 164.354 91.6511 164.439 91.6197 164.537C91.5914 164.634 91.5774 164.738 91.5775 164.848C91.5776 164.971 91.5951 165.075 91.6298 165.16C91.6646 165.246 91.7167 165.31 91.786 165.354C91.8554 165.399 91.9374 165.421 92.0319 165.421C92.1768 165.421 92.3028 165.391 92.4099 165.331C92.5169 165.272 92.5956 165.199 92.646 165.114C92.6994 165.029 92.7167 164.951 92.6977 164.878L93.0007 165.394C92.9631 165.51 92.9112 165.631 92.8452 165.757C92.7823 165.883 92.7021 166 92.6045 166.107C92.507 166.214 92.3858 166.302 92.2409 166.371C92.0992 166.437 91.9307 166.47 91.7353 166.47C91.4612 166.469 91.2106 166.406 90.9836 166.28C90.7566 166.154 90.5768 165.977 90.4442 165.75C90.3148 165.523 90.2499 165.253 90.2495 164.941C90.2492 164.683 90.2899 164.45 90.3716 164.242C90.4564 164.031 90.5823 163.853 90.7491 163.708C90.916 163.561 91.1269 163.447 91.3821 163.369C91.6372 163.29 91.9365 163.251 92.2799 163.252L92.8046 163.252Z" fill="#080104"/>
<path d="M97.8949 163.319L97.8961 164.416L95.8544 164.414L95.8531 163.317L97.8949 163.319ZM96.2809 161.266L96.2867 166.38L94.9586 166.379L94.9528 161.265L96.2809 161.266ZM98.7953 161.269L98.8011 166.383L97.4777 166.382L97.472 161.268L98.7953 161.269Z" fill="#080104"/>
<path d="M101.636 165.38C101.759 165.38 101.864 165.355 101.952 165.304C102.044 165.254 102.113 165.172 102.16 165.059C102.207 164.945 102.232 164.799 102.235 164.619L103.478 164.621C103.479 165.005 103.397 165.337 103.234 165.618C103.073 165.895 102.856 166.109 102.582 166.26C102.311 166.408 102.004 166.481 101.661 166.481C101.317 166.48 101.018 166.425 100.762 166.314C100.507 166.204 100.296 166.043 100.129 165.832C99.9645 165.62 99.8397 165.363 99.7543 165.061C99.672 164.755 99.6307 164.405 99.6303 164.011L99.6298 163.638C99.6294 163.251 99.67 162.904 99.7516 162.598C99.8363 162.293 99.9605 162.035 100.124 161.824C100.291 161.613 100.5 161.452 100.752 161.342C101.007 161.232 101.306 161.178 101.65 161.178C102.019 161.178 102.339 161.256 102.61 161.411C102.881 161.562 103.092 161.786 103.244 162.082C103.398 162.379 103.476 162.744 103.477 163.179L102.234 163.178C102.23 162.982 102.206 162.82 102.162 162.691C102.121 162.559 102.056 162.458 101.968 162.388C101.883 162.316 101.769 162.279 101.628 162.279C101.479 162.279 101.36 162.31 101.268 162.373C101.18 162.433 101.113 162.521 101.066 162.638C101.022 162.751 100.992 162.893 100.976 163.063C100.961 163.233 100.953 163.425 100.953 163.64L100.954 164.013C100.954 164.243 100.96 164.443 100.973 164.613C100.989 164.78 101.019 164.922 101.063 165.039C101.111 165.152 101.179 165.237 101.267 165.294C101.358 165.351 101.481 165.379 101.636 165.38Z" fill="#080104"/>
<path d="M107.109 161.279L107.11 162.38L105.206 162.378L105.204 161.276L107.109 161.279ZM105.563 161.277L105.569 166.391L104.241 166.389L104.235 161.275L105.563 161.277ZM108.092 161.28L108.098 166.394L106.765 166.392L106.759 161.278L108.092 161.28Z" fill="#080104"/>
<path d="M108.927 164.012L108.927 163.667C108.926 163.267 108.973 162.913 109.067 162.604C109.165 162.295 109.303 162.037 109.482 161.829C109.662 161.619 109.877 161.46 110.129 161.353C110.384 161.243 110.669 161.188 110.984 161.188C111.303 161.189 111.588 161.244 111.84 161.355C112.095 161.462 112.313 161.622 112.493 161.833C112.676 162.041 112.816 162.3 112.914 162.608C113.012 162.917 113.062 163.272 113.062 163.672L113.063 164.017C113.063 164.414 113.015 164.767 112.917 165.076C112.82 165.384 112.68 165.644 112.497 165.855C112.318 166.066 112.102 166.225 111.85 166.332C111.598 166.438 111.315 166.492 111 166.491C110.685 166.491 110.4 166.437 110.144 166.33C109.892 166.222 109.674 166.063 109.491 165.852C109.308 165.64 109.168 165.38 109.07 165.071C108.975 164.762 108.927 164.409 108.927 164.012ZM110.25 163.669L110.25 164.014C110.251 164.25 110.267 164.455 110.298 164.628C110.333 164.802 110.382 164.945 110.445 165.059C110.512 165.172 110.59 165.256 110.682 165.309C110.773 165.363 110.879 165.39 110.999 165.39C111.118 165.39 111.225 165.364 111.32 165.31C111.414 165.257 111.492 165.173 111.551 165.06C111.614 164.947 111.66 164.803 111.688 164.63C111.719 164.457 111.735 164.252 111.734 164.016L111.734 163.671C111.734 163.441 111.716 163.239 111.681 163.066C111.647 162.889 111.598 162.746 111.534 162.635C111.471 162.522 111.392 162.437 111.298 162.38C111.206 162.32 111.102 162.29 110.986 162.29C110.869 162.29 110.765 162.319 110.674 162.379C110.586 162.436 110.509 162.521 110.443 162.634C110.38 162.744 110.331 162.888 110.297 163.064C110.265 163.237 110.25 163.439 110.25 163.669Z" fill="#080104"/>
<path d="M115.22 162.271L115.227 168.368L113.909 168.366L113.901 161.286L115.12 161.288L115.22 162.271ZM117.878 163.673L117.879 164.013C117.879 164.413 117.845 164.768 117.776 165.076C117.707 165.382 117.603 165.642 117.465 165.856C117.33 166.067 117.16 166.227 116.955 166.337C116.75 166.444 116.511 166.498 116.237 166.497C115.981 166.497 115.761 166.437 115.575 166.317C115.392 166.194 115.237 166.025 115.111 165.811C114.985 165.596 114.884 165.346 114.808 165.059C114.732 164.772 114.673 164.465 114.632 164.137L114.631 163.608C114.669 163.258 114.723 162.937 114.796 162.644C114.868 162.348 114.967 162.091 115.092 161.874C115.221 161.656 115.377 161.49 115.56 161.373C115.746 161.254 115.966 161.194 116.221 161.194C116.499 161.195 116.74 161.245 116.945 161.346C117.153 161.447 117.325 161.6 117.46 161.805C117.599 162.007 117.703 162.264 117.773 162.576C117.843 162.888 117.878 163.254 117.878 163.673ZM116.555 164.012L116.555 163.671C116.555 163.425 116.54 163.216 116.512 163.043C116.486 162.869 116.445 162.727 116.388 162.617C116.331 162.507 116.257 162.426 116.166 162.376C116.074 162.325 115.963 162.3 115.83 162.3C115.701 162.3 115.588 162.325 115.49 162.375C115.396 162.425 115.318 162.499 115.259 162.597C115.199 162.691 115.153 162.808 115.122 162.947C115.091 163.082 115.073 163.236 115.071 163.41L115.072 164.336C115.078 164.541 115.105 164.722 115.153 164.88C115.203 165.037 115.284 165.163 115.394 165.258C115.504 165.349 115.654 165.395 115.843 165.396C115.979 165.396 116.09 165.367 116.179 165.311C116.27 165.254 116.344 165.169 116.4 165.056C116.457 164.943 116.496 164.799 116.518 164.626C116.543 164.453 116.556 164.248 116.555 164.012Z" fill="#080104"/>
<path d="M120.839 161.294L120.845 166.408L119.517 166.406L119.511 161.292L120.839 161.294ZM122.153 161.295L122.154 162.387L118.203 162.383L118.202 161.291L122.153 161.295Z" fill="#080104"/>
<path d="M125.818 163.351L125.819 164.447L123.778 164.445L123.776 163.349L125.818 163.351ZM124.204 161.298L124.21 166.412L122.882 166.41L122.876 161.296L124.204 161.298ZM126.719 161.301L126.724 166.414L125.401 166.413L125.395 161.299L126.719 161.301Z" fill="#080104"/>
<path d="M128.639 162.796L129.83 162.798C130.234 162.798 130.577 162.876 130.861 163.03C131.145 163.182 131.362 163.395 131.514 163.669C131.665 163.943 131.741 164.26 131.742 164.619C131.742 164.881 131.698 165.122 131.61 165.342C131.525 165.56 131.401 165.75 131.237 165.914C131.077 166.074 130.879 166.199 130.642 166.287C130.406 166.375 130.135 166.418 129.83 166.418L127.797 166.416L127.791 161.302L129.124 161.303L129.129 165.321L129.833 165.321C129.975 165.322 130.088 165.289 130.173 165.223C130.261 165.157 130.324 165.072 130.362 164.968C130.403 164.86 130.423 164.744 130.423 164.618C130.423 164.486 130.402 164.366 130.361 164.259C130.323 164.148 130.26 164.062 130.172 163.998C130.087 163.932 129.973 163.899 129.831 163.899L128.64 163.897L128.639 162.796ZM133.652 161.308L133.658 166.422L132.335 166.421L132.329 161.307L133.652 161.308Z" fill="#080104"/>
<path d="M136.099 164.119L137.367 161.313L138.643 161.314L138.649 166.428L137.34 166.426L137.337 163.628L136.073 166.425L134.792 166.424L134.786 161.31L136.096 161.311L136.099 164.119ZM137.407 159.238L138.381 159.239C138.381 159.516 138.314 159.76 138.178 159.971C138.046 160.179 137.857 160.343 137.612 160.462C137.369 160.582 137.081 160.641 136.747 160.641C136.243 160.64 135.844 160.509 135.551 160.247C135.258 159.985 135.111 159.648 135.11 159.235L136.074 159.236C136.075 159.4 136.125 159.545 136.226 159.671C136.327 159.797 136.5 159.861 136.746 159.861C136.989 159.861 137.159 159.798 137.257 159.672C137.357 159.546 137.407 159.402 137.407 159.238Z" fill="#080104"/>
<path d="M97.225 172.833L98.4932 170.027L99.7693 170.028L99.7751 175.142L98.4659 175.14L98.4627 172.342L97.1992 175.139L95.9184 175.138L95.9126 170.024L97.2218 170.025L97.225 172.833Z" fill="#080104"/>
<path d="M103.695 172.084L103.696 173.18L101.654 173.178L101.653 172.081L103.695 172.084ZM102.081 170.031L102.086 175.145L100.758 175.143L100.752 170.029L102.081 170.031ZM104.595 170.033L104.601 175.147L103.277 175.146L103.272 170.032L104.595 170.033Z" fill="#080104"/>
<path d="M106.363 170.035L107.686 170.037L107.664 171.734C107.655 172.288 107.601 172.764 107.5 173.161C107.4 173.558 107.265 173.89 107.095 174.158C106.928 174.425 106.735 174.639 106.514 174.8C106.294 174.957 106.059 175.073 105.811 175.149L105.574 175.148L105.559 174.061L105.687 174.047C105.838 173.877 105.956 173.712 106.04 173.551C106.128 173.391 106.193 173.224 106.234 173.051C106.274 172.874 106.301 172.681 106.313 172.469C106.329 172.255 106.338 172.009 106.341 171.732L106.363 170.035ZM106.708 170.036L109.685 170.039L109.691 175.153L108.372 175.152L108.368 171.163L106.709 171.161L106.708 170.036ZM105.304 174.047L110.361 174.053L110.364 176.695L109.04 176.693L109.039 175.152L106.666 175.15L106.668 176.69L105.307 176.689L105.304 174.047Z" fill="#080104"/>
<path d="M113.113 175.251C112.763 175.251 112.453 175.197 112.182 175.09C111.914 174.982 111.687 174.828 111.501 174.626C111.314 174.421 111.172 174.173 111.074 173.883C110.976 173.593 110.927 173.262 110.927 172.891L110.926 172.47C110.926 172.054 110.973 171.69 111.067 171.378C111.161 171.063 111.295 170.799 111.468 170.585C111.641 170.371 111.853 170.212 112.105 170.108C112.36 170.001 112.649 169.948 112.97 169.948C113.291 169.949 113.573 170.003 113.816 170.11C114.062 170.214 114.265 170.372 114.426 170.583C114.587 170.791 114.709 171.05 114.791 171.359C114.873 171.668 114.915 172.027 114.915 172.437L114.916 173.042L111.489 173.038L111.488 172.107L113.615 172.109L113.615 171.991C113.615 171.783 113.593 171.61 113.548 171.471C113.504 171.329 113.435 171.223 113.34 171.154C113.245 171.085 113.119 171.05 112.962 171.05C112.829 171.049 112.718 171.076 112.626 171.13C112.535 171.183 112.463 171.266 112.409 171.38C112.356 171.493 112.316 171.641 112.291 171.824C112.266 172.003 112.254 172.219 112.254 172.471L112.255 172.892C112.255 173.128 112.276 173.327 112.317 173.488C112.358 173.645 112.418 173.774 112.497 173.875C112.579 173.973 112.678 174.044 112.795 174.088C112.912 174.129 113.047 174.15 113.202 174.15C113.435 174.151 113.644 174.11 113.83 174.028C114.019 173.943 114.179 173.828 114.312 173.684L114.842 174.488C114.751 174.607 114.625 174.727 114.464 174.846C114.304 174.966 114.112 175.063 113.888 175.139C113.664 175.214 113.406 175.252 113.113 175.251Z" fill="#080104"/>
<path d="M117.101 170.047L117.107 175.161L115.778 175.16L115.773 170.046L117.101 170.047ZM119.88 170.051L118.031 173.277L116.863 173.275L116.692 171.966L117.424 171.967L118.212 170.049L119.88 170.051ZM118.236 175.163L117.345 173.021L118.498 172.355L119.994 175.165L118.236 175.163Z" fill="#080104"/>
<path d="M122.333 174.161C122.456 174.161 122.561 174.136 122.649 174.085C122.741 174.035 122.81 173.953 122.857 173.84C122.904 173.726 122.929 173.58 122.932 173.4L124.175 173.402C124.176 173.786 124.094 174.118 123.931 174.399C123.77 174.676 123.553 174.89 123.279 175.041C123.008 175.188 122.701 175.262 122.358 175.262C122.014 175.261 121.715 175.206 121.459 175.095C121.204 174.985 120.993 174.824 120.826 174.613C120.662 174.401 120.537 174.144 120.451 173.842C120.369 173.536 120.328 173.186 120.327 172.792L120.327 172.419C120.326 172.031 120.367 171.685 120.449 171.379C120.533 171.074 120.657 170.816 120.821 170.605C120.988 170.394 121.197 170.233 121.449 170.123C121.704 170.013 122.004 169.958 122.347 169.959C122.716 169.959 123.036 170.037 123.307 170.191C123.578 170.343 123.789 170.567 123.941 170.863C124.096 171.16 124.173 171.525 124.174 171.96L122.931 171.959C122.927 171.763 122.903 171.601 122.859 171.472C122.818 171.339 122.753 171.239 122.665 171.169C122.58 171.097 122.466 171.06 122.325 171.06C122.177 171.06 122.057 171.091 121.966 171.154C121.877 171.214 121.81 171.302 121.763 171.419C121.719 171.532 121.689 171.674 121.673 171.844C121.658 172.014 121.65 172.206 121.65 172.42L121.651 172.794C121.651 173.024 121.657 173.224 121.67 173.394C121.686 173.561 121.716 173.703 121.761 173.82C121.808 173.933 121.876 174.018 121.964 174.075C122.055 174.132 122.178 174.16 122.333 174.161Z" fill="#080104"/>
<path fill-rule="evenodd" clip-rule="evenodd" d="M78.3449 159.659C78.3432 158.131 79.58 156.894 81.1074 156.896L138.724 156.961C140.251 156.963 141.491 158.202 141.492 159.73L141.511 176.323C141.513 177.85 140.276 179.087 138.749 179.086L81.1322 179.021C79.6048 179.019 78.3652 177.78 78.3635 176.252L78.3449 159.659ZM81.1095 158.74C80.6003 158.739 80.1881 159.152 80.1886 159.661L80.2073 176.254C80.2078 176.763 80.621 177.177 81.1301 177.177L138.747 177.242C139.256 177.242 139.668 176.83 139.667 176.321L139.649 159.727C139.648 159.218 139.235 158.805 138.726 158.805L81.1095 158.74Z" fill="#080104"/>
</svg>
