<svg version="1.1" id="map" xmlns="http://www.w3.org/2000/svg" xmlns:xlink="http://www.w3.org/1999/xlink" x="0px" y="0px"
	 viewBox="0 0 1515 793" style="enable-background:new 0 0 1515 793;" xml:space="preserve">
<style type="text/css">
	.st0{clip-path:url(#SVGID_2_);}
	.st1{fill-rule:evenodd;clip-rule:evenodd;fill:#F3F3F3;stroke:#555555;}
	.st2{fill-rule:evenodd;clip-rule:evenodd;fill:#F3F3F3;}
	.st3{fill:none;stroke:#555555;}
	.st4{fill:#CC9933;stroke:#555555;stroke-width:0.5;}
	.st5{fill:#1E2024;}
	.st6{fill-rule:evenodd;clip-rule:evenodd;fill:#FFFFFF;filter:url(#Adobe_OpacityMaskFilter);}
	.st7{mask:url(#path-87-inside-1_1104_6603_1_);fill-rule:evenodd;clip-rule:evenodd;fill:#CC9933;stroke:#555555;}
	.st8{fill-rule:evenodd;clip-rule:evenodd;fill:#FFFFFF;filter:url(#Adobe_OpacityMaskFilter_1_);}
	.st9{mask:url(#path-91-inside-2_1104_6603_1_);fill-rule:evenodd;clip-rule:evenodd;fill:#CC9933;stroke:#555555;}
</style>
<g>
	<defs>
		<rect id="SVGID_1_" y="0" width="1515" height="793"/>
	</defs>
	<clipPath id="SVGID_2_">
		<use xlink:href="#SVGID_1_"  style="overflow:visible;"/>
	</clipPath>
	<g class="st0">
		<path class="st1" d="M460.1,163.5h-7.5l-6,6l1.5,6l7.5,1.5h1.5l1.5-1.5h1.5l1.5-1.5v1.5l-1.5,1.5h1.5l1.5-1.5v-6L460.1,163.5z
			 M528.9,197.9l3,1.5v4.5l4.5,3l3-4.5l-1.5-4.5l-1.5-4.5v-3l-1.5-3h-3v3h-3V197.9z M487,196.4l-4.5-1.5l-6-1.5l-7.5,1.5l1.5,1.5v3
			h-3l-1.5-1.5v-1.5l1.5-1.5l-4.5-1.5h-6l-1.5-1.5l-9,1.5l-9-1.5l-1.5-1.5v1.5h-1.5v4.5l-1.5-3l-3-1.5l-1.5-1.5l-6,4.5l-6,6l-7.5-3
			l-6-4.5l1.5-4.5l1.5-3l-1.5-3l-1.5-3l6-3l4.5-1.5l7.5,4.5l1.5-1.5l1.5-1.5v-1.5h1.5v-9l-4.5-6l-6-4.5l-1.5-4.5l-1.5-1.5v12l-9,7.5
			l-7.5,6v9l-6,4.5l-3,3v4.5l6,9l4.5,9l1.5,3l1.5,1.5v1.5h3v-1.5l3-1.5h3l3,1.5l3,3h10.5l12,1.5l3-1.5l1.5-1.5l1.5,1.5h6l7.5,6
			l9,7.5l44.9,26.9l1.5,1.5l1.5,1.5l9-1.5l10.5-3v-1.5l1.5-3l1.5,1.5h1.5l3-1.5l3-1.5l3-1.5l3-1.5l1.5-1.5h3l2.9,1.1l3.1-4.1v-3
			l-1.5-1.5l-3-4.5l1.5-1.5l1.5-1.5l3-3v-3l-4.5-7.5l-6-6l-7.5-6l-1.5-1.5l-1.5-1.5l-1.5,1.5l-1.5,1.5l-1.5-1.5h-1.5l-1.5,1.5v9
			l-1.5,9l-1.5-1.5h-1.5l-3,1.5l-3-1.5h-1.5l-1.5,3l-4.5,1.5l-1.5-3l1.5-3l3-1.5h1.5v-3l-1.5-3h1.5l-10.5-1.5l-9,1.5l-3-4.5l-9-3
			l-6,1.5v1.5l-1.5,1.5l-1.5-3h-3l-1.5,1.5h-1.5l1.5-1.5v-3l-3-1.5h-3l1.5-1.5v-1.5h3l3,1.5l1.5-3l1.5-3h1.5l1.5-1.5v-1.5H487
			L487,196.4z"/>
		<path class="st1" d="M235.8,272.7l1.5-1.5l-4.5-1.5l-1.5,1.5l1.5,1.5H235.8z M246.2,274.2h-1.5l-1.5,1.5l-4.5-3v6l-1.5,4.5l-3,3
			v-4.5l-4.5,1.5l-1.5-1.5l1.5-1.5h1.5l-1.5-9h-3l-3,1.5l1.5,1.5l-1.5,1.5l-1.5,1.5h-3v3l-1.5,3v7.5l1.5,1.5l-4.5,1.5l-4.5,6v6
			l4.5,4.5l6-1.5l7.5-3l7.5,3l9-6l10.5-4.5v-1.5l1.5-3l-6-7.5v-7.5L246.2,274.2z"/>
		<path class="st1" d="M385.3,446.2v4.5l-3,6l1.5,1.5l1.5,1.5h-6l-1.5,1.5h-1.5l-3-1.5l-1.5,3l-1.5,1.5h-1.5v-3l-1.5-1.5l-3,1.5v-3
			l1.5-3l-4.5-3l-4.5,1.5l-1.5,1.5v1.5h-1.5v1.5l3,10.5v1.5h6v1.5l1.5,1.5l9-1.5l7.5,1.5l-3,4.5l-4.5,4.5l-1.5,3l-1.5-1.5l-1.5-1.5
			h-1.5l-3,1.5h-3l-4.5,7.5l-4.5,7.5l-1.5,1.5l-3,3v3h-1.5v1.5l1.5,1.5v3h1.5l1.5-1.5l4.5,1.5l4.5,4.5l-3,1.5l-3,4.5h1.5l6,1.5
			l6-1.5l1.5-4.5v-3l1.5-1.5h1.5l1.5-1.5h1.5l6,3l4.5,3l-3-6l-3-4.5l3-3h3l-3-1.5l-3-3h1.5l1.5-1.5l1.5-1.5l-1.5-1.5h6v1.5l1.5,1.5
			l4.5,1.5l3,1.5v1.5l1.5,1.5l1.5-1.5h4.5l4.5,1.5V503v-1.5l-1.5-3l3-1.5v-3l-4.5-3l-6-4.5l3-3l1.5-1.5l1.5-3v-1.5h1.5l1.5-1.5h3
			l1.5-6v-7.5l-1.5-3v-1.5l-1.5-1.5l-3-1.5h-1.5l-1.5,1.5l-7.5-4.5l-7.5-6v-1.5h-3L385.3,446.2L385.3,446.2z"/>
		<path class="st1" d="M268.7,404.3l-1.5-3l-6-1.5v-3l-4.5-3l-3-4.5l-6,9l-3-1.5h-6l1.5,6l-1.5,6l1.5,3v3l-4.5,6l-4.5,3l4.5,6l9,1.5
			l1.5,1.5v1.5l3-4.5l3-7.5h4.5l3-1.5h1.5l3,1.5h3l3,3l4.5,3l1.5-1.5h3l3-4.5l1.5-3l-3-4.5v-4.5l-1.5-3h-7.5L268.7,404.3z"/>
		<path class="st1" d="M171.2,322h-2.4l-0.4,1.5l-1.6,1.5h-1.2l-0.7-1.5l-3.6-1.5l-3.4-1.5h-0.4l-0.6,1.5h-3l-2.5,1.5l-0.7,1.5
			l-1,1.5l1,7.5l3.3,6l1.6,1.5l1.5,1.5l-0.3,3l0.1,4.5l2.5,3l1.9,1.5h2.8l0.6-1.5l1.2-1.5h2.4l1.9-1.5h2.4l7.3-12l-0.2-3l2.3-3.1
			h1.5l-1.6-1.4v-1.5l0-3l0.1-1.5h-2.2l-3.2-4.5l-1.9,0.1l-2.1,1.5H171.2z"/>
		<path class="st1" d="M458.6,360.9l-4.5-3l-4.5-3v-4.5l-1.5-1.5v-1.5l-3,1.5v1.5l-4.5,6l-3,6v3l-7.5,7.5l-7.5,7.5l-3,1.5l-3,1.5
			l-4.5,4.5l3,7.5l-3,4.5v6l-4.5,4.5l-7.5,1.5l-1.5,4.5v3h-4.5l-3-3l-3,3l-3,4.5h-7.5l-3,1.5v1.5l-1.5,4.5l-3,3v4.5h1.5l1.5,1.5l6,3
			l4.5,3h1.5l1.5-1.5h3v1.5l7.5,6l7.5,4.5l1.5-1.5h1.5l3,1.5l1.5,1.5v1.5l1.5,3l4.5-3l4.5-1.5l3,1.5l3,3h3l1.5,1.5l3,3l4.5-3h7.5
			l-1.5,3h3l1.5-1.5h-1.5v-1.5l1.5-7.5l3-6l3-1.5h4.5v1.5h6l3-1.5v-6l1.5-3v-1.5l-1.5-1.5v-16.4l-4.5-3l-4.5-3l1.5-6l1.5-6v-3
			l-3-1.5v-4.5l1.5-3l1.5-6l3-6l-3-4.5l-1.5-3L458.6,360.9L458.6,360.9z"/>
		<path class="st1" d="M204.4,335.5l-3-1.5v1.5l-8.9-0.1l-3.1,1.6h-1.5l-1.5-1.5l-1.5,1.5l-3,1.5h-2.1l-7.3,12l1,3v3h3.3l3.4,1.5
			l-0.4,3l0.6,3l3,1.5h4.5l1.5,3l1.5,1.5h3l1.5-1.5l7.5,4.5h3l1.2-0.6l1.8-0.9v-1.5l1.5,1.5h3l-1.5-3l-2.9-0.8l2.9-0.7h3l1.5-1.5
			l3-1.5v-4.5l1.5-1.5v-3l-3-1.5h-1.5l1.5-1.5v-3l-6-7.5l-4.5-6H204.4z"/>
		<path class="st1" d="M149.3,326.5l-6-1.5l-6-1.5l-0.6,1.5h-1l-3.3,1.5H130l-0.6,1.5l-0.4,3l-3.6,1.5l-1.6,3l1.9,1.5l2.5,1.5v4.5
			l3.9,1.5l2.8,1.5l0.1,3l0.3,4.5l1.5,1.5l1.5,1.5l-0.4,1.5v3h2.2l0.4,1.5h1l4.9-1.5l1.8,1.5l0.4-3l-0.1-1.5l0.7-1.5l0.9-3l6.3-3
			l-0.1-4.5l0.3-3l-1.5-1.5l-1.6-1.5l-3.3-6L149.3,326.5L149.3,326.5z"/>
		<path class="st1" d="M561.8,473.1l-12,4.5l-10.5-3h-3l-1.5,1.5l-4.5-3l-3-1.5l-3-1.5h-3v-3l1.5-1.5l-1.5-3l-1.5-1.5l-4.5,3l-4.5,3
			v9l-3,1.5l-1.5,1.5l1.5,1.5h4.5v1.5l1.5,10.5l-4.5,1.5l-3-1.5v4.5h-1.5l-1.5,1.5v3H502l-1.5,1.5v1.5l-3,1.5l-1.5,1.5l1.5,1.5
			l-1.5,1.5h-1.5v1.5l1.5,1.5l-3,1.5h-1.5v3l3,4.5l-1.5,7.5v3h1.5l-4.5,6l1.5,3l1.5,1.5l1.5,1.5h1.5l1.5-1.5h1.5v1.5h1.5v-1.5
			l1.5-1.5v10.5l3-1.5v-1.5l3,1.5l3,3l1.5,1.5h3v1.5l-1.5,1.5l-3-1.5l-3,4.5l1.5,3l3-1.5l7.5,4.5h1.5l6-3h4.5l3-3h3l1.5-4.5l1.5-3
			l1.5-1.5v-1.5l-1.5-4.5l-1.5-3l1.5-7.5l3-3l-1.5-1.5v-3h3l3-3l3-1.5h6v-3l-1.5-3l1.5-3l3-1.5v-3l1.5-3V506l1.5-3l-1.5-1.5l-1.5-3
			l1.5-1.5v-3l-1.5-3v-6l-1.5-1.5v-1.5h1.5v-4.5h1.5V473.1z"/>
		<path class="st1" d="M190.9,214.4v-1.5h-4.5l-3,1.5l-1.5-3l-2.1-1.5l-2.8,1.5h-2.4l-7.5,3l1,6l1.5,4.5l-1.3,1.5h-1.8l-0.1,1.5
			l-0.3,1.5l-4.5,1.5l-0.7,3l-2.7,3l0.3,3l1.9,3l2.1,1.5l8.4,3l8.2,1.5l2.8,3h1.5l4.5-1.5l4.5-1.5l1.5-1.5l1.5-1.5l4.5,3l3,4.5h1.5
			l1.5,1.5l3,1.5l1.5-1.5h1.5l3,1.5l1.5,3h1.5l3,1.5v-9l-1.5-1.5h-1.5v-1.5h-1.5v-3l1.5-4.5l-3-4.5l-1.5-3v-4.5l-3-3v-1.5l-1.5-1.5
			h-6v-6l-1.5-1.5l-1.5-1.5v-1.5l-3,1.5l-3,1.5L190.9,214.4L190.9,214.4z"/>
		<path class="st1" d="M172.5,350.5h-2.4l-1.9,1.5h-2.4l-1.2,1.5l-0.6,1.5h-2.8l-1.9-1.5l-2.5-3l-6.3,3l-0.9,3l-0.7,1.5l0.1,1.5
			l-0.4,3l-1.8-1.5l-4.9,1.5l0.9,3l2.8,3l4.2,1.5l3.6,1.5v1.5h-0.1l1.3,1.5h1.8l1.3,3l-0.4,1.5l3.7,3l4,4.5l2.8-1.5l2.4-1.5l-1.5-9
			l5.2-6l6.6-4.5l-0.6-3l0.4-3l-3.4-1.5h-3.3v-3L172.5,350.5z"/>
		<path class="st1" d="M128.2,340v-1.5l-2.5-1.5l-1.9-1.5h-6l-1,1.5l-2.7-3l-2.8,3l-1.5,1.5L107,337l-0.4,1.5l-0.3,1.5l-3.7,3
			l2.5,4.5l3.4,4.5l-0.4,1.5l-0.7,1.5h0.7l0.4,1.5h-0.7l-0.7,1.5l2.8,3h5.4l1.3,3l1.6,1.5l7,3l9,4.5l1.3,1.5l1.3,3l2.1-3l1.6-3
			l1.9,1.5h2.2v-1.5l0.9-1.5l-0.3-1.5l-2.8-3l-0.9-3h-1l-0.4-1.5H138v-3l0.4-1.5l-1.5-1.5l-1.5-1.5l-0.3-4.5l-0.1-3l-2.8-1.5
			l-3.9-1.5V340L128.2,340z"/>
		<path class="st1" d="M448.1,464.1h-7.5l-4.5,3l-3-3l-1.5-1.5h-3l-3-3l-3-1.5l-4.5,1.5l-4.5,3v7.5l-1.5,6h-3l-1.5,1.5h-1.5v1.5
			l-1.5,3l-1.5,1.5l-3,3l6,4.5l4.5,3v3l-3,1.5l1.5,3v3l7.5,1.5l7.5,1.5l3,1.5l1.5,1.5l1.5-1.5l1.5-1.5h3l4.5,1.5l1.5,1.5l12,1.5
			l12,1.5l1.5-1.5l1.5-1.5h1.5l3,1.5l1.5-1.5h1.5l-3-6l-1.5-4.5h-1.5l-3-1.5l-1.5-1.5l-1.5-4.5l-3-4.5l-1.5-1.5l-1.5,1.5l-1.5-1.5
			v-1.5h-4.5v-6l-3-1.5l-3-1.5v-6l1.5-3L448.1,464.1z"/>
		<path class="st1" d="M50.2,169.5L52,168L50.2,169.5z M50.2,169.5l-1.6,1.5h0.1L50.2,169.5z M65,174l-8.5-1.5l-2.1-3L52,168
			l-1.8,1.5l-1.5,1.5h0.6l1.6,4.5l-3.4-1.5l-4.5-1.5l6.3,12l7.2,10.5l4.2,6H62l1.6-1.5l5.2-1.5l-1.3-10.5l-0.4-4.5l-0.1-4.5
			l-0.7-1.5h-1.9l-1.6,1.5l-1.6,1.5l-2.7-3l-1-3H65L65,174z"/>
		<path class="st1" d="M259.7,320.6l-3-1.5l-3-1.5l-1.5-3l-1.5-3l-1.5,1.5l-3,1.5l-10.5-6l-7.5-3l-7.5,3l1.5,4.5l-1.5,6h6l1.5,3
			l1.5,3l4.5,4.5h1.5v4.5l3,1.5l3,1.5h1.5l1.5,1.5l1.5-1.5l3-3l3,1.5l3,1.5l3-1.5l1.5-3l3-1.5h1.5v-1.5l-3-4.5h-4.5l1.5-1.5
			L259.7,320.6L259.7,320.6z"/>
		<path class="st1" d="M125,301.1l-1.5,1.5h-6.1l-2.8-1.5h-3.1l-2.5-4.5l-4.5-1.5l-1.3,1.5l-0.4,3l-0.9,1.5h-1l-2.2,3l-2.4,3l-1.3,3
			h-1l1.2,1.5l-0.3,1.5h0.9l3.7,1.5l2.8-1.5l1.3,1.5l0.9,3l2.8,1.5l2.4,1.5l3.6,4.5l0.4,4.5l-1.9,3l-0.3,4.5l2.8-3l2.7,3l1-1.5h6
			l1.6-3l3.6-1.5l0.4-3l0.6-1.5h2.4l3.3-1.5h1l0.6-1.5l-3.4-6l1.5-1.5l2.4-3l-1.5-7.5l-0.9-6l-5.2,1.5L125,301.1L125,301.1z"/>
		<path class="st1" d="M170.3,476.1h-1.9l-1.6-1.5l-0.3,1.5h-0.3l-1.2-1.5h-1.9l-2.5,1.5l1.5,3l0.9,4.5l1.8,1.5l1.2,1.5l-1.9,1.5
			l-1.3,3l0.4,4.5l1.5,3h3.9l3.1,3h-2.5l-3.3,1.5l-0.7,7.5l-0.6,6l-5.4,1.5h-5.5l0.3,1.5l1.5,1.5l-0.6,1.5l-0.4,1.5l1.5,1.5l1,1.5
			l-5.1,1.5l-1.3,4.5l0.6,1.5h3l1,1.5l1,1.5v1.5h1.5l-0.3,1.5h1.3l0.9-1.5l4.3,3l0.1,1.5h0.2l1.6-1.5h0.7l-0.3,1.5l1-1.5l1.5-1.5
			l0.9,1.5l-0.1,1.5l-1.2,1.5l-0.6,1.5l1.8-1.5l1.8-1.5l4.2-3l4.3-1.5l0.7,1.5l-2.7-12h0.9l1.8,3h3l1.5-10.5v-12l-3-3l-2.4-3
			l-1.5,1.5l-1.5-1.5l1.3-4.5l2.5-3l-0.6-4.5l-1.5-4.5l3.6-3l-1.5-3l-0.9-3l-4.5-1.5H170.3z"/>
		<path class="st1" d="M1237.7,381.9l-3-3l-1.5-1.5l-1.5,1.5l-1.5,1.5l-1.5-1.5h-1.5l-3,3l-3,4.5l-1.5-1.5l-1.5-1.5l-1.5,1.5h-3
			l-7.5-3h-6l-1.5,9v9l-1.5,1.5l-3,1.5v3l-1.5,1.5v1.5l-1.5,1.5v1.5l-1.5,6l3,4.5l1.5,7.5l1.5,6l3,3l1.5,4.5l-1.5,1.5l-3-3l-1.5,1.5
			v1.5l-1.5,6l-7.5,4.5l-3,1.5h-1.5l-3-1.5l-1.5,3v3l-1.5,1.5l-7.5,3l-7.5,3h-3l-3,3l-1.5,3l-1.5,9l-1.5,4.5l1.5,6h-4.5l3,4.5l4.5,3
			l-1.5,1.5l-1.5,1.5v4.5l-3,1.5l-1.5,3h3l1.5,1.5l3,1.5l1.5,3v3l-1.5,1.5l-3,1.5v6l-1.5,7.5l6,1.5l4.5-3l1.5,1.5h1.5l3-1.5l1.5-1.5
			l3,1.5l1.5,1.5h3l-1.5,4.5l-3,3v3l-3,3l-3,3l-1.5,1.5l-1.5,1.5v9l-4.5,3v6l4.5,1.5h6l3,3l3,4.5h6l1.5-1.5l3-1.5l6-3l3-3l1.5-3h3
			l4.5-1.5l1.5-1.5h1.5l1.3,0.4l3.2,1.1l1.5,4.5v6l1.5,3v3l-1.5,1.5h-6l-7.5,1.5l1.5,3v6l-3,1.5l-3,1.5l-1.5,1.5l-1.5,3v3l-4.5,3
			l-4.5,3l1.5,3v1.5l-1.5,3l-1.5,4.5v9l1.5-1.5l1.5,1.5v1.5h1.5l1.5-1.5l1.5,1.5v1.5h1.5l3,1.5v10.5l1.5,4.5v4.5l6-3h1.5l1.5-1.5
			l1.5-3h3l3,1.5l3-1.5h3l1.5,1.5l4.5,4.5h1.5l3,1.5h4.5l3-3h1.5h4.5l3-1.5l1.5,3l1.5,3l-4.5,3l-1.5,3l1.5,3l1.5,1.5l3,3l-3,4.5
			l-1.5,1.5v7.5l1.5,7.5l3-3v-3l1.5-4.5l3-4.5h1.5l1.5,1.5l1.5-1.5l1.5,1.5v3l1.5-1.5l1.5-1.5l1.5,1.5l1.5,1.5l7.5-3l6-4.5v-6l6-3
			l3-9h-6l-1.5-1.5v-1.5l-1.5-1.5l-1.5-1.5V654h3l3-4.5l6-3l1.5,1.2l3,3.3l1.5,3l-1.5,3v3l3,1.5h4.5l3-13.5l3-10.5v-1.5l-1.5-3v-6
			l-1.5-1.5v-4.5l-1.5-4.5l-1.5-3l-1.5-3v-4.5l-7.5-20.9v-3l1.5-7.5l-1.5-6l1.5-3l-1.5-1.5l-1.5,1.5l-3-4.5v-4.5h-1.5l-1.5-1.5l-6-3
			h4.5l1.5-3l-1.5-3h-3l-3-1.5l-1.5-1.5h-4.5l-4.5-3v-1.5l-3-1.5h-1.5l-1.5-1.5h-3l-1.5,1.5l-1.5,1.5l-4.5,1.5h-1.5l1.5,3v12l-1.5-3
			v-6l-3,6l-7.5,7.5v-4.5l3-6h-1.5l-1.5,1.5h-1.5l-3-1.5l1.5-1.5l1.5-1.5v-1.5l-4.5,4.5l1.5,1.5v4.5h-3v1.5l-3-7.5l-4.5-7.5
			l-10.5,4.5l-7.5-3l3-4.5l1.5-3l3-4.5l1.5-4.5l1.5-3l1.5-1.5l4.5-7.5l1.5-9l1.5-1.5l1.5-1.5v-1.5l-1.5-1.5l1.5-3v-4.5l1.5-1.5
			l3-7.5l3-6l1.5-3v-3l1.5-1.5l1.5-3v-7.5l1.5-6l3-3l1.5-12l7.5-10.5h1.5l1.5-1.5l1.5-1.5l1.5-1.5l7.5-3l7.5-4.5h1.5l1.5-1.5h1.5v3
			l3,1.5l1.5-3l-1.5-4.5h6v-4.5l-4.5-4.5l-6-3h-6l-4.5-1.5v-6l4.5-1.5l-1.5-3v-3h1.5l-4.5-9l-9-6l-6,1.5l-7.5,1.5v4.5L1237.7,381.9
			L1237.7,381.9z"/>
		<path class="st1" d="M109.8,541.9l-0.6-1.5l-2.2,1.5l-3.3,1.5h-1.3l1.2,1.5l3.3,3l-3.1,6h-0.3l-0.6,1.5l-4.8,1.5l-4.2-1.5l1.6-1.5
			h-5.8l0.4,1.5l-0.3,1.5h2.1l2.4,3l0.7,3l0.3,1.5l1.6,1.5l1.6,3l3.1-1.5h3.3l1.6,1.5l0.6-1.5h5.4l1.5-3l2.5-4.5l3.7-1.5l3.3-1.5
			l0.4-3l-0.7-3h-5.1l0.1-1.5l0.4-1.5H117l-2.1-1.5l-0.2-1.5l-0.3-1.5H111L109.8,541.9L109.8,541.9z"/>
		<path class="st1" d="M361.4,377.4l-3-1.5l-1.5-1.5v-1.5l-1.5-1.5h-3l-3-1.5l-3-3l-6,3l-3,9l-3,1.5h-3l-1.5-1.5h-3l-3,4.5l-1.5,6
			l-1.5,1.5h-3l-1.5,6l-1.5,4.5l1.5,1.5H315l-3,1.5h1.5l1.5,1.5l3,3h4.5v1.5h1.5l1.5,1.5l3-1.5v-1.5l-1.5-1.5l3-1.5l3,1.5h-1.5v6
			l1.5-1.5l3,1.5l-4.5,3H327l1.5,3h1.5l3,3l1.5,3l3,1.5l3-1.5l4.5-1.5l4.5-1.5l-1.5-3l-1.5-4.5h-1.5l-1.5,1.5v-7.5l1.5-1.5h1.5
			l1.5-1.5v-1.5l1.5,1.5l1.5-1.5l6-13.5L361.4,377.4z"/>
		<path class="st1" d="M97.6,540.4l-2.2,1.5h-1.8l-1.2-1.5h-1.5l-1.6,1.5l-0.9-1.5l-1.2-1.5l-3.3,1.5l-3.4,1.5l-1.3-1.5h-1.3
			l2.2,7.5l0.1,3l4.3,1.5l5.2,1.5h5.8l1.2-4.5l-1.5-1.5l1.6-3l2.4-3h0.7l0.4,1.5h3.3l-0.6-4.5l-3.7-3L97.6,540.4z"/>
		<path class="st1" d="M250.7,377.4l-4.5,1.5l-3,1.5h-1.5v-1.5l-3,1.5l-3,1.5l-3-6l-3-10.5l-3-1.5h-3l-1.5-1.5l-3-3v4.5l-3,1.5
			l-1.5,1.5h-3l-2.9,0.7l2.9,0.8l1.5,3h-3l-1.5-1.5v1.5l-3,1.5l1.5,4.5l4.5,3l1.5-1.5l1.5-1.5l3,6l4.5,9h3l3-3l4.5,4.5l6,3h6l3,1.5
			l6-9l1.5-6h-1.5v-1.5h-1.5l-1.5-1.5l1.5-1.5L250.7,377.4L250.7,377.4z"/>
		<path class="st1" d="M306.1,105.2l-6-7.5l-4.5,10.5l-6,7.5h-4.5l-4.5,3h-1.5v1.5l-1.5,1.5l-4.5,1.5l-1.5,4.5l1.5,1.5l-1.5,1.5
			l-4.5,4.5l-1.5,6l-4.5,1.5h-4.5l-1.5,10.5l-1.5,12l-19.4,3l-20.9,1.5v3l3,4.5v-1.5l1.5,1.5h10.5l1.5-1.5l1.5,15l-4.5,16.4h9
			l1.5,1.5h3l-1.5-3v-1.5h1.5l3,3l3,3h3l1.5,1.5l1.5,6l1.5,1.5l1.5-4.5l-1.5-7.5l1.5-7.5v1.5h1.5l1.5-3l1.5-3v4.5h1.5l1.5-4.5l1.5-3
			v4.5l1.5-3l1.5-1.5l-1.5,4.5l-3,6h1.5l1.5-3v1.5l3,1.5l3-6v-1.5h-1.5v-1.5l-1.5,1.5l1.5-4.5l1.5-4.5l1.5,13.5l-7.5,10.5l-1.5,4.5
			l-1.5,6h3l3,3l4.5,4.5l1.5-1.5l1.5-1.5l1,1l0.5,0.5l3-4.5l1.5-4.5v-1.5l3-3l3-3l-3-4.5l-1.5-6l3-3l1.5-3l1.5-4.5l1.5-4.5l1.5,1.5
			l1.5,1.5l3-1.5l3-3v-3l1.5-3v-4.5h-3V165l1.5-1.5l6-7.5l1.5-3l1.5-4.5h1.5l1.5,1.5l3-3l1.5-1.5v1.5h1.5l1.5-9l-3-9h4.5l-1.5-3
			l-1.5-3l1.5-1.5H318l-1.5-1.5l-4.5,1.5l-1.5-4.5l1.5-4.5L306.1,105.2L306.1,105.2z"/>
		<path class="st1" d="M161.9,479.1l-1.5-3h-4.5v-3l-2.2-1.5l-1,3l-1.9,3l-5.5-3l-7.3,3l-0.9,1.5l2.5,1.5h4.5l-2.1,4.5l-4.2,3
			l-0.3,1.5l-0.3,1.5h-7.6l-1.2,3l-1.6,1.5H126l-0.7-1.5l-2.2,1.5l-2.7-1.5l-4.6-10.5l-6.4-4.5l-4,1.5l-5.4,1.5l1,1.5h1.5l-0.1,1.5
			l0.3,1.5l1.8-1.5h1.9l0.4,1.5l-0.9,1.5h9l1.3,4.5l1.2,3l2.2,3l1.8,3l-1,7.5l0.9,3l2.1,3l3.4,7.5l1.2,7.5l1,1.5l2.4,1.5l4.5,7.5
			l3.1,4.5h1.6l1,1.5l1.2-1.5h0.9l4.6-3l4.9-1.5l1-1.5h1.5v-1.5l-1-1.5l-1-1.5h-3l-0.6-1.5l1.3-4.5l5.1-1.5l-1-1.5l-1.5-1.5l0.4-1.5
			l0.6-1.5l-1.5-1.5l-0.3-1.5h5.5l5.4-1.5l0.6-6l0.7-7.5l3.3-1.5h2.5l-3.1-3h-3.9l-1.5-3l-0.4-4.5l1.3-3l1.9-1.5l-1.2-1.5l-1.8-1.5
			L161.9,479.1z"/>
		<path class="st1" d="M103.6,544.9l-1.2-1.5h-1.9l-0.4-1.5h-0.7l-2.4,3l-1.6,3l1.5,1.5l-1.2,4.5l-1.6,1.5l4.2,1.5l4.8-1.5l0.6-1.5
			h0.3l3.1-6L103.6,544.9z"/>
		<path class="st1" d="M670.9,630.1h-1.5l-1.5-1.5l-1.5-1.5l-1.5,1.5h-1.5l-1.5-1.5l-3-3l-4.5,1.5l-1.5,3l1.5,3l-3,3l-1.5-1.5h-4.5
			l-1.5-1.5l-1.5-1.5l-1.5,3l-1.5,3h-3l-1.5,1.5l-1.5,1.5h-10.5l-3,1.5l-1.5,1.5l-3-1.5l-3,1.5l3,3l3,3v6h-4.5l3,7.5l4.5,6l1.5,4.5
			l1.5,4.5l1.5,1.5h1.5l3,1.5l1.5,1.5l6-1.5l4.5-1.5v1.5L641,681l7.5,10.5h6l3-1.5l1.5-3l7.5,1.5h4.5l1.5-1.5h1.5l1.5,1.5l3-4.5
			l1.5-3l-1.5-3v-1.5h-1.5l-1.5-1.5l4.5-3h3v-3l-3-1.5v-6h-1.5l-1.5-1.5v-10.5l-3,1.5l-3,1.5l-4.5-1.5l-1.5-4.5v-1.5l1.5-1.5v-4.5
			l3-1.5l3-3v-4.5H670.9z"/>
		<path class="st1" d="M359.9,426.7l-1.5-1.5v-1.5h-4.5l-4.5-1.5l-4.5,1.5l-4.5,1.5l-3,1.5l-3-1.5l-6,3l-6,1.5l-1.5-1.5v1.5
			l-1.5,1.5l1.5,1.5v3l-1.5,3l-1.5,1.5h-3v1.5l-1.5,3l-3,6l-1.5,4.5v9l1.5,1.5l1.5,1.5v1.5l1.5,1.5h1.5l-1.5,4.5v3l1.5,3v1.5h-3
			l1.5,4.5l1.5,4.5h1.5l3-3l4.5,1.5l-3,4.5l-3,3l1.5,1.5l1.5,1.5l-3,7.5h1.5l1.5,3l1.5,1.5h6l3,1.5l1.5,1.5l6,1.5l3-6h3l1.5-3V506
			h1.5v-3l3-3l1.5-1.5l4.5-7.5l4.5-7.5h3l3-1.5h1.5l1.5,1.5l1.5,1.5l1.5-3l4.5-4.5l3-4.5l-7.5-1.5l-9,1.5l-1.5-1.5v-1.5h-6v-1.5
			l-3-10.5v-1.5h1.5v-1.5l1.5-1.5l4.5-1.5l4.5,3l-1.5,3v3l3-1.5l1.5,1.5v3h1.5l1.5-1.5l1.5-3l3,1.5h1.5l1.5-1.5h6l-1.5-1.5l-1.5-1.5
			l3-6v-4.5h-1.5l-4.5-3l-6-3l-1.5-1.5h-1.5v-4.5h-6v-1.5l-1.5-4.5h-1.5L359.9,426.7z"/>
		<path class="st1" d="M71,477.6l-0.7-4.5l-4,1.5l-5.1-1.5l-2.4-3l-1.5-1.5l-1.2,1.5l0.4,1.5l0.7,1.5l2.7,3l2.4,3h0.9l1.3-3h1.6
			l1,4.5l-0.4,4.5h-3.4l-3.4,3l0.3,3l0.4,1.5l-1.5,1.5h-1.9l0.3-1.5l-0.6-1.5h-1.2l-1.5,1.5l-0.6,1.5l1.8,4.5l3,3l3-1.5l1.9-4.5h1.3
			l1.2-1.5l1.9-3l3.3-1.5l-0.4,3l-0.6,3h2.4l0.7-1.5l0.7-1.5l0.9-1.5l1.8-1.5l-1.5-7.5L71,477.6z"/>
		<path class="st1" d="M4.9,421.6l3.9-5.7l-3-7.6l-3-1.7l-0.3-2l6.9,0.3l7.2,1.4l4.8,4l-0.9-5.9l3.8,4.4l0.5,2l4.5,4.1l2.2,5.5
			l-1.7,4.5l-0.8,8.5l2.8,0.8l2.1-0.3l0.6,2.6l2.7,0.6l3.7,4.8l-4.4,0.1l-1.6,2.7l-6.2-5.2l-1.4-3.6l-3.4-0.3l-7.1-2.8l-4.8-1.5
			l-6.2,0.2L4.9,421.6z"/>
		<path class="st1" d="M5.5,431.7L1.7,429l-1.4-5.4l4.5-2.1L5.5,431.7z"/>
		<path class="st1" d="M466.1,235.3l-9-7.5l-7.5-6h-6l-1.5-1.5l-1.5,1.5l-3,1.5l-12-1.5h-10.5l-4.5,6l-4.5,6l-1.5,4.5h3l1.5,1.5
			l-1.5,4.5l-1.5,4.5l1.5,3v1.5l-1.5,1.5l-1.5,1.5l-1.5-1.5l-3-3h-1.5l-1.5,1.5l-1.5-1.5v-1.5h-1.5l-3,1.5l-1.5-3l-3,3l-1.5-1.5
			v-4.5l-10.5-7.5l-10.5-3v6l3,6v7.5l-3,4.5v3l1.5,3l-4.5,1.5h-3l-4.5,6l-1.5,6l1.5,1.5h3l1.5,1.5h3v-1.5l1.5-3h6l1.5-1.5h1.5l1.5,3
			l1.5,3l-6,6l-7.5,6l-1.5,4.5l-1.5,3l-9,3h-3l-3,1.5l-4.5,7.5v4.5l-6,1.5l-3,4.5l3,3l1.5,3v3l1.5,4.5l-1.5,1.5v3l4.5-3l3-3h3V334
			l6,3l4.5,1.5l6-1.5h4.5v1.5l3-1.5l-1.5-4.5l3-7.5l9,3h3l3,3l-1.5,3l4.5,3l3-1.5l3,4.5l3,3l3-1.5h6v1.5h3l1.5-1.5h1.5l1.5,1.5
			l3-1.5l4.5-1.5l9,9l15,1.5V349l3-1.5l1.5-3l1.5-4.5h3l1.5-3l-1.5-1.5V334l3-6l3-6l6-6l6-6l1.5-9l1.5-1.5l3-1.5l1.5-1.5h1.5l3-1.5
			h3v1.5l1.5,3l3-1.5l3-1.5l3-1.5v-1.5l4.5-1.5l3-1.5h4.5l3,1.5l4.5-4.5l4.5-1.5v-1.5l3-3h4.5l6-1.5h6l1.5-3l1.5-1.5l7-4.2l6.5-3.3
			l-1.5-4.5l-3-4.5l1.5-6h1.5l1.4-1.9l-2.9-1.1h-3l-1.5,1.5l-3,1.5l-3,1.5l-3,1.5l-3,1.5h-1.5l-1.5-1.5l-1.5,3v1.5l-10.5,3l-9,1.5
			l-1.5-1.5l-1.5-1.5L466.1,235.3z"/>
		<path class="st1" d="M339,299.6l-7.5-1.5l-3,3l-6,4.5l-3-1.5l-3,1.5v3l1.5,1.5h4.5l-1.5,1.5l-1.5,1.5l1.5,3l-3,3l-1.5,3l-1.5,4.5
			v4.5l-3,1.5h-6v1.5l-3-1.5h-1.5l-4.5,3l-3,1.5l4.5,6l4.5,6l-1.5,1.5l-3,1.5l-3,1.5l-6-3l-1.5,1.5l-1.5,3l-1.5,1.5l-1.5,1.5
			l1.5,1.5l1.5,1.5l1.5,3h4.5l3,3l1.5-1.5h1.5l1.5,1.5l3,1.5v1.5l1.5-1.5h3v1.5l-1.5,3l1.5,1.5h1.5v6l1.5,1.5l-1.5,1.5l-1.5,1.5
			l4.5,1.5l-1.5,4.5v3h1.5v1.5h-1.5l1.5,4.5l3,1.5l1.5-4.5l1.5-6h3l1.5-1.5l1.5-6l3-4.5h3l1.5,1.5h3l3-1.5l3-9l6-3l3,3l3,1.5h3
			l1.5,1.5v1.5l1.5,1.5l3,1.5l1.5-3l3-1.5l1.5-4.5l1.5-1.5l-3-3v-4.5l7.5-4.5l4.5-6l-6-4.5l-6-6V337h-4.5l-6,1.5l-4.5-1.5l-6-3v1.5
			h-3l-3,3l-4.5,3v-3l1.5-1.5l-1.5-4.5v-3l-1.5-3l-3-3l3-4.5l6-1.5v-4.5l4.5-7.5l-3-3l-1-2L339,299.6z"/>
		<path class="st1" d="M228.3,389.3l-3,3h-3l-4.5-9l-3-6l-1.5,1.5l-1.5,1.5l-4.5-3l-1.5-4.5h-3l-1.5,1.5l-1.5,3l-1.5,1.5l1.5,1.5v3
			l-3,1.5l1.5,4.5v7.5l-1.5,1.5l-3,1.5l3,4.5l4.5,1.5l1.5,3l1.5,1.5h3l1.5,1.5l1.5,1.5v1.5l4.5,3l3,1.5h1.5v3l4.5-1.5h3l3,1.5
			l1.5,1.5l4.5-3l4.5-6v-3l-1.5-3l1.5-6l-1.5-6l-6-3L228.3,389.3z"/>
		<path class="st1" d="M195.4,368.4l-1.5,1.5h-3l-1.5-1.5l-1.5-3h-4.5l-3-1.5l-6.6,4.5l-5.2,6l1.5,9l-2.4,1.5l-2.8,1.5l1.2,1.5
			l1.5,1.5l-0.7,3l-0.4,1.5l2.7,1.5l3.1,1.5l1.6,3l1.5,3h2.2l-0.3,1.5l1.9,1.5l7.2-3l7.5-3l3-1.5l1.5-1.5v-7.5l-1.5-4.5l3-1.5v-3
			l-1.5-1.5l1.5-1.5l1.5-3l1.5-1.5L195.4,368.4z"/>
		<path class="st1" d="M353.9,60.3v0.7l-3,2.2l-4.5-1.8l-3-1l-1.5,1.2l-3,1.6l-1.5-2.4l-1.5-0.1l-3-0.4v3l-6,3l-4.5,6v3l-1.5,7.5
			l-1.5,6l-4.5,1.5h-6l-9,7.5l6,7.5l6,7.5l-1.5,4.5l1.5,4.5l4.5-1.5l1.5,1.5h1.5l1.5,1.5v-6l1.5-3v-6l3,6v1.5H324v7.5h3l1.5,7.5H327
			v1.5l1.5,1.5h1.5v7.5l3,4.5l4.5,6l4.5,7.5l3,6l15,4.5l9-1.5l7.5-3l1.5-1.5v-3l3-3l3-4.5l-1.5-3l-1.5-1.5l1.5-4.5l1.5-4.5h-3v-9
			l-1.5-1.5v1.5l-1.5-10.5v-16.4l-1.5-3h-1.5l1.5-1.5l-1.5-1.5v-1.5h-3l-1.5-4.5l-1.5-3l-3-1.5l-3,1.5l-1.5-1.5l3-1.5l3-3l-3-1.5
			l1.5-1.5l-1.5-1.5l-3-1.5h1.5l1.5-1.5l-1.5-1.5v-1.5l3,3l4.5,1.5l-1.5-4.5l-1.5-6v1.5h-4.5v1.5l-1.5-1.5v-1.5l-1.5-3v-1.5
			l-1.5,1.5v1.5h-3l-1.5-4.3V60.3L353.9,60.3z"/>
		<path class="st1" d="M195.4,168l-3,1.5l1.5,1.5l1.5,1.5h3l1.5,3v1.5h-4.5v6l1.5-1.3l-9,2.8l-2.9-1.5l-1.5,1.5h-1.5v-3h-1.8l-1,1.5
			l-2.2,1.5h0.7l-1.8,3l-2.7-1.5l-2.5,1.5h-2.7l1.5,4.5l1.2,3l1.5,3l1.3,3l-1,6l2.2,4.5h2.2l3-1.5l2.1,1.5l1.5,3l3-1.5h4.5v1.5
			l3,1.5l3-1.5l3-1.5v1.5l1.5,1.5l1.5,1.5v6h6l1.5,1.5v1.5l3,4.5v3l1.5,3l3,4.5h4.5l3,1.5l1.5-1.5l1.5-1.5h3l1.5-1.5h-1.5v-1.5
			l1.5-1.5v-4.5l4.5-3l4.5-1.5l3-3v-1.5l1.5-1.5h4.5l3-1.5l-1.5-1.5l-1.5-6l-1.5-1.5h-3l-3-3l-3-3h-1.5v1.5l1.5,3h-3l-1.5-1.5h-10.5
			l-1.5-1.5l-3,3l-4.5,1.5l-3-4.5h-4.5l-3-1.5l-1.5-1.5h1.5l1.5-3l1.5-3l3-7.5l4.5-6v-4.5l-3-4.5v-4.5h-10.5L195.4,168L195.4,168z"
			/>
		<path class="st1" d="M276.1,251.8h-1.5l-3-1.5v-3l-1.5-1.5h-1.5v-6l1.5-3l1.5-4.5l1.5-4.5l-4.5-4.5l-3-3h-3v1.5l-4.5,1.5l-6,1.5
			l-1.5-1.5l-1.5-3h-3l-1.5,1.5v1.5l-3,3l-4.5,1.5l-4.5,3v4.5l-1.5,1.5v1.5h1.5l-1.5,1.5h-3l-1.5,1.5l-1.5,1.5l-3-1.5h-4.5l-1.5,4.5
			v3h1.5v1.5h1.5l1.5,1.5v9h4.5l6,1.5v9l1.5-1.5l4.5,1.5v-4.5l1.5-4.5l1.5,1.5l-1.5,3v6l4.5,3l1.5-1.5h1.5l4.5,4.5v7.5l6,7.5l6-1.5
			v-1.5l1.5-1.5l4.5,1.5l4.5,1.5l1.5-1.5l1.5-1.5v3h1.5l1.5,1.5v4.5l6,1.5v1.5l1.5,1.5l3,1.5l1.5,3l1.5,3l10.5,7.5h1.5l1.5-1.5
			l3,1.5h1.5l1.5-1.5l1.5-1.5l3,1.5l1.5,3l3-3l-1.5-3l1.5-1.5l1.5-1.5H318l-1.5-1.5v-3l3-1.5l3,1.5l6-4.5l3-3l-1.5-6l-3-1.5v-4.5h-9
			l-4.5-6l-3-4.5l-3,1.5h-4.5v-3l-3-1.5h-1.5l-1.5-3v-1.5l-1.5-1.5l-1.5-1.5h-1.5v-1.5l-3,1.5h-4.5v-3l-1.5-1.5l-1.5-1.5l-1.5-1.5
			l-1.5-1.5h-1.5v-1.5L276.1,251.8L276.1,251.8z"/>
		<path class="st1" d="M279.1,293.6l-1.5-1.5h-1.5v-3l-1.5,1.5l-1.5,1.5l-4.5-1.5l-4.5-1.5l-1.5,1.5v1.5l-6,1.5l-1.5,3v1.5
			l-10.5,4.5l-9,6l10.5,6l3-1.5l1.5-1.5l1.5,3l1.5,3l3,1.5l3,1.5l-1.5,3l-1.5,1.5h4.5l3,4.5l6,3h6l3-3l1.5-1.5l4.5,4.5v3h3l6,1.5
			l3-1.5l4.5-3h1.5l3,1.5v-1.5h6l3-1.5v-4.5l1.5-4.5l1.5-3l-1.5-3l-3-1.5l-1.5,1.5l-1.5,1.5H309l-3-1.5l-1.5,1.5h-1.5l-10.5-7.5
			l-1.5-3l-1.5-3l-3-1.5l-1.5-1.5v-1.5l-6-1.5V293.6z"/>
		<path class="st1" d="M170.6,194.9l-1.2-3l-1.5-4.5l-3.3,4.5l-3.4,3h-4.6l-2.4,3l1,1.5l0.7,1.5l-2.2,4.5l-2.1-1.5l0.6-1.5l0.4-1.5
			h-0.9l-0.3,1.5h-1.5l-1.2-1.5l-2.7,1.5h-2.8v1.5h0.6l-0.1,1.5l-1.5,4.5l-3.4,3l-3.7,1.5l0.3,1.5l0.2,1.5l-3.7,4.5l-4.9,6h-0.1
			l0.1,1.5l1.2,1.5l1.5,1.5l-0.6,1.5l-0.2,1.5h1.3l1.9,3l-1.8,4.5l-1.2,1.5h2.2l1.2,1.5h2.5l2.7,7.5v3l0.7,1.5h3.1l2.1,3l7.6-6
			l0.9-4.5v-3l1.3-1.5l1.3-1.5l-0.7-1.5H154l2.1-1.5l2.4-1.5l-0.3-3l2.7-3l0.7-3l4.5-1.5l0.3-1.5l0.1-1.5h1.8l1.3-1.5l-1.5-4.5l-1-6
			l7.5-3l-2.2-4.5l1-6l-1.3-3L170.6,194.9L170.6,194.9z"/>
		<path class="st2" d="M506.4,147.1v-3h-3v3l1.5,1.5l-1.5,6l4.5-4.5v-1.5L506.4,147.1z M540.8,114.2l-4.5-1.5h-4.5v3h-1.5v3l-3-1.5
			h-4.5v3l1.5,1.5h-1.5v1.5l-1.5,1.5l-4.5,3l-3,3l-1.5-1.5v-1.5l-1.5-1.5l-3,1.5l-3,3l-1.5,4.5v4.5h3v1.5l1.5-1.5l1.5-1.5v1.5
			l-1.5,3l3,3l-1.5,6l1.5,1.5l1.5,3h-3l-1.5-1.5v1.5l-1.5,1.5h-1.5v3l1.5,3h3l1.5,3v3h3V168h1.5l1.5,3l1.5,3l1.5,1.5V174v-1.5
			l1.5-1.5v3l3,4.5v-3l1.5,1.5h3l-1.5-4.5l-1.5-4.5v-7.5l1.5-7.5l1.5-6l3-6h1.5l1.5-3l1.5-3l1.5-3l1.5,1.5l3-1.5v-1.5l-1.5-1.5h1.5
			l3,1.5l1.5-1.5v-1.5h-1.5l-1.5-1.5l4.5,1.5v-3h3l-1.5-4.5l-3-3v-1.5l-1.5-1.5H540.8z M575.2,81.3l-3,3v1.5h1.5v1.5l1.5,1.5h-3
			l-3,1.5h1.5l1.5,1.5v1.5l1.5,1.5l-3-1.5l-4.5-1.5l-1.5,1.5l1.5,3h-6l1.5,1.5v1.5h-1.5l-1.5-1.5v3l1.5,3l-1.5-1.5l-3-3l-3,1.5v3
			v-1.5l-3-1.5l-3,1.5l-1.5,1.5l-1.5-1.5l3,4.5l6,1.5v1.5h-9l-3,1.5v1.5h4.5l3,3l1.5,3l1.5-1.5v4.5l3,1.5l1.5-1.5v1.5l1.5-1.5l3-1.5
			l-1.5-3v-3l1.5,4.5h3l1.5-1.5l-1.5-3l-1.5-1.5v-1.5l3,1.5l1.5,3v1.5l1.5-3l1.5-3l-1.5-1.5v-1.5h1.5v-1.5h1.5v7.5l1.5-1.5l1.5-1.5
			l3-1.5l3-4.5l-1.5-1.5v-1.5h1.5v3l3,1.5l1.5-1.5l1.5-3l1.5,4.5l1.5-1.5v-3h1.5v3l3-1.5v-1.5l1.5,1.5l1.5-1.5v-1.5l-1.5-1.5h3
			l3-1.5l4.5-1.5v1.5l1.5-1.5h1.5l4.5-1.5H638l15-1.5l4.5-3l3-4.5l3-3l-1.5-4.5l-7.5-3l-9,3v1.5l-1.5,1.5h-1.5v-1.5h-19.4l-4.5-4.5
			l-3-1.5l-1.5,3l-4.5,1.5h1.5v-1.5h-3l-3,1.5l-3-1.5h-4.5l-3,1.5h-3v1.5h-4.5v3l-1.5,1.5l-1.5-1.5l-1.5-1.5l-1.5,1.5l-1.5,1.5
			l-3,1.5v-1.5L575.2,81.3L575.2,81.3z M374.8,178.5h-1.5l-1.5,1.5h-4.5l-4.5,1.5l-3-1.5l-1.5-1.5l-4.5,1.5h-6l-6,4.5l-1.5,6l-1.5,6
			h-1.5l-1.5-1.5l-1.5-1.5v1.5H333l-3-1.5l-1.5-4.5l-3-4.5l-3-1.5l-1.5,1.5V183l1.5-1.5h3L324,174l-4.5-6l-3,1.5l-3,1.5l-1.5,12h1.5
			l3,1.5l-3,4.5l-4.5,4.5l-1.5-1.5h-1.5v1.5l-3-4.5l-3-6l-3,3l-3,1.5l-1.5-1.5l-1.5-1.5l-1.5,4.5l-1.5,4.5l-1.5,3l-3,3l1.5,6l3,4.5
			l-3,3l-3,3v1.5l-1.5,4.5l-3,4.5l-1.5-1.5l-1.5,1.5l-1.5,1.5l-1.5,4.5l-1.5,4.5l-1.5,3v6h1.5l1.5,1.5v3l3,1.5h1.5l1.5,3v1.5h1.5
			l1.5,1.5l1.5,1.5l1.5,1.5l1.5,1.5v3h4.5l3-1.5v1.5h1.5l1.5,1.5l1.5,1.5v1.5l1.5,3h1.5l3,1.5v3h4.5l3-1.5l3,4.5l4.5,6h9v4.5l3,1.5
			l1.5,6l7.5,1.5l1.5,3l3,3l3-1.5h3l9-3l1.5-3l1.5-4.5l7.5-6l6-6l-1.5-3l-1.5-3h-1.5l-1.5,1.5h-6l-1.5,3v1.5h-3l-1.5-1.5h-3
			l-1.5-1.5l1.5-6l4.5-6h3l4.5-1.5l-1.5-3v-3l3-4.5v-7.5l-3-6v-6l10.5,3l10.5,7.5v4.5l1.5,1.5l3-3l1.5,3l3-1.5h1.5v1.5l1.5,1.5
			l1.5-1.5h1.5l3,3l1.5,1.5l1.5-1.5l1.5-1.5v-1.5l-1.5-3l1.5-4.5l1.5-4.5l-1.5-1.5h-3l1.5-4.5l4.5-6l4.5-6l-3-3l-3-1.5h-3l-3,1.5
			v1.5h-3v-1.5l-1.5-1.5l-1.5-3l-4.5-9l-6-9v-4.5l-7.5,6l1.5-3l-1.5-1.5l-1.5-1.5l3-1.5L374.8,178.5L374.8,178.5z"/>
		<path class="st3" d="M510.9,145.6l-3-3l1.5-3v-1.5l-1.5,1.5l-1.5,1.5v-1.5h-3v-4.5l1.5-4.5l3-3l3-1.5l1.5,1.5v1.5l1.5,1.5l3-3
			l4.5-3l1.5-1.5v-1.5h1.5l-1.5-1.5v-3h4.5l3,1.5v-3h1.5v-3h4.5l4.5,1.5h4.5l1.5,1.5v1.5l3,3l1.5,4.5h-3v3l-4.5-1.5l1.5,1.5h1.5v1.5
			l-1.5,1.5l-3-1.5h-1.5l1.5,1.5v1.5l-3,1.5l-1.5-1.5l-1.5,3l-1.5,3l-1.5,3h-1.5l-3,6l-1.5,6l-1.5,7.5v7.5l1.5,4.5l1.5,4.5h-3
			l-1.5-1.5v3l-3-4.5v-3l-1.5,1.5v1.5v1.5l-1.5-1.5l-1.5-3l-1.5-3h-1.5v1.5h-3v-3l-1.5-3h-3l-1.5-3v-3h1.5l1.5-1.5v-1.5l1.5,1.5h3
			l-1.5-3l-1.5-1.5L510.9,145.6z M510.9,145.6l1.5-1.5 M579.7,105.2l-3,4.5l-3,1.5l-1.5,1.5l-1.5,1.5v-7.5h-1.5v1.5h-1.5v1.5
			l1.5,1.5l-1.5,3l-1.5,3v-1.5l-1.5-3l-3-1.5v1.5l1.5,1.5l1.5,3l-1.5,1.5h-3l-1.5-4.5v3l1.5,3l-3,1.5l-1.5,1.5v-1.5l-1.5,1.5l-3-1.5
			v-4.5l-1.5,1.5l-1.5-3l-3-3h-4.5v-1.5l3-1.5h9v-1.5l-6-1.5l-3-4.5l1.5,1.5l1.5-1.5l3-1.5l3,1.5v1.5v-3l3-1.5l3,3l1.5,1.5l-1.5-3
			v-3l1.5,1.5h1.5v-1.5l-1.5-1.5h6l-1.5-3l1.5-1.5l4.5,1.5l3,1.5l-1.5-1.5v-1.5l-1.5-1.5h-1.5l3-1.5h3l-1.5-1.5v-1.5h-1.5v-1.5l3-3
			h0l1.5,3v1.5l3-1.5l1.5-1.5l1.5-1.5l1.5,1.5l1.5,1.5l1.5-1.5v-3h4.5v-1.5h3l3-1.5h4.5l3,1.5l3-1.5h3v1.5h-1.5l4.5-1.5l1.5-3l3,1.5
			l4.5,4.5h19.4v1.5h1.5l1.5-1.5v-1.5l9-3l7.5,3l1.5,4.5l-3,3l-3,4.5l-4.5,3l-15,1.5h-25.4l-4.5,1.5h-1.5l-1.5,1.5v-1.5l-4.5,1.5
			l-3,1.5 M579.7,105.2l-1.5-1.5v-1.5h1.5V105.2z M579.7,105.2l3,1.5l1.5-1.5l1.5-3l1.5,4.5l1.5-1.5v-3h1.5v3l3-1.5v-1.5l1.5,1.5
			l1.5-1.5v-1.5l-1.5-1.5h3 M597.7,99.2l1.5-1.5 M337.5,196.4h1.5l1.5-6l1.5-6l6-4.5h6l4.5-1.5l1.5,1.5l3,1.5l4.5-1.5h4.5l1.5-1.5
			h1.5l0,0l6,12l-3,1.5 M337.5,196.4l-1.5,1.5 M337.5,196.4l-1.5-1.5l-1.5-1.5v1.5H333l-3-1.5l-1.5-4.5l-3-4.5l-3-1.5l-1.5,1.5V183
			l1.5-1.5h3L324,174l-4.5-6l-3,1.5l-3,1.5l-1.5,12h1.5l3,1.5l-3,4.5l-4.5,4.5l-1.5-1.5h-1.5v1.5l-3-4.5l-3-6l-3,3l-3,1.5l-1.5-1.5
			l-1.5-1.5l-1.5,4.5l-1.5,4.5l-1.5,3l-3,3l1.5,6l3,4.5l-3,3l-3,3v1.5l-1.5,4.5l-3,4.5l-1.5-1.5l-1.5,1.5l-1.5,1.5l-1.5,4.5
			l-1.5,4.5l-1.5,3v6h1.5l1.5,1.5v3l3,1.5h1.5l1.5,3v1.5h1.5l1.5,1.5l1.5,1.5l1.5,1.5l1.5,1.5v3h4.5l3-1.5v1.5h1.5l1.5,1.5l1.5,1.5
			v1.5l1.5,3h1.5l3,1.5v3h4.5l3-1.5l3,4.5l4.5,6h9v4.5l3,1.5l1.5,6l7.5,1.5l1.5,3l3,3l3-1.5h3l9-3l1.5-3l1.5-4.5l7.5-6l6-6l-1.5-3
			l-1.5-3h-1.5l-1.5,1.5h-6l-1.5,3v1.5h-3l-1.5-1.5h-3l-1.5-1.5l1.5-6l4.5-6h3l4.5-1.5l-1.5-3v-3l3-4.5v-7.5l-3-6v-6l10.5,3
			l10.5,7.5v4.5l1.5,1.5l3-3l1.5,3l3-1.5h1.5v1.5l1.5,1.5l1.5-1.5h1.5l3,3l1.5,1.5l1.5-1.5l1.5-1.5v-1.5l-1.5-3l1.5-4.5l1.5-4.5
			l-1.5-1.5h-3l1.5-4.5l4.5-6l4.5-6l-3-3l-3-1.5h-3l-3,1.5v1.5h-3v-1.5l-1.5-1.5l-1.5-3l-4.5-9l-6-9v-4.5l-7.5,6l1.5-3l-1.5-1.5
			l-1.5-1.5 M377.8,191.9l-1.5,1.5 M506.4,147.1v-3h-3v3l1.5,1.5l-1.5,6l4.5-4.5v-1.5L506.4,147.1z"/>
		<path class="st1" d="M644,163.5V162h-3l-7.5,3v4.5l6,1.5l4.5-1.5V163.5z M663.5,200.9v-6l1.5-4.5v-3l-1.5-1.5l-1.5,4.5l-1.5,7.5
			l-4.5,4.5l-7.5,1.5l-1.5,1.5h-1.5l-1.5,3l-1.5,1.5l-1.5,1.5l-1.5,1.5v1.5l1.5,1.5v1.5l-1.5,3l1.5,6v6l-4.5,4.5l-3,3l-1.5,4.5
			l-1.5,3l-1.5,3v6l-1.5,3l-1.5,4.5h4.5l1.5,1.5l1.5,1.5l3-1.5h3l9,6l4.5,9v1.5l-1.5,1.5l1.5,4.5v4.5h-3l-4.5,3l-1.5,4.5l6,6l4.5,3
			h-3l-3-1.5l-3,1.5H644v-4.5l-1.5-3v-1.5l1.5-3v-3l1.5-1.5l1.5-1.5h-1.5v-1.5l1.5-1.5v-6l-1.5-3v-6h-16.4l-3,4.5l-1.5,3v4.5
			l-3,10.5l-3,3l-4.5,1.5l-1.5,4.5l-3,3l-4.5,1.5l-4.5,3l-3-1.5l-1.5,1.5l-3,4.5h-4.5v-1.5l-1.5-1.5l-6-1.5l-4.5-3l-3-1.5l-1.5-3
			l-1.5-4.5v-4.5l6,3l7.5,3l-1.5,1.5h-3v1.5l4.5,3h6v-3l1.5-3h1.5l3-1.5l1.5-1.5h1.5v-3l6-3l6-3l1.5-4.5v-3l4.5-3l3-4.5l-3-6l-1.5-9
			l4.5-7.5l3-7.5l3-9l1.5-1.5l1.5-1.5l4.5-9l-1.5-7.5v-7.5l6-6l9-15V183l-3-4.5l-7.5-3l-3-1.5l-3-1.5h-1.5l1.5-1.5h-1.5v-1.5l-7.5,9
			l-7.5,10.5l-12,9l-9,4.5h1.5l-1.5,3h-1.5l-1.5,3h3l1.5,1.5l-3,4.5l-3,6v3l-1.5,3l-1.5-1.5h-1.5l-3,3l-1.5,4.5v1.5l1.5-1.5h1.5
			l1.5,3l1.5,3h1.5v3l-1.5,1.5v7.5l3,3v1.5l-9,10.5h-3l1.5-1.5v-1.5l-1.5-1.5l-1.5-1.5l-1.5-10.5l-1.7,0.2l-0.3-1l-0.7-1l1.7,0
			l-0.6-1.6l-1.4-1l0.8-2.5l-3.8-5l-6-4.5l-3,3l-1.5,1.5l-1.5,1.5l3,4.5l1.5,1.5v3l-4.5,6h-1.5l-1.5,6l3,4.5l1.5,4.5l-6,3l-7.5,4.5
			l-1.5,1.5l-1.5,3h-6l-6,1.5h-4.5l-3,3v1.5l-4.5,1.5l-3,3l-1.5,1.5l-3-1.5h-4.5l1.5,4.5v3l1.5,3v1.5l-3,4.5l-1.5,4.5h-3l-1.5,3
			l1.5,3l4.5,1.5l-1.5,3l1.5,3h4.5l1.5,1.5l3-1.5h3v1.5l1.5,1.5l1.5-1.5h1.5l4.5,1.5l4.5,3l1.5,1.5l3,1.5l-1.5,1.5l-3,1.5l3,4.5
			l4.5,4.5l3-1.5l3-1.5l4.5,1.5h1.5l1.5-1.5h3v1.5l1.5,1.5h1.5l3,3l-1.5,1.5l-1.5,3v4.5l1.5,3l3,3v10.5l7.5,1.5l7.5-1.5l3,4.5
			l1.5,4.5l3,3l3,1.5l7.5,1.5l6,4.5l7.5,4.5l1.5,6l3,3h10.5l3,1.5l3,1.5l9-3l6-3h1.5v4.5l4.5,4.5h6l3,4.5l3,4.5h6l3,3l3,6l7.5-6
			l4.5-6l1.5-3v-1.5l1.5-1.5l1.5-3l-3-1.5l-1.5-1.5v-3l1.5-1.5h3l6-9l1.5-9l-1.5-4.5l-3,1.5l-3-1.5l-1.5-3h-3l-1.5-4.5h1.5l1.5-3
			v-10.5l-4.5-1.5l-1.5-4.5V343l1.5-6l-1.5-7.5l-1.5-4.5l-1.5-1.5V322l2.5-1.8l1.4-2.4l-2.4-1.8v-6l6-3l3-7.5l3-17.9l-1.5-1.5
			l-1.5-1.5v-1.5l-1.5-1.5l-3,3h-4.5l-3-3l-4.5-3l-1.5-4.5l-1.5-3v-4.5l3-1.5v-1.5h1.5l6-4.5l3-3l3,1.5h3l1.5-7.5v-7.5l-3-3l-3-3v-6
			h4.5l3-3v-4.5l-3-3l-3-3l-1.5-3l-1.5-3h-4.5l-4.5,3h3l1.5,3v3l-6-1.5l-1.5-4.5l-6,1.5l-1.5,6l1.5,6l3,4.5h3l3,3l-1.5,7.5l-1.5-3
			l-1.5-3l-9-4.5l-7.5-6l1.5-1.5l3-6l-1.5-3l4.5-4.5L663.5,200.9L663.5,200.9z M679.9,203.9l1.5-1.5v-3l-1.5-1.5l-7.5,3l6,3
			L679.9,203.9L679.9,203.9z M665,181.5l-6-1.5l1.5,4.5h1.5l1.5-3H665z M672.4,174l1.5,1.5l1.5-1.5l-3-1.5l-1.5,1.5H672.4z"/>
		<path class="st1" d="M1317,117.2h-1.5l-1.5,4.5l6,3l3-1.5l3-3l-1.5-1.5l-1.5-3h-3L1317,117.2z M1358.8,22.2l-4.5,3v2.1l-1.5,0.9
			l-1.5,1.2l-1.5,6.4l1.5,6.6l1.5,3.4l3,1.8l1.5,0.7l3-8.2l4.5-2.4l1.5-1.5v-1.8l3-6.4l-1.5-6.4l-3,0.4L1358.8,22.2z M1460.5,53.3
			l-1.5,2.4l-1.5,1.6l-1.5,1.5l1.5,0.3l1.5-1l3,0.7l3,1.2v3.3h3l3,1.5h-3v3h-1.5l-1.5-1.5l-1.5,1.5h-4.5v-3l-3-1.5l-6-4.3l-1.5-0.3
			h-1.5v3.1l-1.5-0.4v-0.6l-1.5-1.9l-3-1.5l-3,0.9l-1.5,1.5l4.5,0.7l-1.5,1.3l-3,3l-1.5-3l-1.5-1.6l-1.5,1.3l-3,1.8l-1.5-1.5
			l-1.5-0.3l-4.5,1.8l-4.5,3l-1.5-1.5h-1.5l-3,1.5l-3,1.5l-1.5-1.5l-3-1.5l-4.5,1.5l-4.5,3h-7.5l-1.5,1.5l-3,1.5v-1.5h1.5v-1.5h-1.5
			l-3,1.5l-1.5,1.5l-3,1.5h-3l-1.5,1.5l-4.5,1.5l-4.5,1.5h-1.5v3l-1.5-1.5h-1.5l-6,7.5l-1.5,1.5l-3,3h-3l1.5,1.5v1.5h-3l-3,1.5
			l-1.5,1.5l-3,1.5l-4.5,3l-4.5,1.5l1.5,1.5l1.5,1.5l1.5,3v4.5h3l1.5-1.5l7.5,4.5l1.5,7.5l-1.5,3v3h-4.5l-3-3l-4.5,1.5l-4.5,1.5
			l-3-3l-7.5-3l-1.5,1.5v7.5l-3,3h-3l-3,1.5l-1.5,1.5l-3,3l-4.5,1.5l-3-1.5v1.5l-1.5,1.5l-1.5,1.5h-1.5l-1.5,3v1.5l-1.5,1.5
			l-1.5,1.5l1.5,3l1.5,1.5h1.5l1.5,1.5l1.5,3h1.5l3,1.5v3l3,4.5l1.5,3l-3,1.5l-1.5,1.5l-10.5,12l-7.5,10.5l1.5,1.5l1.5,1.5l-1.5,3v3
			l9,6l9,3v1.5l-1.5,1.5l3,6l3,4.5h4.5l3,1.5l1.5,6h4.5l3-1.5h4.5l4.5,1.5h6l4.5-3l4.5,1.5h7.5l3-3l4.5-3l-1.5-3l3-3l1.5-1.5l3-1.5
			h4.5v-1.5l6-3h1.5l3-1.5l3-3l1.5-1.5l3-1.5h3l1.5,1.5l4.5-1.5l4.5-1.5h3l1.5,1.5h7.5l1.5,7.5l1.5,9l6-1.5h6l6,1.5l4.5,1.5h1.5
			l1.5-1.5h1.5l1.5-1.5v-4.5l1.5-1.5l3-1.5l15-17.9l1.5,1.5l3,3l3-1.5h3v1.5l1.5,1.5l1.5-4.5v-6l3-9l3-9h-3V177l-1.5-1.5h1.5V174
			l3,3l7.5-4.5l7.5-4.5l-1.5-1.5v-6l-4.5-1.5l-4.5-1.5v-3l-4.5,1.5l-4.5-1.5l-7.5-4.5l-9-4.5l-1.5,4.5l-6,1.5l-3-3l-1.5-1.5
			l-1.5,4.5v1.5h-3v3l-1.5-1.5l1.3-1.5h-5.8l0.5,1.6l1,2.9l-3,1.5l-1.5,1.5l1.5-3l1.5-1.5v-1.5l-1.5-3h1.5l9-4.5l-1.5-1.5v-1.5h6
			l6-4.5l3-9l-1.5-9l-3-9h-4.5l-6-1.5l-1.5-4.5l1.5-3h-1.5l-1.5-1.5l3-1.5l1.5,1.5v-6l3,4.5l1.5,4.5h3l1.5-1.5h1.5l3,6l1.5-1.5
			l1.5-1.5l3-7.5l3-4.5l3-1.5l4.5-1.5l4.5,3l3,1.5l6-1.5l4.5-3l1.5-1.5l1.5-1.5l4.5,1.5l4.5-1.5v-3l-1.5-1.5v-1.5l3,3l1.5,1.5l1.5-3
			l-3-3h1.5l1.5-1.5v-1.5h-3l-3,1.5l-1.5-1.5l-1.5-1.5v1.5h-1.5l1.5-3v-6l-1.5-1.5l-1.5-1.5l-3-1.5h-7.5l3-1.5l3-1.5l3-2.5l1.5-3.3
			v-1l-3,0.4l-3-1l3-1l4.5-2.7l-3-1.9l-1.5-1.5v-8.5l-1.5,0.4l-1.5,1.2l-1.5,0.3l-1.5,0.1l-4.5,1.2l-3,1l-7.5,0.1h-4.5l-3,3.7
			l-1.5,3.7l-1.5,1.2v0.3l1.5,1.2v1.2l-3-0.9l-1.5-1.5L1460.5,53.3z"/>
		<path class="st1" d="M1230.2,661.5h-4.5l-3-1.5h-1.5l-4.5-4.5l-1.5-1.5h-3l-3,1.5l-3-1.5h-3l-1.5,3l-1.5,1.5h-1.5l-6,3l-1.5,1.5
			l-1.5,4.5l-1.5,3v6l1.5,1.5l3,3v3l1.5,3l1.5,1.5l1.5,1.5l3,1.5l3-1.5h1.5l9-4.5h3l1.5-3v-3l3-1.5l3-3h3l3-6l4.5-3h6l4.5-3l-1.5-3
			l-1.5-3l-3,1.5h-6L1230.2,661.5z"/>
		<path class="st1" d="M775.6,619.6h-3l-7.5,3l-4.5-1.5l-1.5,1.5h-3v-1.5h-1.5l-1.5,1.5h-4.5l-1.5,3l-1.5,4.5l-3,1.5l-3,1.5
			l-7.5,10.5l-10.5,6l-10.5-1.5l-9-3l-1.5-3l-3-1.5l-4.5,1.5l-4.5,1.5v7.5h-6l-6-1.5V660l1.5,1.5h1.5v6l3,1.5v3h-3l-4.5,3l1.5,1.5
			h1.5v1.5l1.5,3l6-1.5h6v-3l1.5-3l7.5,1.5l3-1.5l3-1.5h6v-1.5l1.5-1.5h1.5v1.5h1.5v1.5h1.5l3-1.5v3l1.5,3h6l7.5,1.5l1.5,4.5l1.5,6
			l6,1.5l6,1.5h1.5l1.5-1.5l7.5,3h3l4.5,1.5l1.5,1.5l1.5,1.5l10.5-6l1.5-4.5l1.5-4.5h-1.5l-1.5-3V675l-1.5-1.5l3-7.5l4.5-6h1.5
			l1.5-1.5l3-3l1.5-3v-3l-1.5-1.5v-3l1.5-1.5v-7.5h1.5v-3l-1.5-1.5h-6l-7.5-6L775.6,619.6z"/>
		<path class="st1" d="M1412.7,672l-3,1.5h-3v3l-1.5,6l-1.5,6l1.5,1.5h1.5v-6l1.5-6l3-3l1.5-1.5V672z M1421.7,682.4v-3l-1.5,1.5
			l-1.5,1.5H1421.7z M1432.1,642.1l-1.5-3h-1.5l-1.5,4.5l-1.5,3h-6v1.5l1.5,1.5l-1.5,3l-1.5,3v3l-1.5,3v3l-1.5,3l1.5,1.5l1.5-7.5
			l1.5-1.5l1.5-1.5v-3l3-3l1.5-4.5l3-3L1432.1,642.1z M1442.6,616.7l-1.5,1.5l-3,7.5v1.5l-1.5,1.5l3,1.5l3-10.5V616.7z
			 M1454.6,594.2l-1.5-4.5v4.5l-1.5,3v1.5L1454.6,594.2z M1456,573.3v3l1.5-1.5v-1.5H1456z M1457.5,550.8l-1.5-3l1.5,1.5V550.8z
			 M1456,532.9l1.5,3v1.5l1.5-1.5l-1.5-4.5L1456,532.9z M1462,504.5v-3h-1.5l-1.5,3H1462z M1457.5,513.5l-3,6l1.5,1.5l3-3l1.5-4.5
			V509l-1.5-3l-1.5-1.5l-1.5,1.5l1.5,3V513.5z M1333.4,588.2l-7.5-9l-6-7.5l-4.5-6v1.5h-1.5v-3l-3-1.5l-3-3l-1.5-7.5l-3-9h-1.5l-3-3
			l-1.5-3h1.5l1.5,1.5v1.5h1.5l-6-7.5l-4.5-6v-3l-4.5-3l-1.5-1.5v3h-1.5l-1.5,1.5l3,1.5l4.5,3v1.5h1.5v3h-1.5v1.5l1.5,1.5l-1.5,4.5
			l-1.5-1.5h-1.5l-3,1.5v3l1.5,3l1.5,1.5l3,10.5l3,10.5l6,4.5l7.5,6l1.5,4.5v6l3,3l1.5,3l9,26.9v1.5l6,4.5l3,6l1.5,4.5v6l3,3l1.5,3
			l3,12l6,9l1.5-1.5v-3l-1.5-7.5l1.5-6l1.5,1.5l4.5-1.5l3,1.5l3,1.5l1.5,3l1.5,1.5l-3-7.5l-3-6l-1.5,1.5l-3-1.5l-3-1.5l-3-3l-6-4.5
			l-4.5-7.5l-1.5-9v-7.5l-1.5-3v-3l1.5-1.5l1.5-3l7.5-1.5l7.5,3l3,1.5l1.5,1.5l-3-3l-4.5-3l-3-3l-1.5-3L1333.4,588.2L1333.4,588.2z"
			/>
		<path class="st1" d="M1170.4,546.4l3-3l1.5-4.5h-3l-1.5-1.5l-3-1.5l-1.5,1.5l-3,1.5h-1.5l-1.5-1.5l-4.5,3l-6-1.5l-3,3h-4.5
			l-1.5,1.5v1.5l-3,1.5l-3,3v1.5l-1.5,1.5l-4.5-1.5l-4.5-1.5v1.5h-6l-1.5,3v1.5l-3-1.5h-1.5l-3,1.5l-4.5,3h-3l-3-1.5h-4.5l-4.5,1.5
			l-7.5-1.5l-3-3l-3-3l-7.5-1.5h-9l-1.5-1.5l-3-1.5h-6l-3-1.5l-3-1.5l-3-1.5l-6,1.5l-6,3v6h1.5v3l1.5,1.5l3,1.5l3,1.5l-1.5,1.5h-1.5
			v3l3,3h1.5v-1.5l3-1.5l4.5-1.5l3,4.5l1.5,4.5h1.5l3-1.5l3,7.5l-3,7.5l1.5,1.5h1.5l4.5,3l-1.5,1.5l-1.5,1.5v4.5l-1.5,3l4.5,4.5
			l3,4.5h7.5l3-1.5l3-1.5h1.5l1.5-1.5l3,1.5l3,1.5l1.5-1.5l4.5,3l4.5,1.5v-1.5h9l1.5,1.5v1.5h1.5l1.5,1.5h1.5v3h1.5l3,3l1.5,1.5
			l1.5,6l7.5,9h1.5v1.5l1.5,1.5v3l3,3l3,4.5l1.5,1.5l1.5,4.5h1.5l1.5,1.5v3l4.5,7.5l6-1.5l6-1.5l1.5,1.5h3v1.5h1.5l1.5-1.5l1.5,1.5
			V666h1.5v-1.5l6,4.5l10.5,1.5h1.5l1.5-3l1.5-4.5l1.5-1.5V657l-1.5-4.5v-10.5l-3-1.5h-1.5v-1.5l-1.5-1.5l-1.5,1.5h-1.5v-1.5
			l-0.7-0.7l-0.8-0.8l-1.5,1.5v-9l1.5-4.5l1.5-3v-1.5l-1.5-3l4.5-3l4.5-3v-3l1.5-3l1.5-1.5l3-1.5l3-1.5v-6l-1.5-3l7.5-1.5h6l1.5-1.5
			v-3l-1.5-3v-6l-1.5-4.5l-4.5-1.5h-1.5l-1.5,1.5l-4.5,1.5h-3l-1.5,3l-3,3l-6,3l-3,1.5l-1.5,1.5h-6l-3-4.5l-3-3h-6l-4.5-1.5v-6
			l4.5-3v-9l1.5-1.5l1.5-1.5l3-3l3-3V546.4z"/>
		<path class="st1" d="M958.1,561.3h-3l-3-3v-3l-3,1.5h-3h-4.5l-1.5-1.5l-1.5-1.5l-1.5,3l-4.5,3h-7.5l-1.5-1.5h-1.5v-1.5l-1.5-1.5
			l-3,3l-1.5,3h-1.5l-1.5-1.5l-4.5,3l-3,3l1.5,7.5h3v3l3,1.5l1.5,3h-3l-1.5,3l-1.5,12l1.5,12l4.5-16.5l3-6l4.5-1.5l-1.5,19.4
			l-3,20.9l-1.5,1.5l-0.5,0.7l-1-0.7l-0.8-1.5l-0.7-3l-1.5,3l-1.5,3h4.5v3l-1.5,3h-3l-3,4.5l-4.5,6l-17.9,7.5l-1.5,4.5l-1.5,4.5
			l-10.5,6l-6,1.5l-1.5,1.5l-4.5,4.5h-6l-1.5,1.5h-1.5v-6l-1.4-1.4l-3-3l-1.5-3v-3l-10.5-9l-1.5,1.5H831l-1.5-3l-1.5-4.5l-7.5-4.5
			l-6-4.5l-1.5-4.5l-1.5-3l-6,6l-6,4.5l-1.5-1.5h-1.5v7.5l-1.5,1.5v3l1.5,1.5v3l1.5,1.5l3,1.5l10.5,6l9,4.5h1.5l1.5,1.5l6,1.5
			l4.5,1.5v9l9,10.5l13.5,3l12-3l3-1.5h1.5l6,1.5l6,1.5h4.5l4.5,3l3,3h3l3,1.5v-6l3-4.5h3l3-3l-3-1.5l-4.5-3l3-3l3-3l-1.5-4.5l1.5-3
			h6l4.5,1.5l3-3l4.5-3h4.5l3,1.5l1.5-1.5l3-3l3-3l3-1.5l3-1.5l1.3-2.5l1.7-3.5h1.5l3,1.5l1.5-3l3-1.5l7.5-1.5l7.5-6l-3-9l-3-6l3-3
			l9-7.5l7.5-7.5l3-1.5l3-1.5h3l3-1.5v-10.5l-7.5-6l-4.5-3v-6l-1.5-3v-1.5l-1.5-3v-1.5v-3l-1.5-1.5l-1.5-1.5H982l1.5-1.5v-3l3-3h1.5
			l1.5-1.5l-7.5-1.5l-7.5,9l-7.5,3l-6-1.5L958.1,561.3z"/>
		<path class="st1" d="M705.3,585.2l-3-3l-3,1.5h-4.5l-4.5-4.5l-4.5-4.5l-1.5,1.5v7.5l-1.5,4.5l-1.5,6h4.5l3,3l-1.5,1.5l-1.5,1.5
			l1.5,3l-1.5,3h-1.5l-3,3v3l1.5,4.5l-1.5,3l1.5,3l1.5,4.5l-6,4.5l-6,3l-3,3l-3,1.5v4.5l-1.5,1.5v1.5l1.5,4.5l4.5,1.5l3-1.5l3-1.5
			l6,1.5h6v-7.5l4.5-1.5l4.5-1.5l1.5-4.5l3-3l1.5-1.5h3l3-6v-1.5l3-1.5l3-3v-1.5l-1.5-1.5l-1.5-1.5v-1.5l-1.5-1.5l3-7.5l-3-9l-1.5-9
			L705.3,585.2z"/>
		<path class="st1" d="M673.9,546.4h-10.5l-1.5,1.5l-1.5-1.5H659l-3,3l-1.5,1.5H653l-1.5-1.5l-3,1.5h-3l-1.5,3v1.5l1.5,4.5v4.5
			l1.5,1.5l-1.5,3l-1.5,3l1.5,3v3l-1.5,1.5l-1.5,3l3,3l0.3,3.1l2.7,1.3h1.5v3l1.5,1.5l1.5,1.5l1.5,1.5v4.5l1.5,3l3,1.5l1.5,1.5
			l-1.5,1.5l-1.5,3l1.5,1.5v1.5l-1.5,1.5l1.5,3v4.5l3,3l1.5,1.5h1.5l1.5-1.5l1.5,1.5l1.5,1.5h3v4.5l6-3l6-4.5l-1.5-4.5l-1.5-3l1.5-3
			l-1.5-4.5v-3l3-3h1.5l1.5-3l-1.5-3l1.5-1.5l1.5-1.5l-3-3h-4.5l1.5-6l1.5-4.5v-7.5l1.5-1.5l4.5-4.5l4.5-1.5v-1.5l-1.5-13.5
			l-1.5-1.5l-1.5-1.5l1.5-3h1.5l-1.5-1.5v-1.5h-6l-4.5,3l-3-1.5l-3-1.5L673.9,546.4L673.9,546.4z"/>
		<path class="st1" d="M569.2,507.5l-3-1.5l-3-3l-1.5,3v1.5l-1.5,3v3l-3,1.5l-1.5,3l1.5,3v3h-6l-3,1.5l-3,3h-3v3l1.5,1.5l-3,3
			l-1.5,7.5l1.5,3l1.5,4.5v1.5l-1.5,1.5l-1.5,3l-1.5,4.5h6l1.5-1.5l1.5-1.5l1.5,1.5h4.5l-3,3l-3,1.5l4.5,9l6,10.5l3-3l1.5-1.5
			l1.5,1.5v1.5l3-1.5h3l4.5,1.5h4.5l1.5-1.5l10.5-4.5l9-3v1.5l1.5,4.5l1.5,1.5v3h1.5l1.5,1.5l-1.5,1.5l6,9l4.5-4.5l7.5-4.5l1.5,3
			h1.5v-3h12l1.5-1.5l4.5-3l1.5-3l1.5-1.5v-3l-1.5-3l1.5-3l1.5-3l-1.5-1.5v-4.5l-1.5-4.5v-1.5l1.5-3H638l-1.5-1.5l-1.5,4.5l-3,1.5
			l-0.6-0.6l-0.9-0.9l-1.5-1.5l1.5-1.5l1.5-1.5v-6l1.5-1.5l-1.5-3h-4.5l-1.5,1.5v1.5l-1.5-1.5h-9l-1.5-6l-10.5-1.5l-7.5-12
			l-10.4-5.8l1.4-1.5L569.2,507.5z"/>
		<path class="st1" d="M630.6,586.7h-6v3h-1.5l-1.5-3l-7.5,4.5l-4.5,4.5l-6-9l1.5-1.5l-1.5-1.5h-1.5v-3l-1.5-1.5l-1.5-4.5v-1.5l-9,3
			l-10.5,4.5l-1.5,1.5h-4.5l-4.5-1.5h-3l-3,1.5v-1.5l-1.5-1.5l-1.5,1.5l-3,3l10.5,53.8l6-1.5v-3h3v-1.5l1.5-1.5l3,7.5l3,6l6,1.5
			l3,1.5h6v-1.5h4.5l1.5-1.5l6,4.5l3,6h4.5v-6l-3-3l-3-3l3-1.5l3,1.5l1.5-1.5l3-1.5h10.5l1.5-1.5l1.5-1.5h3l1.5-3l1.5-3l1.5,1.5
			l1.5,1.5h4.5l1.5,1.5l3-3l-1.5-3l1.5-3l4.5-1.5v-4.5l-1.5-3l1.5-1.5v-1.5l-1.5-1.5l1.5-3l1.5-1.5l-1.5-1.5l-3-1.5l-1.5-3v-4.5
			l-1.5-1.5l-1.5-1.5l-1.5-1.5v-3h-1.5l-2.7-1.3l-0.3-3.1l-3-3l-4.5,3l-1.5,1.5L630.6,586.7L630.6,586.7z"/>
		<path class="st1" d="M139,544.9l-3.1-4.5l-4.5-7.5l-2.4-1.5l-1-1.5l-2.7,1.5l-4.2,3l-2.1-1.5l-2.2,1.5h0.9l-0.3,3h-5.1l2.2,1.5
			l-0.7,4.5h0.7l0.3,1.5l0.1,1.5l2.1,1.5h1.9l-0.4,1.5l-0.1,1.5h5.1l0.7,3l-0.4,3l-3.3,1.5l-3.7,1.5l-2.5,4.5l-1.5,3h-5.4l-0.6,1.5
			l-1.6-1.5h-3.3l-3.1,1.5l-1.8,1.5l-2.2,3l3,7.5l3.9,6l1,10.5l3.3,9h3.6l3.9-1.5h5.1l4.3-3v-13.5l1.5-13.5l8.5-7.5l3.7-1.5
			l-0.6-1.5h-2.1l0.6-4.5l0.6-4.5l-2.2-7.5L139,544.9L139,544.9z"/>
		<path class="st1" d="M105.8,488l0.9-1.5l-0.4-1.5h-1.9l-1.8,1.5l-0.3-1.5l0.1-1.5h-1.5l-1-1.5l-2.5-3l-3-1.5l-0.7,3l-0.7,1.5
			l-2.7-1.5l-2.2-1.5l-1.9,3l-1.2,4.5l1.3,4.5l-0.9,3l1.2,1.5l-2.2,3l-2.4,1.5l-0.6-1.5h-0.7l0.1,6l2.4,3l1.9,4.5H87l1.9,1.5
			l-0.6,1.5h-3.4l-2.5,1.5l0.6,1.5h1.6l-1.2,1.5l-1.8,3H85l3.9,1.5l0.7,1.5l-0.3,1.5l4.2,3h3.3l2.8,3l1.6,1.5h0.7l-1.2,1.5h-1.5
			l3.7,3l0.6,4.5l3.3-1.5l2.2-1.5l0.6,1.5l1.2,1.5h2.7l0.7-4.5l-2.2-1.5h5.1l0.3-3h-0.9l2.2-1.5l2.1,1.5l4.2-3l2.7-1.5l-1.2-7.5
			l-3.4-7.5l-2.1-3l-0.9-3l1-7.5l-1.8-3l-2.2-3l-1.2-3l-1.3-4.5H105.8z"/>
		<path class="st1" d="M89.7,525.4l-0.7-1.5l-3.9-1.5h-7.6l-5.8,4.5l4,6l2.1,7.5H79l1.3,1.5l3.4-1.5l3.3-1.5l1.2,1.5l0.9,1.5
			l1.6-1.5h1.5l1.2,1.5h1.8l2.2-1.5l1.8-4.5h1.5l1.2-1.5h-0.7l-1.6-1.5l-2.8-3h-3.3l-4.2-3L89.7,525.4z"/>
		<path class="st1" d="M82.9,507.5l-2.4-3h-2.4l0.1,1.5l-5.4,3l-2.4-3l-2.4-4.5l-5.1,3l-4.9,3l5.2,10.5l8.2,9l5.8-4.5h4.2l1.8-3
			l1.2-1.5h-1.6l-0.6-1.5l2.5-1.5h3.4l0.6-1.5L87,512h-2.1L82.9,507.5z"/>
		<path class="st1" d="M91,453.6l-6.7-3l-4.6-1.5l0.7-1.5l1.9-1.5l-0.6-1.5l0.3-1.5l-1.6-1.5h-2.1v1.5l-0.4,1.5h-0.1l-1.3-1.5
			l-0.7-1.5l-2.1-1.5h-1.9l-0.9-1.5l-1-1.5v9l0.4,7.5l-0.7-1.5h-0.7l-0.1-3v-1.5l-1.9,1.5l-2.1,1.5v-1.5H65l-1-1.5l-2.8,1.5
			l-2.7,1.5h-3.3l-1.9,1.5h-2.4l-4-3l-2.5-4.5l-0.4,3l0.3,1.5l-2.5-1.5h-2.1l1.8,3l1.5,6l-1,3l0.3,3l1,1.5h1.8l0.1,4.5l-0.1,3l3.1,9
			l0.9,10.5l0.3,12h4.9l1.9,3l1.2,1.5h1l4.8-3l5.1-3l2.4,4.5l2.4,3l5.4-3l-0.1-1.5h2.4l-0.1-6h0.7l0.6,1.5l2.4-1.5l2.2-3l-1.2-1.5
			l0.9-3l-1.3-4.5l1.2-4.5l1.9-3l2.2,1.5l2.7,1.5l0.7-1.5l0.7-3l0.7-1.5l-0.1-3h0.9l0.7-1.5H94l-3.4-6l0.7-1.5l0.6-1.5l-0.6-1.5
			l-0.3-1.5h1l1.3-1.5l-0.6-3L91,453.6L91,453.6z M70.2,473.1l0.7,4.5l4.2,4.5l1.5,7.5l-1.8,1.5l-0.9,1.5l-0.7,1.5l-0.7,1.5h-2.4
			l0.6-3l0.4-3l-3.3,1.5l-1.9,3l-1.2,1.5h-1.3l-1.9,4.5l-3,1.5l-3-3l-1.8-4.5l0.6-1.5l1.5-1.5h1.2l0.6,1.5l-0.3,1.5h1.9l1.5-1.5
			l-0.4-1.5l-0.3-3l3.4-3h3.4l0.4-4.5l-1-4.5h-1.6l-1.3,3h-0.9l-2.4-3l-2.7-3l-0.7-1.5l-0.4-1.5l1.2-1.5l1.5,1.5l2.4,3l5.1,1.5
			L70.2,473.1z"/>
		<path class="st1" d="M149.6,419.3h-1.2l-1,1.5l-6.4,1.5l-6.1-1.5l-3.4-3l-4.8,4.5l-6.3-1.5l-1,1.5v3h1.2l0.9,1.5h-6.4l-0.4,1.5
			l0.4,1.5l-1.2,3l-1,1.5l-2.7,3l-3.9,1.5l-4.8-3l-4.6-4.5h-5.8l-2.7-1.5l-3.7,3l-4,3l2.5,1.5l1.3,1.5l4.3,1.5l3.3,1.5l-0.3,1.5
			h-0.9l-1.2,3l-0.9-1.5h-1.5l-2.7-1.5H82l-0.3,1.5l0.6,1.5l-1.9,1.5l-0.7,1.5l4.6,1.5l6.7,3l1.8,1.5l0.6,3l-1.3,1.5h-1l0.3,1.5
			l0.6,1.5l-0.6,1.5l-0.7,1.5l3.4,6h2.5l-0.7,1.5h-0.9l0.1,3l-0.7,1.5l3,1.5l2.5,3l5.4-1.5l4-1.5l6.4,4.5l4.6,10.5l2.7,1.5l2.2-1.5
			l0.7,1.5h0.6l1.6-1.5l1.2-3h7.6l0.3-1.5l0.3-1.5l4.2-3l2.1-4.5h-4.5l-2.5-1.5l0.9-1.5l-0.9-1.5l-1-1.5h-2.4l0.7-1.5v-1.5h-2.5
			l1.5-9l-2.2-4.5l-1.5-3l0.7-1.5h1.5l1.8-1.5l1.9-1.5l4.9,1.5l5.4-3l-0.3-4.5l-0.7-3l-0.9-1.5h-0.6l4.2-4.5l4-3l-1.5-7.5
			L149.6,419.3L149.6,419.3z"/>
		<path class="st1" d="M286.6,423.7l-3-4.5l-1.5,3l-3,4.5h-3l-1.5,1.5l-4.5-3l-3-3h-3l-3-1.5h-1.5l-3,1.5h-4.5l-3,7.5l-3,4.5v1.5
			l1.5,3v3l1.5,1.5l3,1.5v4.5h1.5v4.5l1.5,1.5l1.5,6l1.5,4.5l12-1.5l4.5-4.5l6-3l1.5-1.5h3l3-3l3-4.5l3-1.5l3-1.5l3-6l4.5-1.5l-3-3
			h-1.5v-4.5l-1.5-1.5l-3-3h-3l-3,1.5l-1.5-1.5L286.6,423.7z"/>
		<path class="st1" d="M307.5,384.9l-3,1.5l-4.5-3h-6v1.5h-4.5l-3,1.5h-7.5v1.5l-7.5,1.5v1.5l1.5,1.5l-1.5,4.5h-6l-1.5-1.5h-1.5
			l-1.5,1.5v3l6,1.5l1.5,3l3,3h7.5l1.5,3v4.5l3,4.5l3,4.5l3,3l3-1.5h3l3,3l1.5,1.5v4.5h1.5l3,3l3,4.5h1.5v1.5l-1.5,1.5v3l3,3l3-6
			l1.5-3v-1.5h3l1.5-1.5l1.5-3v-3l-1.5-1.5l1.5-1.5v-1.5l1.5,1.5l6-1.5l6-3l-1.5-3l-3-3h-1.5l-1.5-3h4.5l4.5-3l-3-1.5l-1.5,1.5v-6
			h1.5l-3-1.5l-3,1.5l1.5,1.5v1.5l-3,1.5l-1.5-1.5h-1.5v-1.5H318l-3-3l-1.5-1.5H312l3-1.5h1.5l-1.5-1.5l-3-1.5l-1.5-4.5h1.5v-1.5
			h-1.5v-3l1.5-4.5L307.5,384.9L307.5,384.9z"/>
		<path class="st1" d="M303.1,369.9v-1.5l-3-1.5l-1.5-1.5h-1.5l-1.5,1.5l-1.4-1.4l-1.6-1.6h-4.5l-1.5-3l-1.5-1.5l-1.5-1.5l-4.5-3
			l-4.5-1.5l-1.5,1.5l-1.5,1.5l-1.5-1.5h-1.5l-1.5,3l1.5,3h-1.5l-1.5,3l1.5,1.5l-1.5,3h4.5l1.5,1.5l7.5,1.5l1.5,4.5v1.5l1.5,1.5v3
			l1.5,4.5h3l3-1.5h4.5v-1.5h6l4.5,3l3-1.5l1.5-1.5l1.5-1.5l-1.5-1.5v-6h-1.5l-1.5-1.5l1.5-3v-1.5h-3L303.1,369.9L303.1,369.9z"/>
		<path class="st1" d="M271.7,369.9l-1.5-1.5h-4.5l-1.5,1.5l-3,1.5v4.5l1.5,3h-4.5l-3,1.5v1.5h-1.5v1.5h1.5l-1.5,6l3,4.5l4.5,3
			l1.5-1.5h1.5l1.5,1.5h6l1.5-4.5l-1.5-1.5v-1.5l7.5-1.5v-1.5h4.5l-1.5-4.5v-3l-1.5-1.5v-1.5l-1.5-4.5L271.7,369.9z"/>
		<path class="st1" d="M279.1,329.5l-3,3h-6l-6-3v1.5h-1.5l-3,1.5l-1.5,3l-3,1.5l-3-1.5l-3-1.5l-3,3l-1.5,1.5l-1.5-1.5h-1.5v3
			l-1.5,1.5v1.5h-7.5l-4.5,1.5l-4.5,3l-6,1.5v3l-1.5,1.5h1.5l3,1.5v3l-1.5,1.5l3,3l1.5,1.5h3l3,1.5l3,10.5l3,6l3-1.5l3-1.5v1.5h1.5
			l3-1.5l4.5-1.5l1.5,1.5l-1.5,1.5l1.5,1.5h3v-1.5l3-1.5h4.5l-1.5-3v-4.5l3-1.5l1.5-1.5l1.5-3l-1.5-1.5l1.5-3h1.5l-1.5-3l1.5-3h1.5
			l1.5,1.5l1.5-1.5l1.5-1.5l4.5,1.5l4.5,3l1.5-1.5l1.5-1.5l1.5-3l1.5-1.5l6,3l3-1.5l3-1.5l1.5-1.5l-4.5-6l-4.5-6l-6-1.5h-3v-3
			l-4.5-4.5L279.1,329.5z"/>
		<path class="st1" d="M225.7,319.1h-4.9l1.5-6l-1.5-4.5l-6,1.5l-4.5-4.5v-4.5l-4.4,7.4l-3,9l1.5,1.5l1.5,3l4.5,4.5l-3.1,9l4.5,6
			l6,7.5l6-1.5l4.5-3l4.5-1.5h7.5v-1.5l1.5-1.5v-3l-3-1.5l-3-1.5v-4.5h-1.5l-4.5-4.5l-1.5-3l-1.5-3H225.7z"/>
		<path class="st1" d="M185,283.1l-1.5,1.5H182l-3.1,1.5l-4.3,1.5l-2.4,5.9l-5.8,6l2.7,1.5l1.3-0.1l2.8,6l4.5,1.5l1.6,7.4l-1.5,1.5
			l-1.2,3l3.2,4.5h2.2l-0.1,1.5l0,3v1.5l1.6,1.4H182l-2.3,3.1l0.1,3h2.1l3-1.5l1.5-1.5l1.5,1.5h1.5l3.1-1.6l8.9,0.1V334l3,1.5h3
			l3.1-9l-3-3l-1.5-1.5l-1.5-3l-1.5-1.5l3-9l4.4-7.4v-4.5l-1.5-3h-1.5l-6-3l-2.9,2.9l-1.6-1.4l-8.9-3.1l-1.5-3L185,283.1z
			 M194.1,303.1h1.1H194.1z"/>
		<path class="st1" d="M170.4,301l-1.3,0.1l-2.7-1.5l-11.5,3l-1.5-1.5l-1.3-1.5l-1.3,1.5h-2.5l-2.2-4.5l-3.1-1.5l-1.3,1.5l-1,1.5
			H138l-2.5,1.5l0.9,6l1.5,7.5l-2.4,3l-1.5,1.5l3.4,6l6,1.5l6,1.5l1-1.5l0.7-1.5l2.5-1.5h3l0.6-1.5h0.4l3.4,1.5l3.6,1.5l0.7,1.5h1.2
			l1.6-1.5l0.4-1.5h3.9l2.1-1.5l1.9-0.1l1.2-3l1.5-1.5l-1.6-7.4l-4.5-1.5L170.4,301z"/>
		<path class="st1" d="M134.2,381.9l2.4-1.5l0.3-3l-1.3-3l-1.3-1.5l-9-4.5l-7-3l-1.6-1.5l-1.3-3h-5.4l-2.8-3l-5.4,9l1.9,1.5l3,3
			l0.7,3l1,3l0.1,1.5l4.9,1.5l4.8,3h-0.6l-1,6v4.5l1.9,1.5l1.9-1.5l1.8,6l3.6,6l1-1.5l1.3-1.5l1.5-3l2.2-4.5h1.5l1.5-1.5l-0.3-3
			v-4.5h2.1l1.5-3h-2.1L134.2,381.9L134.2,381.9z"/>
		<path class="st1" d="M1007.4,520.9l-4.5-1.5l-3,3l3,3l-1.5,1.5h-1.5v4.5h-1.5v1.5l1.5,10.5h3v9h-1.5l-1.5-1.5l-3,3l-1.5,1.5
			l-3-1.5H991l-7.5,1.5v3l-1.5,1.5h1.5l1.5,1.5l1.5,1.5v4.5l1.5,3v1.5l1.5,3v6l4.5,3l7.5,6v10.5l-3,1.5h-3l-3,1.5l-3,1.5l-7.5,7.5
			l-9,7.5l-1.5,1.5l-1.5,1.5l3,6l3,9l-7.5,6l-7.5,1.5l-3,1.5l-1.5,3l-3-1.5h-1.5l-1.5,3l-1.5,3l-3,1.5l-3,1.5l-3,3l-3,3l-1.5,1.5
			l-3-1.5h-4.5l-4.5,3l-3,3l-1.3-0.4l-3.1-1h-6l-1.5,3l1.5,4.5l-1,1l-1.9,1.9l-3,3l4.5,3l3,1.5l-3,3h-3l-3,4.5v6l3,3l6,6l10.5,1.5
			l10.5,1.5h1.5l1.5-1.5l1.5,1.5h3l3-1.5l4.5-3l10.5-3l10.5-3l3-6l10.5-9l7.5,1.5l6,3h6l9-1.5l7.5,4.5l10.5,1.5l3-4.5l4.5-4.5l4.5-3
			l3-3v-3h-1.5V675l3-12l3-13.5l4.5-6l3-6l-1.5-1.5l-1.5-1.5v-3l-1.5-1.5l-4.5,1.5l-1.5-4.5l1.5-3l4.5-4.5v-1.5l1.5-1.5l6-3l7.5-4.5
			l-3-4.5l-4.5-4.5l1.5-3v-4.5l1.5-1.5l1.5-1.5l-4.5-3h-1.5l-1.5-1.5l3-7.5l-3-7.5l-3,1.5h-1.5l-1.5-4.5l-3-4.5l-4.5,1.5l-3,1.5v1.5
			h-1.5l-3-3v-3h1.5l1.5-1.5l-3-1.5l-3-1.5l-1.5-1.5v-3h-1.5v-6l-4.5-6l-1.5-6h-1.5l-1.5,1.5l-3-6v-9l-6,1.5L1007.4,520.9
			L1007.4,520.9z"/>
		<path class="st1" d="M1297.5,661.5h-4.5l-3-1.5v-3l1.5-3l-1.5-3l-3-3l-1.5-1.5l-6,3l-3,4.5h-3v1.5l1.5,1.5l1.5,1.5v1.5l1.5,1.5h6
			l-3,9l-6,3v6l-6,4.5l-7.5,3l-1.5-1.5l-1.5-1.5l-1.5,1.5l-1.5,1.5v-3l-1.5-1.5l-1.5,1.5l-1.5-1.5h-1.5l-3,4.5l-1.5,4.5v3l-3,3v16.5
			l-1.5,3l1.5,3l-1.5,1.5l-1.5,3l1.5,4.5l-3,3h-12l-4.5,1.5l-1.5,6l-3,1.5l-1.5,1.5l1.5,3l1.5,3l4.5,9l1.5,9l1.5,1.5v1.5l-1.5,10.5
			l-4.5,1.5l-1.5,3h1.5l1.5,1.5l1.5,3l1.5,3l1.5-3v-1.5l-1.5-1.5l-1.5-1.5h7.5v-3l1.5-6l3-4.5l-1.5-1.5l1.5-1.5h1.5v4.5l1.5-1.5
			l1.5-1.5l1.5-1.5v-1.5l1.5,4.5v3h1.5v-1.5h1.5l1.5,1.5l1.5-1.5l3,1.5l1.5,1.5v-3l1.5,1.5l3-1.5l3-3l9-9l6-10.5l1.5-1.5v-3h1.5v-6
			l1.5-4.5v-3l3-3l1.5-7.5l3-9l3-9l3-7.5l1.5-7.5l1.5-9V672l1.5-6V661.5z"/>
		<path class="st1" d="M1487.5,362l4-1.3l3.5,2.2l7.7-0.9l-2.7-2.6l-3.3,1.1l-5.1-1.8l0.7-2.2l-4.2,2.9L1487.5,362z M1507.4,354
			l3.9,0.1l1.3-0.9l4-0.4l-0.3-0.8l-9.3,0.9L1507.4,354z M1438.1,314.6h-3v17.9h1.5V328l1.5-3v-3l1.5-1.5l1.5-3L1438.1,314.6z
			 M1444.1,220.4l-1.5,1.5v4.5h-3l-1.5,1.5l-1.5,1.5l-4.5-1.5l-6-1.5h-6l-6,1.5l-1.5-9l-1.5-7.5h-7.5l-1.5-1.5h-3l-4.5,1.5l-4.5,1.5
			l-1.5-1.5h-3l-3,1.5l-1.5,1.5l-3,3l-3,1.5h-1.5l-6,3v1.5h-4.5l-3,1.5l-1.5,1.5l-3,3l1.5,3l1.5,1.5l3,6v6l3,4.5l4.5,4.5v3l1.5,3
			v1.5l1.5,3l3,3l6,3v2.9v3l1.5,1.5h1.5v4.5l1.5,1.5l1.5,3h1.5l1.5-1.5v-1.5l1.5,1.5h3v-4.5h-4.5l-3-6v-3l-1.5-1.5l-1.5-4.5l4.5-3
			l1.5-4.5h7.5l-3,3l-1.5,6l3,4.5l3,4.5v3l1.5,3h3l1.5,4.5v3l1.5,1.5l1.5,1.5l-1.5,3l-3,3v4.5l-1.5,1.5l-1.5,3v4.5l1.5,1.5l-1.5,9
			v7.5l-1.5,1.5v1.5l-1.5,6v6l1.5,1.5l1.5,1.5v1.5l-1.5,1.5v9l-1.5,6l-1.5,6l-1.5,3l-1.5,1.5v4.5l-3,1.5l-3,1.5l3,1.5l3,4.5v9
			l-1.5,7.5l3,9l4.5,9l20.9,28.4l26.9,26.9l4.5,7.5l6,6l4.5,3l1.5-7.5v-7.5l1.5-1.5l1.5-4.5l-1.5-13.5l-3-3h-1.5v-3l-1.5-3h-1.5
			l-1.5-1.5l1.5-1.5l3,1.5l4.5-10.5l3-1.5h1.5v-1.5l-7.5-6l-3-9v-7.5l4.5-7.5h1.5l1.5,1.5l3-6v-4.5l-4.5-3l-4.5-3l-4.5-10.5
			l1.5-10.5v-1.5l-1.5-1.5l1.5-3l1.5,1.5v4.5h3l1.5-4.5l-7.5-6v-1.5l-1.5,1.5l-1.5,1.5l-4.5-4.5l-3-4.5v-4.5l-1.5-4.5h-7.5l-1.5,1.5
			l1.5,1.5l-3,1.5l-3-1.5l-4.5-13.5v-9l-1.5-1.5h1.5v-1.5h-1.5v-4.5l-1.5-1.5h-1.5l-1.5-7.5l3-6l1.5-1.5l-1.5-1.5h4.5l3,1.5l1.5-4.5
			l-3-1.5v-1.5l3-6l1.5-6l1.5,1.5l6,9v-10.5l1.5-7.5l4.5-9l6-3l7.5-3l6,3h4.5l-1.5-4.5l-3-4.5l1.5-3l1.5-4.5v-7.5l1.5-1.5l-1.5-3
			h-1.5l1.5-1.5h1.5l-1.5-1.5l-1.5-1.5h1.5l1.5-4.5l-1.5-1.5h-1.5l1.5-1.5l1.5-1.5v-4.5h-1.5v-3h1.5l1.5-3v-3l1.5-1.5l-1.5-1.5v-1.5
			h-3l-3,1.5l-3-3l-1.5-1.5l-15,17.9L1444.1,220.4z"/>
		<path class="st1" d="M1320,238.3h-1.5l-3,1.5h-4.5l-1.5-6l-3-1.5h-4.5v3l-3,1.5l-1.5,4.5l-1.5,3h-1.5l-3-1.5l-1.5,1.5l-1.5,1.5
			l-4.5,1.5l-6,1.5v3h-4.5v3l1.5,3l-1.5,3l-1.5,3v4.5l3,1.5l-3,4.5v7.5l3,3l3,1.5l-1.5,3v1.5h1.5v3h-3l-1.5,4.5l-1.5,3l-1.5,1.5
			l-3,1.5v1.5l-1.5,3l-4.5-1.5l-6-3l-1.5,3l-3,3h-3l-3,1.5l3,4.5l-1.5,4.5l-1.5,1.5l-1.5-1.5l-1.5,1.5l-1.5,1.5l-3,1.5h-3l-1.5,4.5
			l-1.5,6l1.5,13.5l4.5,3l3,3v1.5l-1.5,3l1.5,1.5v3l-1.5,3v6l7.5-1.5l6-1.5l9,6l4.5,9h-1.5v3l0.8,1.5l0.7,1.5l-4.5,1.5v6l4.5,1.5h6
			l6,3l4.5,4.5v4.5l4.5-1.5h1.5l3-3l3-3h3l4.5-1.5l-1.5-1.5h-1.5v-3h1.5v-6l4.5-1.5l4.5-1.5h4.5v1.5h3v-3l4.5-3l3,1.5l3,1.5l3-1.5
			h1.5v1.5h-1.5l-3,3l-3,1.5l1.5,4.5h1.5l3-1.5l3-4.5l1.5-1.5h3l3-1.5v-4.5l1.5-3l4.5-1.5h3l1.5-1.5v-3h4.5l-1.5-1.5h1.5l1.5-1.5
			l-1.5-3l-3-1.5l-3,1.5l-1.5,1.5v1.5l-1.5,1.5h-1.5v-6h-1.5l-1.5-1.5v-1.5l1.5-1.5h-1.5v-9l3-6l1.5-7.5l-1.5-1.5v-6l1.5-3l-1.5-3
			l-1.5-3l3-6l1.5-4.5h3l1.5-1.5l6-9h4.5l3,1.5l1.5-4.5v-3l3,3l1.5,3v6l1.5,1.5l1.5,1.5v1.5l1.5,1.5l1.5-1.5l1.5-1.5l1.5,3l1.5,4.5
			l3-15l3-16.4h-1.5l-1.5-3l-1.5-1.5v-4.5h-1.5l-1.5-1.5v-6l-6-3l-3-3l-1.5-3v-1.5l-1.5-3v-3l-4.5-4.5l-3-4.5v-6l-3-6l-1.5-1.5
			l-4.5,3l-3,3h-7.5l-4.5-1.5l-4.5,3h-6l-4.5-1.5H1320z"/>
		<path class="st1" d="M916.2,180h-3v4.5h-1.5l1.5,3l4.5,3l3-1.5l1.5-3L916.2,180z M1071.7,160.5l-3-4.5l-4.5-1.5l3,3L1071.7,160.5z
			 M1056.8,126.1v-6l-1.5-1.5l-3,1.5l3,4.5v3L1056.8,126.1z M1094.2,141.1l1.5,6l1.5,1.5h3v-6L1094.2,141.1z M1119.6,159l3-6v-1.5
			l-1.5-1.5l-7.5-4.5h-7.5l-3,4.5v6l-1.5,3l-1.5,1.5l-1.5,1.5h3l3-1.5l3-1.5h4.5l7.5-1.5V159z M1109.1,102.2l1.5-1.5l-7.5-1.5
			l-6-1.5l-1.5,1.5l-3,1.5l-6-3l-4.5-1.5v1.5l1.5,1.5h-1.5l-1.5,1.5v1.5l1.5,3v1.5l1.5,1.5l-4.5-1.5l-4.5-1.5l-3-1.5h-1.5l-1.5-1.5
			v-1.5l-1.5,1.5l-1.5,3l-1.5,3l-1.5,1.5l-1.5,1.5l1.5,1.5v4.5l-1.5,3h1.5l1.5,1.5v3l1.5,3l3,3l4.5,1.5l1.5,3l1.5,1.5h7.5v-9
			l1.5,1.5l1.5,1.5l1.5-1.5l1.5-1.5l6-4.5h6l1.5-1.5l1.5-1.5l1.5-1.5l-3-1.5h-3l-6-4.5l-3-6l4.5-4.5v1.5l9,12l4.5-6l-1.5-6
			L1109.1,102.2z M1145,93.2l-1.5,1.5l-4.5-1.5l-4.5,1.5v1.5l-1.5,1.5l-3-1.5v-1.5h-4.5l-3,1.5v3l-1.5,1.5l-3-3v-1.5l-1.5,3l1.5,6
			l6,1.5l7.5,1.5l9-3l6-6v-3L1145,93.2z M1243.7,147.1l-23.9,15l-7.5,9l-6,3l-6-3l-6-3h-7.5l-6-1.5v1.5l-1.5,1.5h-3l-1.5-1.5l1.5-3
			l3-1.5l-3-3l-4.5-3l-6,1.5l-4.5,1.5l-6,12l-6,10.5h-1.5v-3l-1.5-1.5l3-1.5l1.5-1.5l-1.5-1.5v-3l3-1.5l1.5-3l-3,1.5l-7.5,4.5
			l-1.5,1.5l-1.5,1.5l-1.5-3l4.5-4.5h1.5l4.5-3l4.5-1.5l-16.4,1.5l-16.5,6h-7.5l-3,1.5l1.5,1.5l3,1.5l-1.5,4.5l-4.5,1.5l-3,7.5
			l1.5,1.5l3-1.5v3l1.5,1.5l1.5,3v3l3,1.5v3h-3v3l-1.5-1.5l-1.5-1.5h-1.5l-1.5,1.5h-3v9l-6-3l-10.5-1.5l-4.5,6l-6,4.5l-6-1.5l-4.5-3
			l-1.5-3l3-1.5l-3-1.5l-1.5,13.5l-1.5,16.4l-1.5,1.5l-1.5-1.5l-1.5-1.5v1.5h-3l-1.5-1.5v-1.5h-4.5l-3-4.5l-3-4.5h-1.5l-1.5-1.5
			l1.5-1.5l1.5-1.5l-1.5-3l-3-1.5l1.5,1.5v1.5l-1.5,1.5l-3-3l-1.5-3l-7.5-4.5l-3-1.5h4.5l3,3l3,3h4.5l3-3l-1.5-4.5l-3-3v-6l-1.5-3
			v-1.5l-3-3h-3l-9-7.5l-3,1.5l-3,1.5h-7.5l-4.5-3l-6-1.5v1.5l-1.5,1.5l-3,7.5l1.5,6v6l-3-1.5h-4.5v1.5h-3l-3,1.5l-1.5,1.5l-4.5-1.5
			l-3-1.5h-9l-3-1.5v-3l3-3l-1.5-1.5h-12l-3-1.5l-1.5,1.5h-1.5l-3-1.5h-3l-1.5,1.5l-1.5,1.5l-3,1.5l-4.5,1.5v4.5l-3-3l1.5-3
			l-1.5-4.5l-3-3v4.5l-1.5,1.5h-4.5l-4.5-3l-1.5,1.5l-1.5,4.5l-3,3l1.5,1.5h1.5v4.5l1.5,1.5l-1.5,6l1.5,6l1.5,1.5v4.5l1.5,1.5l3,1.5
			l3,3l1.5,6v6l3,6l1.5,4.5v1.5l-6,4.5l-6,4.5l-1.5,4.5v3l-1.5,1.5l-3,1.5v6l-3,4.5h-3l-4.5-1.5l-4.5,1.5l-3,3h-3l-3-1.5v1.5h-1.5
			l-1.5,3v1.5l1.5,6l3,4.5v20.9l-1.5,16.5l-4.5,3l-3,3l1.5,1.5l1.5,1.5v10.5l1.5,3v7.5l1.5,3l3,3l3,3l-1.5,3l-1.5,1.5l-3,4.5v4.5
			l-3,4.5l3,6h3l1.5,1.5l1.5,1.5l6,1.5h10.5l1.5,3l1.5,4.5l-1.5,1.5l-3,4.5l4.5,1.5l4.5,4.5l1.5,10.2l0,7.8l3,3l3,4.5l-1.5,3l-3,3
			l1.5,7.5l4.5,4.5l-3,7.5l-3,9v4.5l-1.5,1.5l-1.5,1.5v7.5l1.5,6h3l7.5-1.5l1.5-3l4.5,1.5h1.5V509h1.5h1.5h1.5h4.5l1.5-1.5l3-3v1.5
			l1.5,3l3,1.5l-1.5,4.5l7.5-7.5l6-9h3l1.5-3l1.5-4.5l3-1.5h3l4.5-4.5h6l4.5,1.5l3,3l3,1.5v3l1.5,1.5v3h7.5h7.5l1.5,3v3l1.5,3v4.5
			l1.5,3l1.5,1.5v1.5l1.5,3v9l3,6l1.5-1.5h1.5l1.5,6l4.5,6l6-3l6-1.5l3,1.5l3,1.5l3,1.5h6l3,1.5l1.5,1.5h9l7.5,1.5l3,3l3,3l7.5,1.5
			l4.5-1.5h4.5l3,1.5h3l4.5-3l3-1.5h1.5l3,1.5v-1.5l1.5-3h6v-1.5l4.5,1.5l4.5,1.5l1.5-1.5v-1.5l3-3l3-1.5v-1.5l1.5-1.5h4.5l3-3
			l1.5-7.5v-6l3-1.5l1.5-1.5v-3l-1.5-3l-3-1.5l-1.5-1.5h-3l1.5-3l3-1.5v-4.5l1.5-1.5l1.5-1.5l-4.5-3l-3-4.5h4.5l-1.5-6l1.5-4.5
			l1.5-9l1.5-3l3-3h3l7.5-3l7.5-3l1.5-1.5v-3l1.5-3l1.7,0.8l1.3,0.6h1.5l3-1.5l7.5-4.5l1.5-6v-1.5l1.5-1.5l3,3l1.5-1.5l-1.5-4.5
			l-3-3l-1.5-6l-1.5-7.5l-3-4.5l1.5-6v-1.5l1.5-1.5v-1.5l1.5-1.5v-3l3-1.5l1.5-1.5v-9l1.5-9h6l7.5,3h3l1.5-1.5l1.5,1.5l1.5,1.5
			l3-4.5l3-3h1.5l1.5,1.5l1.5-1.5l1.5-1.5l1.5,1.5l3,3l1.5-4.5v-10.5l1.5-3v-3l-1.5-1.5l1.5-3v-1.5l-3-3l-4.5-3l-1.5-13.5l1.5-6
			l1.5-4.5h3l3-1.5l1.5-1.5l1.5-1.5l1.5,1.5l1.5-1.5l1.5-4.5l-3-4.5l3-1.5h3l3-3l1.5-3l6,3l4.5,1.5l1.5-3v-1.5l3-1.5l1.5-1.5l1.5-3
			l3-4.5h1.5v-3h-1.5v-1.5l1.5-3l-1.5-1.5l-4.5-3v-7.5l3-4.5l-3-1.5v-4.5l1.5-3l1.5-3l-1.5-3v-3h4.5v-3l6-1.5l4.5-1.5l1.5-1.5
			l1.5-1.5l3,1.5h1.5l1.5-3l1.5-4.5l3-1.5v-3l-3-4.5l-3-6l1.5-1.5v-1.5l-9-3l-9-6v-3l1.5-3l-1.5-1.5l-1.5-1.5l7.5-10.5l10.5-12
			l1.5-1.5l3-1.5l-1.5-3l-3-4.5v-3l-3-1.5h-1.5l-1.5-3l-1.5-1.5h-1.5l-1.5-1.5l-1.5-3l-1.5,3v3h-1.5V159h-1.5v7.5l-1.5-3l-3-3
			l-4.5,1.5h-6l-1.5-4.5l-3-6L1243.7,147.1L1243.7,147.1z M1097.1,209.9l3,1.5l3-1.5v-1.5l-1.5-1.5l-3,1.5L1097.1,209.9z"/>
		<path class="st1" d="M687.4,194.9l1.5,3h4.5v-9L687.4,194.9z M723.3,144.1h1.5v1.5l1.5,1.5l1.5-6l-1.5-1.5v1.5L723.3,144.1z
			 M910.2,129.1l1.5,1.5v1.5l3,1.5l-1.5-4.5l-1.5-1.5L910.2,129.1z M813,117.2h4.5l3-4.5h-3l-1.5,1.5l-1.5,1.5L813,117.2z
			 M811.5,42.3l1.5-4.3l-3-3l-4.5-1.5l-1.5-0.7l-3,1.8v3.9l3,1.2l1.5,1.2v3L811.5,42.3z M844.4,44.5l-4.5-7.9l-4.5,3.3l-3,4.9
			l-1.5,1.8l-1.5,0.9l1.5-1.9l1.5-1.6v-0.7l-1.5,0.7l-3,1.2l-1.5-0.3l6-3.4l1.5-5.7l-4.5-1.6l-6,0.6l-1.5,0.3v0.7h-1.5l-1.5,0.6
			l-3,2.7l1.5,1.8v1.8l-1.5,0.3l-1.5,0.1l-1.5,1.8l-1.5,2.2l-1.5,0.6v2.2l1.5,0.4v-2.4l1.5-0.4v3.7l1.5-0.1l1.5,0.6l-1.5,2.8v3
			l1.5,0.9v3.3l1.5,1.6h1.5l1.5-1.5v3h4.5l3,3l3,3l6,1.5l6-4.5l-1.5-3v-3l-1.5-2.8v-0.1l1.5-0.1l1.5-7L844.4,44.5z M877.3,85.8h-1.5
			v1.5l-1.5,1.5h1.5L877.3,85.8z M878.8,91.8h3l1.5-1.5l-1.5-1.5h-3l-1.5,1.5v1.5H878.8z M853.4,61.1v-3.6l-1.5,0.6l-1.5,1.5
			l-1.5,3.7v3l1.5,1.5h-1.5l-1.5,1.5v4.5h-1.5v-1.5l-1.5,3l-1.5,3v4.5l-3,4.5l-1.5,4.5l3,3l4.5-3l3-3h6l9-3l4.5-1.5l1.5-4.5v-4.5
			l-1.5-3h-1.5v1.5h-1.5v-3v-1.5l-1.5-1.5l-1.5-1.5v-3l-3,3l-3,4.5v1.5h-1.5v-1.5l4.5-12.4l-3-1.6l-1.5-0.1v2.7L853.4,61.1z
			 M916.2,139.6v1.5l-1.5-3v-3l-1.5-1.5h-3l-3-4.5l-3-4.5l-1.5,1.5l-1.5-1.5h-1.5v1.5h-7.5l-3,1.5l-1.5-1.5h-1.5l-1.5,1.5l-3,6h-4.5
			l3-7.5v-6h-9l1.5-1.5v-1.5l-4.5,1.5l-3-1.5l3-1.5l3-3l1.5-1.5h1.5l1.5-1.5l-3-3l-4.5-1.5l-1.5-1.5v-1.5h-3l-3,1.5h-1.5l-9,10.5
			l-6,10.5l1.5,1.5v4.5l-9,3l-1.5-1.5h-3v1.5l3,4.5l1.5,3h-3l-1.5-3l-3,1.5H828v1.5l-1.5,1.5H825v1.5h-4.5l-1.5,1.5h-1.5v-1.5
			l-1.5-1.5l-3,1.5l-1.5,1.5l1.5-3l1.5-1.5l-9-3l-9,1.5l-1.5,1.5l3,1.5h3v1.5l-3,1.5h-3l-6,1.5l-4.5,1.5h-9l-3,1.5l-6,3l-3,3h-9
			l1.5,1.5l3,1.5l-1.5,1.5l-3,1.5l-1.5,3v3l-3-3l-4.5-1.5v1.5l4.5,4.5l3,3l-1.5,1.5l-1.5-1.5l-1.5-1.5l-1.5,1.5h-3l3,3l4.5,4.5
			l-1.5,1.5v9h-1.5l-3,1.5h-1.5l1.5-1.5l1.5-1.5l1.5-1.5V186l-6-1.5l-4.5,1.5h-7.5l-9-1.5l-9-1.5h-4.5l-3-1.5v1.5l-1.5,3l-1.5,1.5
			l1.5,1.5v1.5h-1.5v3l1.5,1.5l-1.5,4.5l-1.5,3v1.5v1.5l-1.5,1.5l4.5,4.5l4.5,3v9l4.5,3l1.5,6l-3,4.5l-3,4.5l1.5,3l-1.5,13.5l-3,1.5
			l-3,1.5l4.5,10.5l1.5,6h-1.5v-1.5l-3-1.5l-1.5-1.5v-6l-1.5-3l-1.5-1.5l6-15l-1.5-3l-3-1.5l1.5-1.5v-1.5v-1.5l4.5-3l4.5-6l-4.5-3
			l-7.5-1.5l-1.5-4.5l-1.5-4.5l-4.5-6l-4.5-4.5h-4.5l1.5,3l1.5,3l3,3l3,3v4.5l-3,3h-4.5v6l3,3l3,3v7.5l-1.5,7.5h-3l-3-1.5l-3,3
			l-6,4.5h-1.5v1.5l-3,1.5v4.5l1.5,3l1.5,4.5l4.5,3l3,3h4.5l3-3l1.5,1.5v1.5l1.5,1.5l1.5,1.5l-3,17.9l-3,7.5l-6,3v3v3l2.4,1.8
			l-1.4,2.4l-2.5,1.8v1.5l1.5,1.5l1.5,4.5l1.5,7.5l-1.5,6v10.5l1.5,4.5l4.5,1.5v3v7.5l-1.5,3h-1.5l1.5,4.5h3l1.5,3l3,1.5l3-1.5
			l1.5,4.5l-1.5,9l-6,9h-3l-1.5,1.5v3l1.5,1.5l3,1.5l-1.5,3l-1.5,1.5v1.5l-1.5,3l-4.5,6l-7.5,6l1.5,10.5l6,3l3,3l-10.5,6l-12,3v19.4
			l5.8,2.9l6.2-1.4l6,1.5l4.5,1.5l3,1.5v1.5l1.5,1.5h1.5l3,3v4.5l1.5,3l4.5,1.5l3,4.5l-3,1.5l-4.5,3l-1.5,4.5v4.5l6,6l3,7.5v1.5
			h-1.5v3l-1.5,1.5h-3l-3,6l-1,2.9l-0.5,1.6v1.5l1.5,1.5h-1.5l-1.5,3l1.5,1.5l1.5,1.5l1.5,13.5v1.5l-4.5,1.5l-4.5,4.5l4.5,4.5
			l4.5,4.5h4.5l3-1.5l3,3l4.5,1.5l1.5,9l3,9l-3,7.5l1.5,1.5v1.5l1.5,1.5l1.5,1.5v1.5l-3,3l-3,1.5v1.5l-3,6h-3l-1.5,1.5l-3,3
			l-1.5,4.5l3,1.5l1.5,3l9,3l10.5,1.5l10.5-6l7.5-10.5l3-1.5l3-1.5l1.5-4.5l1.5-3h4.5l1.5-1.5h1.5v1.5h3l1.5-1.5l4.5,1.5l7.5-3
			l-3-4.5l-3-4.5l-3-1.5l-1.5-1.5v-3l4.5-3l4.5-1.5h1.5v-4.5l1.5-4.5v-3l1.5-1.5l1.5-1.5l-1.5-3l1.5-4.5l6-6l4.5-3h1.5l1.5-1.5
			l-1.5-1.5v-7.5l-1.5-3l-3-1.5l3-7.5l4.5-7.5l4.5,1.5h4.5l3,1.5h6l1.5-6l1.5-1.5h3v3l3,9l6,3v-7.5h-1.5l6-12l12-7.5v-1.5l1.5-3
			l4.5-3h3l1.5,1.5v4.5l3,1.5h1.5v3h3l1.5,1.5l1.5,1.5h1.5l3-4.5v-1.5l3-3l1.5-4.5l-3-4.5l-3-3l1.5-1.5l1.5-1.5V503h4.5v-6l-3-3
			l-4.5-1.5l-3-12l1.5-7.5v-1.5l1.5-1.5l3.3-0.3l7.2-7.2l6-7.5v-3l-1.5-1.5l1.5-3l1.5-1.5l-1.5-4.5l-1.5-3l1.5-7.5l3-7.5v-1.5l3-1.5
			l1.5,1.5l1.5,1.5l1.5-1.5l1.5-1.5l3-1.5h1.5v-6h-6l-6-1.5l-1.5-1.5l-1.5-1.5h-3l-3-6l3-4.5v-4.5l3-4.5l1.5-1.5l1.5-3l-3-3l-3-3
			l-1.5-3v-7.5l-1.5-3v-10.5l-1.5-1.5l-1.5-1.5l3-3l4.5-3l1.5-16.5v-20.9l-3-4.5l-1.5-6v-1.5l1.5-3h1.5v-1.5l3,1.5h3l3-3l4.5-1.5
			l4.5,1.5h3l3-4.5v-6l3-1.5l1.5-1.5v-3l1.5-4.5l6-4.5l6-4.5v-1.5l-1.5-4.5l-3-6v-6l-1.5-6l-3-3l-3-1.5l-1.5-1.5v-4.5l-1.5-1.5
			l-1.5-6l1.5-6l-1.5-1.5v-4.5h-1.5l-1.5-1.5l3-3l1.5-4.5l1.5-1.5v-3l1.5-1.5l-3,1.5l-1.5,1.5l-3-1.5l-4.5,3v4.5h3l4.5-1.5v1.5
			l-1.5,1.5h-1.5l-3,4.5l-3,1.5l-1.5-1.5l-1.5,3l-3,1.5v4.5l-3-1.5l-1.5-1.5v1.5h-10.5l-1.5,4.5l-4.5,4.5h-1.5l1.5-3l3-3v-3l1.5-3
			l4.5-1.5l1.5-4.5l-1.5-1.5l-3-1.5h-1.5l9,1.5l6-6h1.5l1.5-3l1.5-3l3-3l3-3l1.5-4.5l9-6V174l1.5-1.5l3-4.5l4.5-4.5l1.5-7.5l-3-1.5
			l-1.5-3v1.5l-1.5,1.5v-4.5h1.5l3,1.5v3l1.5-3v-7.5h-3v-4.5l-3-3V139.6L916.2,139.6z M807,25.8l-1.5,0.3L804,27l1.5,0.6L807,28
			l1.5,1.3l1.5,1.5l-1.5,0.1l-1.5-0.1v1l1.5,0.3l1.5,0.1l1.5,1.6l1.5,0.9l3-1l1.5-1.3l12-1.5l1.5-0.7v-8.1l3-1.8l1.5-1.8V17
			l-1.5-1.6V15l-1.5-0.7l-3-7L828,1.7l-3-0.1v2.1l-7.5,4.2l-6,4.8v2.5l1.5,0.6v1.3l-1.5,1.5v1.6l-1.5,1.6l-1.5,0.7l-1.5,0.7v1.2
			l1.5,1v0.4H807V25.8z M804,0.7l-1.5,1.9V4h1.5l3,1.3l3-3.7L804,0.7z M816,136.6l-3-1.5l1.5,3l3,1.5v-3H816z"/>
		<path class="st1" d="M313.5,474.6l1.5-4.5h-1.5l-1.5-1.5v-1.5l-1.5-1.5l-1.5-1.5v-9l0.8-2.5l0.7-2l-3-3v-3l1.5-1.5v-1.5h-1.5
			l-3-4.5l-4.5,1.5l-3,6l-3,1.5l-3,1.5l-3,4.5l-3,3h-3l-1.5,1.5l-6,3l-4.5,4.5l-12,1.5v1.5l3,4.5v3l4.5,3h7.5v7.5l4.5,1.5l3,3l1.5,3
			v3l1.5,6l1.5,6l-1.5,1.5v3l3-1.5l1.5-3l1.5,1.5h1.5v4.5l3,3l1.5,3h4.5l1.5-1.5l1.5-1.5l6,1.5l6,3l1.5,3v1.5h3l3-1.5l1.5,1.5
			l1.5,1.5h3l1.5,4.5l-1.5,3l7.5,10.5h4.5l3-3l1.5,3v1.5l10.5,4.5l9-7.5l-4.5-7.5l-4.5-6h1.5v-1.5l-1.5-3v-3h-1.5l3-4.5l3-1.5
			l-4.5-4.5l-4.5-1.5l-1.5,1.5h-1.5v-3l-1.5-1.5l-1.5,3h-3l-3,6l-6-1.5l-1.5-1.5l-3-1.5h-6l-1.5-1.5l-1.5-3H318l3-7.5l-1.5-1.5
			L318,497l3-3l3-4.5l-4.5-1.5l-3,3H315l-3-9h3v-1.5l-1.5-3V474.6z"/>
		<path class="st1" d="M218.7,419.3h-0.8l-3-1.5l-4.5-3v-1.5l-1.5-1.5l-1.5-1.5h-3l-1.5-1.5l-1.5-3l-4.5-1.5l-3-4.5l-7.3,2.9
			l-7.4,3.1l0.3,4.5l-2.1,6l0.9,6l3.6,3h4.5v1.5l1.5,1.5h3v3h1.5l1.5,1.5l1.5,4.5l-3,4.5l-3,1.5l1.5,1.5h1.5v1.5l1.5,1.5l1.5-1.5
			h1.5l1.5,1.5v3l3,1.5h3l1.5,4.5l3,6v1.5l4.5,7.5v9l7.5-3l1.5-4.5l1.5-4.5h1.5v1.5l1.5,1.5h7.5l1.5-1.5l1.5-3l12,3l3-1.5l3-1.5
			l1.5,1.5h1.5v-3l-1.5-4.5l-1.5-6l-1.5-1.5v-4.5h-1.5v-4.5l-3-1.5l-1.5-1.5v-3l-1.5-3v-3l-1.5-1.5l-9-1.5l-4.5-6l-1.5-1.5l-3-1.5
			h-3l-4.5,1.5v-3L218.7,419.3z"/>
		<path class="st1" d="M186.4,426.7v-1.5h-4.5l-3.6-3l-0.9-6l-3.3-1.5l-3.9-1.5l-1.6-1.5l-1.3-3h-1.9l-2.2,1.5l-3.6-1.5h-3.7l-0.1,3
			l0.4,3l-3.1,3l-3.3,1.5l0.3,6l1.5,7.5l-4,3l-4.2,4.5h0.6l0.9,1.5l0.7,3l0.3,4.5l-5.4,3l-4.9-1.5l-1.9,1.5l-1.8,1.5h-1.5l-0.7,1.5
			l1.5,3l2.2,4.5l-1.5,9h2.5v1.5l-0.7,1.5h2.4l1,1.5l0.9,1.5l7.3-3l5.5,3l1.9-3l1-3l2.2,1.5v3h4.5l2.5-1.5h1.9l1.2,1.5h0.3l0.3-1.5
			l1.6,1.5h6.7l4.5,1.5l0.9,3l1.5,3l3-1.5l1.5-1.5h4.5v-3l1.5-4.5l6-4.5l7.5-1.5l1.5-1.5l1.5-1.5v-1.5l-3-6l-1.5-4.5h-3l-3-1.5v-3
			l-1.5-1.5h-1.5l-1.5,1.5l-1.5-1.5v-1.5h-1.5l-1.5-1.5l3-1.5l3-4.5l-1.5-4.5l-1.5-1.5h-1.5v-3h-3L186.4,426.7z"/>
		<path class="st1" d="M508.8,433.7l-6,1.5l-1.5,1.5l-1.5,1.5h-1.5l-3-1.5h-7.5l-1.5-1.5h-1.5l-3,1.5l-1.5,3h-4.5l-4.5-1.5v1.5
			l-1.5,3v6l-3,1.5h-6v-1.5h-4.5l-3,1.5l-3,6l-1.5,7.5v1.5h1.5l-1.5,1.5h-3l-1.5,3v6l3,1.5l3,1.5v6h4.5v1.5l1.5,1.5l1.5-1.5l1.5,1.5
			l3,4.5l1.5,4.5l1.5,1.5l3,1.5h1.5l1.5,4.5l3,6h1.5v-1.5l1.5,1.5v1.5h1.5l3,1.5l3,3l1.5,3h3l1.5-1.5v-3h1.5l3-1.5l-1.5-1.5v-1.5
			h1.5l1.5-1.5l-1.5-1.5l1.5-1.5l3-1.5v-1.5l1.5-1.5h1.5v-3l1.5-1.5h1.5V492l3,1.5l4.5-1.5l-1.5-10.5V480h-4.5l-1.5-1.5l1.5-1.5
			l3-1.5v-9l4.5-3l4.5-3l1.5,1.5l1.5,3l-1.5,1.5v3h3l3,1.5l3,1.5l4.5,3l1.5-1.5h3l10.5,3l12-4.5l-3-3h-4.5l-1.5-1.5l-1.5-1.5l-4.5-3
			l-3-1.5v-7.5h-1.5l-3-3l1.5-1.5v-1.5l-1.5-1.5h-1.5l-1.5-6l-3-4.5l-1.5-1.5h-1.5l-1.5-1.5l-4.5-1.5h-4.5l-1.5-1.5l-1.5-3h-3
			l-1.5,1.5L508.8,433.7L508.8,433.7z"/>
		<path class="st1" d="M153.2,372.9v-1.5l-3.6-1.5l-4.2-1.5l0.3,1.5l-0.9,1.5v1.5h-2.2l-1.9-1.5l-1.6,3l-2.1,3l-0.3,3l-2.4,1.5
			l1.9,1.5h2.1l-1.5,3h-2.1v4.5l0.3,3l-1.5,1.5H132l-2.2,4.5l-1.5,3l-1.3,1.5l-1,1.5l1.6,9l2.7,1.5l1.2,1.5l3.4,3l6.1,1.5l6.4-1.5
			l1-1.5h1.2l3.3-1.5l3.1-3l-0.4-3l0.1-3h3.7l3.6,1.5l2.2-1.5h1.9l1.3,3l1.6,1.5l3.9,1.5l3.3,1.5l2.1-6l-0.3-4.5l-1.9-1.5l0.3-1.5
			h-2.2l-1.5-3l-1.6-3l-3.1-1.5l-2.7-1.5l0.4-1.5l0.7-3l-1.5-1.5l-1.2-1.5l-4-4.5l-3.7-3l0.4-1.5l-1.3-3h-1.8l-1.3-1.5H153.2
			L153.2,372.9z"/>
		<path class="st1" d="M169.4,278.7l-5.7-1.5l-7.9-1.5l-5.8-7.5l-6.3-7.5l-2.1-3h-3.1l-1.9,1.5l-3.3,3l-4.5,4.5h-2.8l-0.1,3l0.3,1.5
			h0.4l0.1,1.5h-1.3l-1.5,1.5l-1.3,3l-0.6,4.5l0.6,3l-0.1,1.5l-1.5,1.5l-1.8,1.5l0.9,1.5l1.6,1.5l0.4,4.5l-1.5,1.5l0.3,3l-0.6,1.5
			h3.3l1.5-1.5h5.2l5.2-1.5l2.5-1.5h2.4l1-1.5l1.3-1.5l3.1,1.5l2.2,4.5h2.5l1.3-1.5l1.3,1.5l1.5,1.5l11.5-3l5.8-6l2.4-5.9l-1.9-1.5
			l-2.2-3l-0.6-1.5L169.4,278.7z"/>
		<path class="st1" d="M199.9,248.8l-4.5-3l-1.5,1.5l-1.5,1.5l-4.5,1.5l-4.5,1.5h-1.5l-1.5-1.5l-1.3-1.5l-8.2-1.5l-8.4-3l-2.1-1.5
			l-1.9-3l-2.4,1.5l-2.1,1.5h0.1l0.7,1.5l-1.3,1.5l-1.3,1.5v3l-0.9,4.5l-7.6,6l6.3,7.5l5.8,7.5l7.9,1.5l5.7,1.5l0.4,3l0.6,1.5l2.2,3
			l1.9,1.5l4.2-1.5l3.2-1.6h1.5l1.5-1.5l3,6l8.9,3.1l1.6,1.4l2.9-2.9l3,1.5l3,1.5h1.5l1.5,3v3l4.5-6l4.5-1.5l-1.5-1.5v-7.5l1.5-3v-3
			h3l1.8-1.8l1.2-1.2l-1.5-1.5l3-1.5h3l1.5-9l-6-1.5h-4.5l-3-1.5h-1.5l-1.5-3l-3-1.5h-1.5l-1.5,1.5l-3-1.5l-1.5-1.5h-1.5
			L199.9,248.8L199.9,248.8z"/>
		<path class="st1" d="M397.3,343l-3-3l-3-4.5l-3,1.5l-2.7-1.8l-1.8-1.2l1.5-3l-3-3h-3l-9-3l-3,7.5l1.5,4.5l-3,1.5l6,6l6,4.5l-4.5,6
			l-7.5,4.5v4.5l3,3l-1.5,1.5l-1.5,4.5l-3,1.5l-1.5,3l-4.5,13.5l-6,13.5l-1.5,1.5l-1.5-1.5v1.5l-1.5,1.5h-1.5l-1.5,1.5v7.5l1.5-1.5
			h1.5l1.5,4.5l1.5,3l4.5,1.5h4.5v1.5l1.5,1.5l1.5,1.5h1.5l1.5,4.5v1.5h6l3-3l1.5-4.5v-1.5l3-1.5h7.5l3-4.5l3-3l3,3h4.5v-3l1.5-4.5
			l7.5-1.5l4.5-4.5v-6l3-4.5l-3-7.5l4.5-4.5l3-1.5l3-1.5l7.5-7.5l7.5-7.5v-3l3-6l4.5-6l-15-1.5l-9-9l-4.5,1.5l-3,1.5l-1.5-1.5h-1.5
			l-1.5,1.5h-3v-1.5h-6L397.3,343z"/>
		<path class="st1" d="M579.7,378.9l-3-4.5l-7.5,1.5l-7.5-1.5v-10.5l-3-3l-1.5-3v-4.5l1.5-3l1.5-1.5l-3-3h-1.5l-1.5-1.5V343h-3
			l-1.5,1.5h-1.5l-4.5-1.5l-3,1.5l-3,1.5l-4.5-4.5l-3-4.5l3-1.5l1.5-1.5l-3-1.5l-1.5-1.5l-4.5-3l-4.5-1.5h-1.5l-1.5,1.5l-1.5-1.5
			V325h-3l-3,1.5l-1.5-1.5h-4.5l-1.5-3l1.5-3l-4.5-1.5l-1.5-3l1.5-3h3l1.5-4.5l3-4.5v-1.5l-1.5-3v-3l-1.5-4.5l-3,1.5l-4.5,1.5v1.5
			l-3,1.5l-3,1.5l-3,1.5l-1.5-3v-1.5h-3l-3,1.5h-1.5l-1.5,1.5l-3,1.5l-1.5,1.5l-1.5,9l-6,6l-6,6l-3,6l-3,6v1.5l1.5,1.5l-1.5,3h-3
			l-1.5,4.5l-1.5,3v1.5l1.5,1.5v4.5l4.5,3l4.5,3l4.5,10.5l1.5,3l3,4.5l-3,6l-1.5,6l-1.5,3v4.5l3,1.5v3l-1.5,6l-1.5,6l4.5,3l4.5,3
			v16.4l1.5,1.5l4.5,1.5h4.5l1.5-3l3-1.5h1.5l1.5,1.5h7.5l3,1.5h1.5l1.5-1.5l1.5-1.5l6-1.5l3-4.5l1.5-1.5h3l1.5,3l1.5,1.5h4.5
			l4.5,1.5l1.5,1.5h1.5l1.5,1.5l3,4.5l1.5,6h1.5l1.5,1.5v1.5l-1.5,1.5l3,3h1.5v7.5l3,1.5l4.5,3l1.5,1.5l1.5,1.5h4.5l3,3l6-6l6-6h9
			l4.5-7.5l1.5-6l1.5-1.5h1.5l1.5-3l-1.5-3l1.5-1.5l1.5,1.5l6,1.5l6,1.5l1.5,1.5l1.5,1.5l3-1.5h3v3l3,3h6l6-1.5v3l3,3h4.5l1.5,1.5
			l3,1.5l1.5-1.5h1.5l4.5-3l3-1.5l4.5,3l4.5,1.5l12-3l10.5-6l-3-3l-6-3l-1.5-10.5l-3-6l-3-3h-6l-3-4.5l-3-4.5h-6l-4.5-4.5v-4.5H644
			l-6,3l-9,3l-3-1.5l-3-1.5h-10.5l-3-3l-1.5-6l-7.5-4.5l-6-4.5l-7.5-1.5l-3-1.5l-3-3L579.7,378.9z"/>
		<path class="st1" d="M638,455.1h-4.5l-3-3v-3l-6,1.5h-6l-3-3v-3h-3l-3,1.5l-1.5-1.5l-1.5-1.5l-6-1.5l-6-1.5l-1.5-1.5l-1.5,1.5
			l1.5,3l-1.5,3h-1.5l-1.5,1.5l-1.5,6l-4.5,7.5h-9l-6,6l-6,6v4.5h-1.5v4.5h-1.5v1.5l1.5,1.5v6l1.5,3v3l-1.5,1.5l1.5,3l1.5,1.5l3,3
			l3,1.5l17.9,6.1l-1.4,1.5l10.4,5.8l7.5,12l10.5,1.5l1.5,6h9l1.5,1.5v-1.5l1.5-1.5h4.5l1.5,3l-1.5,1.5v6l-1.5,1.5l-1.5,1.5l0.8,0.8
			l2.2,2.2l3-1.5l1.5-4.5l1.5,1.5h10.5l3-1.5l1.5,1.5h1.5l1.5-1.5l3-3h1.5l1.5,1.5l1.5-1.5h10.5l1.5-1.5l3,1.5l3,1.5l4.5-3h6
			l1.5-4.5l3-6h3l1.5-1.5v-3h1.5v-1.5l-3-7.5l-6-6v-4.5l1.5-4.5l4.5-3l3-1.5l-3-4.5l-4.5-1.5l-1.5-3V488l-3-3h-1.5l-1.5-1.5v-1.5
			l-3-1.5l-4.5-1.5l-6-1.5l-6.2,1.4l-5.8-2.9v-19.4l-4.5-1.5l-4.5-3l-3,1.5l-4.5,3H644l-1.5,1.5l-3-1.5L638,455.1z"/>
		<path class="st1" d="M902.7,413.3h-4.5v6h-1.5l-3,1.5l-1.5,1.5l-1.5,1.5l-3-3l-1.4,0.7l-1.6,0.8v1.5l-3,7.5l-1.5,7.5l1.5,3
			l1.5,4.5l-1.5,1.5l-1.5,3l1.5,1.5v3l-6,7.5l-7.2,7.2l-3.3,0.3l-1.5,1.5v1.5l-1.5,7.5l3,12l4.5,1.5l3,3v6h-4.5v1.5l-1.5,1.5
			l-1.5,1.5l3,3l3,4.5l-1.5,4.5l-3,3v1.5l-3,4.5h-1.5l-1.5-1.5l-1.5-1.5h-3v-3h-1.5l-3-1.5v-4.5l-1.5-1.5h-3l-4.5,3l-1.5,3v1.5
			l-12,7.5l-6,12h1.5v7.5l-6-3l-3-9v-3h-3l-1.5,1.5l-1.5,6h-6l-3-1.5h-4.5l-4.5-1.5l-4.5,7.5l-3,7.5l3,1.5l1.5,3v7.5l1.5,1.5
			l-1.5,1.5h-1.5l-4.5,3l-6,6l-1.5,4.5l1.5,3l-1.5,1.5l-1.5,1.5v3l-1.5,4.5v4.5h-1.5l-4.5,1.5l-4.5,3v3l1.5,1.5l3,1.5l3,4.5l3,4.5h3
			l7.5,6l7.5,6h6l1.5,1.5v3l1.5,1.5l6-4.5l6-6l1.5,3l1.5,4.5l6,4.5l7.5,4.5l1.5,4.5l1.5,3h1.5l1.5-1.5l10.5,9v3l1.5,3l1.5,1.5l3,3v6
			h1.5l1.5-1.5h6l4.5-4.5v-1.5l-10.5-3l4.5-1.5l7.5-3l-1.5-1.5l-3-1.5v-1.5l-1.5-1.5v-1.5l4.5,4.5l6,3l17.9-19.4l22.4-32.9l-1.5-12
			l1.5-12l1.5-3h3l-1.5-3l-3-1.5v-3h-3l-1.5-7.5l3-3l4.5-3l1.5,1.5h1.5l1.5-3l3-3l1.5,1.5v1.5h1.5l1.5,1.5h7.5l4.5-3l1.5-3l1.5,1.5
			l1.5,1.5h7.5l3-1.5v3l3,3h3l3-1.5l6,1.5l7.5-3l7.5-9l7.5,1.5l-1.5,1.5h-1.5l-3,3l7.5-1.5h1.5l3,1.5l1.5-1.5l3-3l1.5,1.5h1.5v-9h-3
			l-1.5-10.5v-1.5h1.5v-4.5h1.5l1.5-1.5l-3-3l3-3l4.5,1.5l3,1.5l6-1.5l-1.5-3v-1.5l-1.5-1.5l-1.5-3v-4.5l-1.5-3v-3l-1.5-3h-15v-3
			l-1.5-1.5v-3l-3-1.5l-3-3L982,485h-6l-4.5,4.5h-3l-3,1.5l-1.5,4.5l-1.5,3h-3l-6,9l-7.5,7.5l1.5-4.5l-3-1.5l-1.5-3v-1.5l-2.7,2.7
			l-1.8,1.8h-3h-6v1.5h-1.5l-4.5-1.5l-1.5,3l-7.5,1.5h-3l-1.5-6V500l1.5-1.5l1.5-1.5v-4.5l3-9l3-7.5l-4.5-4.5l-1.5-7.5l3-3l1.5-3
			l-3-4.5l-3-3v-7.5l-1.5-10.5l-4.5-4.5l-4.5-1.5l3-4.5l1.5-1.5l-1.5-4.5L902.7,413.3L902.7,413.3z"/>
		<path class="st4" d="M310.5,394.1h1.2v1h-1.2h-0.3l0.1,0.3l1.5,4.5l0,0.1l0.1,0l3,1.5l1,1H315H315l-0.1,0l-3,1.5l0.1,0.5h1.4
			l1.4,1.4l3,3l0.1,0.1h0.1h4.2v1.2v0.3h0.3h1.4l1.4,1.4l0.1,0.1l0.2-0.1l3-1.5l0.1-0.1v-0.2v-1.5v-0.1l-0.1-0.1l-1.3-1.3l2.6-1.3
			l1.9,1h-0.4h-0.3v0.3v6v0.6l0.4-0.4l1.4-1.4l2.4,1.2l-4.1,2.7H327h-0.4l0.2,0.4l1.5,3l0.1,0.1h0.2h1.4l2.9,2.9l1.4,2.7l-5.7,2.9
			l-5.8,1.5l-1.4-1.4l-0.4-0.4v0.6v1.4l-1.4,1.4l-0.2,0.2l0.2,0.2l1.4,1.4v2.8l-1.5,2.9l-1.4,1.4H315h-0.3v0.3v1.4l-1.5,2.9l0,0
			l-2.8,5.7l-2.7-2.7v-2.8l1.4-1.4l0.1-0.1v-0.1v-1.5v-0.3H309h-1.4l-2.9-4.4l0,0l0,0l-3-3l-0.1-0.1h-0.1h-1.2v-4.2v-0.1l-0.1-0.1
			l-1.5-1.5l-3-3l-0.1-0.1h-0.1h-3h-0.1l-0.1,0l-2.8,1.4l-2.8-2.8l-3-4.5l0,0l-2.9-4.4v-4.4v-0.1l0-0.1l-1.5-3l-0.1-0.1h-0.2h-7.4
			l-2.9-2.9l-1.5-3l-0.1-0.1l-0.1,0l-5.8-1.4v-2.7l1.4-1.3h1.3l1.4,1.4l0.1,0.1h0.1h6h0.2l0.1-0.2l1.5-4.5l0-0.1l-0.1-0.1l-1.4-1.4
			v-1.2l7.3-1.5l0.2,0v-0.2v-1.2h7.2h0.1l0.1,0l2.9-1.5h4.4h0.3v-0.3v-1.2h5.7l4.4,2.9l0.1,0.1l0.1-0.1l2.9-1.4l4.2,1.4l-1.4,4.3
			l0,0v0v3v0.3H310.5z"/>
		<circle class="st5" cx="297" cy="414" r="5"/>
		<defs>
			<filter id="Adobe_OpacityMaskFilter" filterUnits="userSpaceOnUse" x="345.9" y="444.2" width="68.3" height="80.3">
				<feColorMatrix  type="matrix" values="1 0 0 0 0  0 1 0 0 0  0 0 1 0 0  0 0 0 1 0"/>
			</filter>
		</defs>
		<mask maskUnits="userSpaceOnUse" x="345.9" y="444.2" width="68.3" height="80.3" id="path-87-inside-1_1104_6603_1_">
			<path class="st6" d="M385.3,446.2v4.5l-3,6l1.5,1.5l1.5,1.5h-6l-1.5,1.5h-1.5l-3-1.5l-1.5,3l-1.5,1.5h-1.5v-3l-1.5-1.5l-3,1.5v-3
				l1.5-3l-4.5-3l-4.5,1.5l-1.5,1.5v1.5h-1.5v1.5l3,10.5v1.5h6v1.5l1.5,1.5l9-1.5l7.5,1.5l-3,4.5l-4.5,4.5l-1.5,3l-1.5-1.5l-1.5-1.5
				h-1.5l-3,1.5h-3l-4.5,7.5l-4.5,7.5l-1.5,1.5l-3,3v3h-1.5v1.5l1.5,1.5v3h1.5l1.5-1.5l4.5,1.5l4.5,4.5l-3,1.5l-3,4.5h1.5l6,1.5
				l6-1.5l1.5-4.5v-3l1.5-1.5h1.5l1.5-1.5h1.5l6,3l4.5,3l-3-6l-3-4.5l3-3h3l-3-1.5l-3-3h1.5l1.5-1.5l1.5-1.5l-1.5-1.5h6v1.5l1.5,1.5
				l4.5,1.5l3,1.5v1.5l1.5,1.5l1.5-1.5h4.5l4.5,1.5V503v-1.5l-1.5-3l3-1.5v-3l-4.5-3l-6-4.5l3-3l1.5-1.5l1.5-3v-1.5h1.5l1.5-1.5h3
				l1.5-6v-7.5l-1.5-3v-1.5l-1.5-1.5l-3-1.5h-1.5l-1.5,1.5l-7.5-4.5l-7.5-6v-1.5h-3L385.3,446.2L385.3,446.2z"/>
		</mask>
		<path class="st7" d="M385.3,446.2v4.5l-3,6l1.5,1.5l1.5,1.5h-6l-1.5,1.5h-1.5l-3-1.5l-1.5,3l-1.5,1.5h-1.5v-3l-1.5-1.5l-3,1.5v-3
			l1.5-3l-4.5-3l-4.5,1.5l-1.5,1.5v1.5h-1.5v1.5l3,10.5v1.5h6v1.5l1.5,1.5l9-1.5l7.5,1.5l-3,4.5l-4.5,4.5l-1.5,3l-1.5-1.5l-1.5-1.5
			h-1.5l-3,1.5h-3l-4.5,7.5l-4.5,7.5l-1.5,1.5l-3,3v3h-1.5v1.5l1.5,1.5v3h1.5l1.5-1.5l4.5,1.5l4.5,4.5l-3,1.5l-3,4.5h1.5l6,1.5
			l6-1.5l1.5-4.5v-3l1.5-1.5h1.5l1.5-1.5h1.5l6,3l4.5,3l-3-6l-3-4.5l3-3h3l-3-1.5l-3-3h1.5l1.5-1.5l1.5-1.5l-1.5-1.5h6v1.5l1.5,1.5
			l4.5,1.5l3,1.5v1.5l1.5,1.5l1.5-1.5h4.5l4.5,1.5V503v-1.5l-1.5-3l3-1.5v-3l-4.5-3l-6-4.5l3-3l1.5-1.5l1.5-3v-1.5h1.5l1.5-1.5h3
			l1.5-6v-7.5l-1.5-3v-1.5l-1.5-1.5l-3-1.5h-1.5l-1.5,1.5l-7.5-4.5l-7.5-6v-1.5h-3L385.3,446.2L385.3,446.2z"/>
		<circle class="st5" cx="387" cy="484" r="5"/>
		<path class="st4" d="M569.6,508.2L569.6,508.2L569.6,508.2l17.6,6l-1.1,1.3l-0.2,0.2l0.3,0.2l10.4,5.8l7.4,11.9l0.1,0.1l0.1,0
			l10.3,1.5l1.5,5.8l0,0.2h0.2h8.9l1.4,1.4l0.4,0.4v-0.6V541l1.3-1.3h4.2l1.3,2.7l-1.4,1.4l-0.1,0.1v0.1v5.9l-1.4,1.4l-1.5,1.5
			l-0.2,0.2l0.2,0.2l1.5,1.5l0,0l0.9,0.9v0l0.6,0.6l0.1,0.1l0.2-0.1l3-1.5l0.1,0l0-0.1l1.4-4.1l1.2,1.2l0.1,0.1h0.1h7.1l-1.3,2.6
			l0,0.1v0.1v1.5v0l0,0l1.5,4.4v4.4v0.1l0.1,0.1l1.4,1.4l-1.4,2.8l-1.5,3l-0.1,0.1l0.1,0.1l1.5,2.9v2.8l-1.4,1.4l0,0l0,0l-1.5,2.9
			l-4.4,3l0,0l0,0l-1.4,1.4h-11.9h-0.3v0.3v2.7h-1.1l-1.4-2.9l-0.1-0.2l-0.2,0.1l-7.5,4.5l0,0l0,0l-4.3,4.3l-5.7-8.5l1.3-1.4
			l0.2-0.2l-0.2-0.2l-1.5-1.5l-0.1-0.1h-0.1h-1.2v-2.7v-0.1l-0.1-0.1l-1.5-1.5l-1.5-4.4v-1.5v-0.3l-0.3,0.1l-9,3l0,0l0,0l-10.5,4.5
			l0,0l0,0l-1.4,1.4h-4.3l-4.4-1.5l0,0h0h-3h-0.1l-0.1,0l-2.6,1.3v-1.1v-0.1l-0.1-0.1l-1.5-1.5l-0.2-0.2l-0.2,0.2l-1.5,1.5l0.2,0.2
			l-0.2-0.2l-2.8,2.8l-5.8-10.2l-4.4-8.7l2.8-1.4l0,0l0,0l3-3l0.4-0.4h-0.6h-4.4l-1.4-1.4l-0.2-0.2l-0.2,0.2l-1.5,1.5l0,0l-1.4,1.4
			h-5.5l1.4-4.1l1.5-2.9l1.5-1.5l0.1-0.1v-0.1v-1.5v0l0,0l-1.5-4.5l0,0l0,0l-1.5-2.9l1.5-7.3l2.9-2.9l0.2-0.2l-0.2-0.2l-1.4-1.4
			v-2.6h2.7h0.1l0.1-0.1l3-3l2.9-1.5h5.9h0.3v-0.3v-3v-0.1l0-0.1l-1.4-2.9l1.4-2.8l2.9-1.5l0.1-0.1v-0.2V511l1.5-2.9l0-0.1V508v-1.4
			l1.3-2.6l2.7,2.7l0,0l0,0L569.6,508.2z"/>
		<circle class="st5" cx="587" cy="551" r="5"/>
		<defs>
			<filter id="Adobe_OpacityMaskFilter_1_" filterUnits="userSpaceOnUse" x="308.5" y="421.7" width="78" height="95.3">
				<feColorMatrix  type="matrix" values="1 0 0 0 0  0 1 0 0 0  0 0 1 0 0  0 0 0 1 0"/>
			</filter>
		</defs>
		<mask maskUnits="userSpaceOnUse" x="308.5" y="421.7" width="78" height="95.3" id="path-91-inside-2_1104_6603_1_">
			<path class="st8" d="M359.9,426.8l-1.5-1.5v-1.5h-4.5l-4.5-1.5l-4.5,1.5l-4.5,1.5l-3,1.5l-3-1.5l-6,3l-6,1.5l-1.5-1.5v1.5
				l-1.5,1.5l1.5,1.5v3l-1.5,3l-1.5,1.5h-3v1.5l-1.5,3l-3,6l-1.5,4.5v9l1.5,1.5l1.5,1.5v1.5l1.5,1.5h1.5l-1.5,4.5v3l1.5,3v1.5h-3
				l1.5,4.5l1.5,4.5h1.5l3-3l4.5,1.5l-3,4.5l-3,3l1.5,1.5l1.5,1.5l-3,7.5h1.5l1.5,3l1.5,1.5h6l3,1.5l1.5,1.5l6,1.5l3-6h3l1.5-3V506
				h1.5v-3l3-3l1.5-1.5l4.5-7.5l4.5-7.5h3l3-1.5h1.5l1.5,1.5l1.5,1.5l1.5-3l4.5-4.5l3-4.5l-7.5-1.5l-9,1.5l-1.5-1.5v-1.5h-6v-1.5
				l-3-10.5v-1.5h1.5v-1.5l1.5-1.5l4.5-1.5l4.5,3l-1.5,3v3l3-1.5l1.5,1.5v3h1.5l1.5-1.5l1.5-3l3,1.5h1.5l1.5-1.5h6l-1.5-1.5
				l-1.5-1.5l3-6v-4.5h-1.5l-4.5-3l-6-3l-1.5-1.5h-1.5v-4.5h-6v-1.5l-1.5-4.5h-1.5L359.9,426.8z"/>
		</mask>
		<path class="st9" d="M359.9,426.8l-1.5-1.5v-1.5h-4.5l-4.5-1.5l-4.5,1.5l-4.5,1.5l-3,1.5l-3-1.5l-6,3l-6,1.5l-1.5-1.5v1.5
			l-1.5,1.5l1.5,1.5v3l-1.5,3l-1.5,1.5h-3v1.5l-1.5,3l-3,6l-1.5,4.5v9l1.5,1.5l1.5,1.5v1.5l1.5,1.5h1.5l-1.5,4.5v3l1.5,3v1.5h-3
			l1.5,4.5l1.5,4.5h1.5l3-3l4.5,1.5l-3,4.5l-3,3l1.5,1.5l1.5,1.5l-3,7.5h1.5l1.5,3l1.5,1.5h6l3,1.5l1.5,1.5l6,1.5l3-6h3l1.5-3V506
			h1.5v-3l3-3l1.5-1.5l4.5-7.5l4.5-7.5h3l3-1.5h1.5l1.5,1.5l1.5,1.5l1.5-3l4.5-4.5l3-4.5l-7.5-1.5l-9,1.5l-1.5-1.5v-1.5h-6v-1.5
			l-3-10.5v-1.5h1.5v-1.5l1.5-1.5l4.5-1.5l4.5,3l-1.5,3v3l3-1.5l1.5,1.5v3h1.5l1.5-1.5l1.5-3l3,1.5h1.5l1.5-1.5h6l-1.5-1.5l-1.5-1.5
			l3-6v-4.5h-1.5l-4.5-3l-6-3l-1.5-1.5h-1.5v-4.5h-6v-1.5l-1.5-4.5h-1.5L359.9,426.8z"/>
		<circle class="st5" cx="341" cy="465" r="5"/>
		<path class="st4" d="M105.6,487.9l-0.2,0.4h0.4h8.8l1.3,4.3l0,0l0,0l1.2,3l0,0l0,0l2.2,3l1.7,2.9l-1,7.4l0,0.1l0,0.1l0.9,3l0,0
			l0,0l2.1,3l3.4,7.4l1.2,7.3l-2.5,1.4l0,0l0,0l-4,2.9l-1.9-1.4l-0.1-0.1l-0.1,0.1l-2.2,1.5l-0.7,0.5h0.8h0.6l-0.2,2.5h-4.9h-0.8
			l0.7,0.5l2.1,1.4l-0.7,4.1h-2.4l-1.1-1.4l-0.6-1.5l-0.1-0.3l-0.3,0.2l-2.2,1.5l-3,1.3l-0.6-4.2l0-0.1l-0.1-0.1l-3.2-2.5h0.8h0.1
			l0.1-0.1l1.2-1.5l0.3-0.4h-0.5h-0.7l-1.6-1.4l-2.8-3l-0.1-0.1h-0.1h-3.2l-4-2.9l0.3-1.3l0-0.1l0-0.1l-0.7-1.5l0-0.1l-0.1,0
			l-3.9-1.5l0,0h0h-3l1.6-2.6l1.2-1.5l0.3-0.4h-0.5h-1.5l-0.5-1.1l2.3-1.4h3.4h0.2l0.1-0.2l0.6-1.5l0.1-0.2l-0.1-0.1l-1.9-1.5
			l-0.1-0.1H87H85l-1.9-4.3l0,0l0,0l-2.3-2.9l-0.1-5.6H81l0.5,1.3l0.1,0.3l0.3-0.2l2.4-1.5l0,0l0,0l2.2-3l0.1-0.2l-0.1-0.2l-1.1-1.4
			l0.9-2.9l0-0.1l0-0.1l-1.3-4.4l1.2-4.4l1.8-2.7l2,1.4l0,0l0,0l2.7,1.5l0.2,0.1l0.1-0.2l0.7-1.5l0,0l0,0l0.7-2.7l2.7,1.3l2.5,2.9
			l1,1.5l0.1,0.1h0.1h1.2L102,485l0,0l0,0l0.3,1.5l0.1,0.4l0.3-0.3l1.7-1.4h1.7l0.4,1.2L105.6,487.9z"/>
		<circle class="st5" cx="105" cy="511" r="5"/>
		<path class="st4" d="M154.5,374.1l-1.1-1.2v-0.1v-1.5v-0.2l-0.2-0.1l-3.6-1.5v0l0,0l-4.1-1.5l-2.8-2.9l-0.8-2.7l4.6-1.4l1.7,1.4
			l0.3,0.3l0.1-0.4l0.4-3l0,0l0,0L149,358l0.7-1.4l0,0l0,0l0.9-2.9l6-2.9l2.4,2.8l0,0l0,0l1.9,1.5l0.1,0.1h0.1h2.8h0.2l0.1-0.2
			l0.6-1.5l1.1-1.4h2.3h0.1l0.1-0.1l1.9-1.4h2.1l1,2.8v2.9v0.3h0.3h3.2l3.2,1.4l-0.4,2.8l0,0l0,0l0.6,2.8l-6.4,4.4l0,0l0,0l-5.2,6
			l-0.1,0.1l0,0.1l1.5,8.8l-2.2,1.4l-2.7,1.4l-3.9-4.3l0,0l0,0l-3.6-2.9l0.4-1.3l0-0.1l0-0.1l-1.3-3l-0.1-0.1h-0.2H154.5z"/>
		<circle class="st5" cx="160" cy="364" r="5"/>
		<path class="st4" d="M131.7,471.8h2.3v1.2l-0.7,1.4l-0.2,0.4h0.4h2.3l1,1.4l0.8,1.4l-0.8,1.4l-0.1,0.2l0.2,0.1l2.5,1.5l0.1,0h0.1
			h4.1l-1.9,4.1l-4.1,3l-0.1,0.1l0,0.1l-0.3,1.5l0,0l-0.3,1.3h-7.4h-0.2l-0.1,0.2l-1.2,2.9l-1.5,1.4h-0.3l-0.7-1.4l-0.1-0.3
			l-0.2,0.2l-2.1,1.4l-2.5-1.4l-4.6-10.4l0-0.1l-0.1,0l-6.4-4.5l-0.1-0.1l-0.1,0l-4,1.5l-5.2,1.4l-2.4-2.9l0,0l0,0l-2.8-1.4l0.6-1.3
			l0-0.1l0-0.1l-0.1-2.7h0.6H96l0.1-0.1l0.7-1.5l0.2-0.4h-0.4h-2.4l-3.3-5.7l0.7-1.4l0,0l0,0l0.6-1.5l0-0.1l0-0.1l-0.6-1.5l-0.2-1.2
			h0.7h0.1l0.1-0.1l1.3-1.5l0.1-0.1l0-0.1l-0.6-3l0-0.1l-0.1-0.1l-1.8-1.5l0,0l0,0l-6.7-3l0,0l0,0L80,449l0.6-1.2l1.9-1.5l0.2-0.1
			l-0.1-0.2l-0.6-1.4l0.2-1.2h2.1l2.6,1.5l0.1,0h0.1h1.4l0.8,1.4l0.3,0.4l0.2-0.5l1.1-2.8h0.7h0.2l0-0.2l0.3-1.5l0-0.2l-0.2-0.1
			l-3.3-1.5l0,0l0,0l-4.3-1.5l-1.3-1.4l0,0l0,0l-2.2-1.3l3.7-2.8h0l0,0l3.6-2.9l2.5,1.4l0.1,0h0.1h5.7l4.6,4.4l0,0l0,0l4.8,3
			l0.1,0.1l0.1,0l3.9-1.5l0.1,0l0,0l2.7-3l0,0l0,0l1-1.5l0,0l0,0l1.2-3l0-0.1l0-0.1l-0.4-1.4l0.4-1.2h6.2h0.4l-0.2-0.4l-0.9-1.5
			l-0.1-0.1h-0.1h-0.9v-2.7l0.9-1.3l6.1,1.5l0.1,0l0.1-0.1l4.6-4.3l3.3,2.8l0,0l0.1,0l6.1,1.5l0.1,0l0.1,0l6.4-1.5l0.1,0l0.1-0.1
			l1-1.4h0.8l0.3,5.7v0l0,0l1.5,7.3l-3.9,2.9l0,0l0,0L143,440l-0.4,0.4h0.6h0.5l0.8,1.3l0.7,2.9l0.3,4.3l-5.2,2.9l-4.8-1.5l-0.1,0
			l-0.1,0.1l-1.9,1.5l0,0l0,0l-1.7,1.4h-1.4H130l-0.1,0.1l-0.7,1.5l-0.1,0.1l0.1,0.1l1.5,3l2.2,4.4l-1.5,8.9l0,0.3H131.7z"/>
		<circle class="st5" cx="114" cy="455" r="5"/>
		<path class="st4" d="M201.1,334v1.2l-8.6-0.1h-0.1l-0.1,0l-3,1.6H188l-1.5-1.4l-0.2-0.2l-0.2,0.2l-1.5,1.5l-2.9,1.5H180l-0.1-2.7
			l2.2-2.9h1.3h0.6l-0.5-0.4l-1.5-1.3v-1.4v0l0-3l0.1-1.5l0-0.3H182h-2.1l-3-4.3l1.1-2.8l1.5-1.5l0.1-0.1l0-0.1l-1.6-7.4l0-0.1
			l-0.1,0l-4.4-1.5l-2.8-5.9l-0.1-0.1l-0.2,0l-1.2,0.1l-2.3-1.3l5.6-5.8l0,0l0,0l2.4-5.8l4.2-1.5l0,0l0,0l3.1-1.5h1.4h0.1l0.1-0.1
			l1.3-1.2l1.4,2.7l0,0l1.5,3l0,0.1l0.1,0l8.9,3l1.5,1.4l0.2,0.2l0.2-0.2l2.8-2.8l5.8,2.9l0.1,0h0.1h1.3l1.4,2.8v4.4l-4.4,7.3l0,0
			l0,0l-3,9l0,0.1l0.1,0.1l1.4,1.4l1.5,2.9l0,0l0,0l1.5,1.5l2.9,2.9l-3,8.7h-2.8l-2.9-1.5l-0.4-0.2V334z"/>
		<circle class="st5" cx="192" cy="308" r="5"/>
	</g>
</g>
</svg>
