<svg width="480" height="531" viewBox="0 0 480 531" fill="none" xmlns="http://www.w3.org/2000/svg">
<path opacity="0.1" d="M382.846 363.061C375.649 358.879 363.654 358.879 356.257 363.061L252.299 422.011C244.902 426.193 233.106 426.193 225.709 421.812L202.519 408.269C195.322 404.087 195.322 397.116 202.519 392.934L284.886 345.535C292.083 341.353 304.278 340.955 311.875 344.54C311.875 344.54 313.474 345.336 322.471 345.336C346.461 345.336 365.853 326.018 365.853 302.12C365.853 278.221 346.461 258.903 322.471 258.903C298.48 258.903 279.088 278.221 279.088 302.12C279.088 306.7 279.088 306.7 279.088 306.7C280.288 311.48 275.29 318.849 267.893 323.031L174.73 376.603C167.533 380.786 155.538 380.786 148.34 376.603L105.558 351.709C98.3605 347.527 92.3629 337.171 92.3629 328.806L92.5629 289.971C92.5629 281.607 98.5605 271.251 105.957 267.068L201.319 212.301C208.516 208.119 220.512 208.318 227.709 212.699C227.709 212.699 232.307 215.487 243.302 215.487C267.293 215.487 286.685 196.169 286.685 172.271C286.685 148.372 267.293 129.054 243.302 129.054C219.312 129.054 199.92 148.372 199.92 172.271C199.92 175.059 199.92 175.059 199.92 175.059C200.32 178.046 194.722 183.822 187.525 188.004L106.357 234.805C99.1602 238.988 93.1626 235.602 93.1626 227.237L93.3625 189.995C93.3625 181.631 99.3601 171.275 106.757 167.093L209.716 108.74C217.113 104.558 223.11 94.4012 223.11 85.8376V10.9554C223.11 2.59092 217.113 -0.993868 209.716 3.18838L14.7941 113.719C7.39704 117.901 1.39944 128.058 1.39944 136.622L0 381.383C0 389.748 5.79768 400.104 13.1947 404.286L225.31 527.762C232.507 531.944 244.502 532.143 251.899 527.961L448.82 416.235C456.217 412.053 456.217 405.282 448.82 401.099L382.846 363.061ZM322.471 287.382C330.867 287.382 337.465 294.153 337.465 302.319C337.465 310.683 330.667 317.255 322.471 317.255C314.074 317.255 307.477 310.484 307.477 302.319C307.477 293.954 314.274 287.382 322.471 287.382ZM243.302 157.135C251.699 157.135 258.296 163.906 258.296 172.072C258.296 180.237 251.699 187.207 243.302 187.207C234.906 187.207 228.308 180.436 228.308 172.271C228.308 164.105 234.906 157.135 243.302 157.135Z" fill="#9B9B9B"/>
<path opacity="0.1" d="M270.284 1.79234C263.087 -2.38991 257.089 0.995717 257.089 9.36021V85.2381C257.089 93.6026 263.087 103.959 270.284 108.141L362.647 161.913C369.844 166.095 369.844 173.065 362.647 177.248L216.706 261.092C209.509 265.274 197.313 265.672 189.716 261.689C189.716 261.689 187.717 260.693 178.321 260.693C154.331 260.693 134.938 280.011 134.938 303.91C134.938 327.809 154.331 347.127 178.321 347.127C202.311 347.127 221.704 327.809 221.704 303.91C221.704 299.529 221.704 299.529 221.704 299.529C220.704 294.948 225.902 287.978 233.099 283.795L374.242 202.739C381.44 198.557 387.437 201.943 387.437 210.307L386.837 310.681C386.837 319.046 392.635 329.402 400.032 333.584L465.406 371.224C472.603 375.406 478.801 372.021 478.801 363.656L480 139.408C480 131.044 474.202 120.688 466.805 116.505L270.284 1.79234ZM178.521 319.046C170.124 319.046 163.527 312.274 163.527 304.109C163.527 295.944 170.324 289.173 178.521 289.173C186.918 289.173 193.515 295.944 193.515 304.109C193.515 312.274 186.718 319.046 178.521 319.046Z" fill="#DC911B"/>
</svg>
