<svg viewBox="0 0 72 60" fill="none" xmlns="http://www.w3.org/2000/svg">
<path d="M27.0007 59.7293C26.3815 60.0902 25.6185 60.0902 24.9993 59.7293L1.00074 45.7397C0.38148 45.3787 2.47814e-06 44.7116 2.41502e-06 43.9896L-3.09935e-08 16.0104C-9.41107e-08 15.2885 0.381477 14.6213 1.00074 14.2603L24.9993 0.270747C25.6185 -0.090242 26.3815 -0.0902421 27.0007 0.270747L50.9993 14.2603C51.6185 14.6213 52 15.2884 52 16.0104L52 43.9896C52 44.7116 51.6185 45.3787 50.9993 45.7397L27.0007 59.7293Z" fill="#F3F3F3"/>
<path fill-rule="evenodd" clip-rule="evenodd" d="M43.1719 45.12C43.6416 44.161 43.875 42.721 43.875 40.8H32.625C32.625 40.8 27 40.8 27 35.04V17.76C27 17.76 27 12 32.625 12H66.375C66.375 12 72 12 72 17.76V35.04C72 35.04 72 40.8 66.375 40.8H55.125C55.125 42.721 55.3584 44.161 55.8281 45.12H57.9375C58.3105 45.12 58.6681 45.2717 58.9319 45.5418C59.1956 45.8118 59.3438 46.1781 59.3438 46.56C59.3438 46.9419 59.1956 47.3082 58.9319 47.5782C58.6681 47.8483 58.3105 48 57.9375 48H41.0625C40.6895 48 40.3319 47.8483 40.0681 47.5782C39.8044 47.3082 39.6562 46.9419 39.6562 46.56C39.6562 46.1781 39.8044 45.8118 40.0681 45.5418C40.3319 45.2717 40.6895 45.12 41.0625 45.12H43.1719ZM16.6074 33.9215C17.0246 34.3092 17.677 34.2135 18.0136 33.754C18.3396 33.3089 18.2458 32.6889 17.8476 32.3071C17.0713 31.5627 16.4281 30.6813 15.9502 29.7026C15.3253 28.4231 15 27.0122 15 25.5817C15 24.1511 15.3253 22.7403 15.9502 21.4607C16.4281 20.482 17.0713 19.6007 17.8476 18.8563C18.2458 18.4744 18.3396 17.8544 18.0136 17.4094C17.677 16.9499 17.0246 16.8542 16.6074 17.2419C15.6016 18.1764 14.7714 19.2958 14.1613 20.545C13.3976 22.1088 13 23.8332 13 25.5817C13 27.3301 13.3976 29.0545 14.1613 30.6184C14.7714 31.8676 15.6016 32.9869 16.6074 33.9215ZM19.6197 30.1736C19.9789 30.6143 20.6382 30.5749 21.0134 30.1478C21.3781 29.7326 21.3335 29.1066 21.006 28.6614C20.7812 28.3558 20.5899 28.0246 20.4364 27.6735C20.1486 27.0154 19.9998 26.3024 19.9998 25.5813C19.9998 24.8602 20.1486 24.1473 20.4364 23.4891C20.5899 23.1381 20.7812 22.8068 21.006 22.5012C21.3335 22.0561 21.3781 21.43 21.0134 21.0148C20.6382 20.5877 19.9789 20.5484 19.6197 20.989C19.2094 21.4924 18.8675 22.0522 18.6046 22.6537C18.202 23.5747 17.9939 24.5723 17.9939 25.5813C17.9939 26.5903 18.202 27.588 18.6046 28.509C18.8675 29.1104 19.2094 29.6703 19.6197 30.1736ZM25 24.5577C24.4477 24.5577 24 25.0054 24 25.5577V41.987C24 42.5393 24.4477 42.987 25 42.987C25.5523 42.987 26 42.5393 26 41.987V25.5577C26 25.0054 25.5523 24.5577 25 24.5577ZM30.3804 30.1736C30.0212 30.6143 29.3619 30.5749 28.9867 30.1478C28.622 29.7326 28.6666 29.1066 28.9941 28.6614C29.2189 28.3558 29.4102 28.0246 29.5637 27.6735C29.8516 27.0154 30.0003 26.3024 30.0003 25.5813C30.0003 24.8602 29.8516 24.1473 29.5637 23.4891C29.4102 23.1381 29.2189 22.8068 28.9941 22.5012C28.6666 22.0561 28.622 21.43 28.9867 21.0148C29.3619 20.5877 30.0212 20.5484 30.3804 20.989C30.7907 21.4924 31.1327 22.0522 31.3955 22.6537C31.7981 23.5747 32.0062 24.5723 32.0062 25.5813C32.0062 26.5903 31.7981 27.588 31.3955 28.509C31.1327 29.1104 30.7907 29.6703 30.3804 30.1736ZM33.3925 33.9215C32.9753 34.3092 32.3229 34.2135 31.9863 33.754C31.6603 33.3089 31.7541 32.6889 32.1523 32.3071C32.9286 31.5627 33.5718 30.6813 34.0497 29.7026C34.6746 28.4231 34.9999 27.0122 34.9999 25.5817C34.9999 24.1511 34.6746 22.7403 34.0497 21.4607C33.5718 20.482 32.9286 19.6007 32.1523 18.8563C31.7541 18.4744 31.6603 17.8544 31.9863 17.4094C32.3229 16.9499 32.9753 16.8542 33.3925 17.2419C34.3983 18.1764 35.2285 19.2958 35.8386 20.545C36.6023 22.1088 36.9999 23.8332 36.9999 25.5817C36.9999 27.3301 36.6023 29.0545 35.8386 30.6184C35.2285 31.8676 34.3983 32.9869 33.3925 33.9215Z" fill="#DC911B"/>
</svg>
