<svg viewBox="0 0 72 60" fill="none" xmlns="http://www.w3.org/2000/svg">
<path d="M27.0007 59.7293C26.3815 60.0902 25.6185 60.0902 24.9993 59.7293L1.00074 45.7397C0.381484 45.3787 2.48509e-06 44.7116 2.42258e-06 43.9896L0 16.0104C-6.25125e-08 15.2884 0.38148 14.6213 1.00074 14.2603L24.9993 0.270742C25.6185 -0.0902468 26.3815 -0.0902475 27.0007 0.270741L50.9993 14.2603C51.6185 14.6213 52 15.2884 52 16.0104L52 43.9896C52 44.7116 51.6185 45.3787 50.9993 45.7397L27.0007 59.7293Z" fill="#F3F3F3"/>
<g clip-path="url(#clip0_1104_7101)">
<path d="M69.237 25.0392L66.159 15.8052C65.7125 14.4608 64.8537 13.2913 63.7045 12.4628C62.5554 11.6344 61.1744 11.1892 59.7578 11.1904H39.2423C37.8256 11.1892 36.4446 11.6344 35.2955 12.4628C34.1463 13.2913 33.2875 14.4608 32.841 15.8052L29.763 25.0392C28.9445 25.3817 28.2455 25.9585 27.7539 26.6971C27.2623 27.4357 27 28.3032 27 29.1904V40.4404C27 42.1009 27.909 43.5364 29.25 44.3172V49.4404C29.25 50.0372 29.4871 50.6095 29.909 51.0314C30.331 51.4534 30.9033 51.6904 31.5 51.6904H33.75C34.3467 51.6904 34.919 51.4534 35.341 51.0314C35.7629 50.6095 36 50.0372 36 49.4404V44.9404H63V49.4404C63 50.0372 63.2371 50.6095 63.659 51.0314C64.081 51.4534 64.6533 51.6904 65.25 51.6904H67.5C68.0967 51.6904 68.669 51.4534 69.091 51.0314C69.5129 50.6095 69.75 50.0372 69.75 49.4404V44.3172C70.4326 43.9257 71 43.3612 71.395 42.6806C71.79 42 71.9987 41.2273 72 40.4404V29.1904C72 28.3032 71.7377 27.4357 71.2461 26.6971C70.7545 25.9585 70.0555 25.3817 69.237 25.0392ZM39.2423 15.6904H59.7555C60.7253 15.6904 61.5848 16.3069 61.8908 17.2294L64.3793 24.6904H34.6208L37.107 17.2294C37.2563 16.7812 37.5429 16.3914 37.9261 16.1151C38.3094 15.8389 38.7698 15.6903 39.2423 15.6904ZM34.875 38.1904C34.4316 38.1903 33.9927 38.1028 33.5831 37.933C33.1735 37.7632 32.8014 37.5144 32.488 37.2008C32.1747 36.8872 31.9261 36.5149 31.7566 36.1053C31.587 35.6956 31.4999 35.2565 31.5 34.8132C31.5001 34.3698 31.5876 33.9308 31.7574 33.5213C31.9272 33.1117 32.176 32.7396 32.4896 32.4262C32.8032 32.1128 33.1755 31.8643 33.5852 31.6947C33.9948 31.5252 34.4339 31.438 34.8772 31.4382C35.7727 31.4385 36.6313 31.7945 37.2642 32.4278C37.8971 33.0612 38.2525 33.92 38.2522 34.8154C38.252 35.7108 37.896 36.5694 37.2626 37.2024C36.6293 37.8353 35.7704 38.1907 34.875 38.1904ZM64.125 38.1904C63.6816 38.1903 63.2427 38.1028 62.8331 37.933C62.4235 37.7632 62.0514 37.5144 61.738 37.2008C61.4247 36.8872 61.1761 36.5149 61.0066 36.1053C60.837 35.6956 60.7499 35.2565 60.75 34.8132C60.7501 34.3698 60.8376 33.9308 61.0074 33.5213C61.1772 33.1117 61.426 32.7396 61.7396 32.4262C62.0532 32.1128 62.4255 31.8643 62.8352 31.6947C63.2448 31.5252 63.6839 31.438 64.1273 31.4382C65.0227 31.4385 65.8813 31.7945 66.5142 32.4278C67.1471 33.0612 67.5025 33.92 67.5023 34.8154C67.5019 35.7108 67.146 36.5694 66.5126 37.2024C65.8793 37.8353 65.0204 38.1907 64.125 38.1904Z" fill="#DC911B"/>
</g>
<g clip-path="url(#clip1_1104_7101)">
<path d="M27.0176 16.2144L25.9232 12.9312C25.7644 12.4532 25.4591 12.0374 25.0505 11.7428C24.6419 11.4483 24.1509 11.29 23.6472 11.2904H16.3528C15.8491 11.29 15.3581 11.4483 14.9495 11.7428C14.5409 12.0374 14.2356 12.4532 14.0768 12.9312L12.9824 16.2144C12.6914 16.3362 12.4428 16.5413 12.2681 16.8039C12.0933 17.0665 12 17.3749 12 17.6904V21.6904C12 22.2808 12.3232 22.7912 12.8 23.0688V24.8904C12.8 25.1026 12.8843 25.3061 13.0343 25.4561C13.1843 25.6061 13.3878 25.6904 13.6 25.6904H14.4C14.6122 25.6904 14.8157 25.6061 14.9657 25.4561C15.1157 25.3061 15.2 25.1026 15.2 24.8904V23.2904H24.8V24.8904C24.8 25.1026 24.8843 25.3061 25.0343 25.4561C25.1843 25.6061 25.3878 25.6904 25.6 25.6904H26.4C26.6122 25.6904 26.8157 25.6061 26.9657 25.4561C27.1157 25.3061 27.2 25.1026 27.2 24.8904V23.0688C27.4427 22.9296 27.6445 22.7289 27.7849 22.4869C27.9254 22.2449 27.9995 21.9702 28 21.6904V17.6904C28 17.3749 27.9067 17.0665 27.7319 16.8039C27.5572 16.5413 27.3086 16.3362 27.0176 16.2144ZM16.3528 12.8904H23.6464C23.9912 12.8904 24.2968 13.1096 24.4056 13.4376L25.2904 16.0904H14.7096L15.5936 13.4376C15.6467 13.2782 15.7486 13.1396 15.8848 13.0414C16.0211 12.9432 16.1848 12.8904 16.3528 12.8904ZM14.8 20.8904C14.6424 20.8904 14.4863 20.8593 14.3407 20.7989C14.195 20.7385 14.0627 20.65 13.9513 20.5385C13.8399 20.427 13.7515 20.2947 13.6912 20.149C13.6309 20.0033 13.5999 19.8472 13.6 19.6896C13.6001 19.532 13.6312 19.3759 13.6915 19.2303C13.7519 19.0846 13.8404 18.9523 13.9519 18.8409C14.0634 18.7295 14.1957 18.6411 14.3414 18.5808C14.4871 18.5205 14.6432 18.4896 14.8008 18.4896C15.1192 18.4897 15.4245 18.6163 15.6495 18.8415C15.8745 19.0667 16.0009 19.372 16.0008 19.6904C16.0007 20.0088 15.8741 20.3141 15.6489 20.5391C15.4237 20.7641 15.1184 20.8905 14.8 20.8904ZM25.2 20.8904C25.0424 20.8904 24.8863 20.8593 24.7407 20.7989C24.595 20.7385 24.4627 20.65 24.3513 20.5385C24.2399 20.427 24.1515 20.2947 24.0912 20.149C24.0309 20.0033 23.9999 19.8472 24 19.6896C24.0001 19.532 24.0312 19.3759 24.0915 19.2303C24.1519 19.0846 24.2404 18.9523 24.3519 18.8409C24.4634 18.7295 24.5957 18.6411 24.7414 18.5808C24.8871 18.5205 25.0432 18.4896 25.2008 18.4896C25.5192 18.4897 25.8244 18.6163 26.0495 18.8415C26.2745 19.0667 26.4009 19.372 26.4008 19.6904C26.4007 20.0088 26.2741 20.3141 26.0489 20.5391C25.8237 20.7641 25.5184 20.8905 25.2 20.8904Z" fill="#DC911B"/>
</g>
<defs>
<clipPath id="clip0_1104_7101">
<rect width="45" height="45" fill="white" transform="translate(27 6.69043)"/>
</clipPath>
<clipPath id="clip1_1104_7101">
<rect width="16" height="16" fill="white" transform="translate(12 9.69043)"/>
</clipPath>
</defs>
</svg>
