<svg viewBox="0 0 73 60" fill="none" xmlns="http://www.w3.org/2000/svg">
<path d="M27.0203 59.7293C26.401 60.0902 25.6381 60.0902 25.0188 59.7293L1.02027 45.7397C0.401011 45.3787 0.0195337 44.7116 0.0195337 43.9896L0.0195312 16.0104C0.0195312 15.2885 0.401008 14.6213 1.02027 14.2603L25.0188 0.270747C25.638 -0.090242 26.401 -0.0902421 27.0203 0.270747L51.0188 14.2603C51.638 14.6213 52.0195 15.2884 52.0195 16.0104L52.0195 43.9896C52.0195 44.7116 51.638 45.3787 51.0188 45.7397L27.0203 59.7293Z" fill="#F3F3F3"/>
<path fill-rule="evenodd" clip-rule="evenodd" d="M47 5C44.8438 5 41.2406 5.82813 37.85 6.75C34.3813 7.6875 30.8844 8.79687 28.8281 9.46875C27.9684 9.75266 27.2062 10.2733 26.6291 10.9709C26.052 11.6686 25.6834 12.5148 25.5656 13.4125C23.7031 27.4031 28.025 37.7719 33.2688 44.6313C35.4925 47.5655 38.1439 50.1495 41.1344 52.2969C42.3406 53.15 43.4594 53.8031 44.4094 54.25C45.2844 54.6625 46.225 55 47 55C47.775 55 48.7125 54.6625 49.5906 54.25C50.7359 53.6933 51.8315 53.0399 52.8656 52.2969C55.8562 50.1495 58.5076 47.5656 60.7313 44.6313C65.975 37.7719 70.2969 27.4031 68.4344 13.4125C68.3168 12.5144 67.9483 11.6676 67.3712 10.9695C66.7941 10.2713 66.0318 9.75009 65.1719 9.46563C62.1869 8.48692 59.1787 7.5804 56.15 6.74688C52.7594 5.83125 49.1563 5 47 5ZM45.2813 31.5688L44.1875 20.6094C44.1459 20.2151 44.1876 19.8165 44.31 19.4395C44.4324 19.0624 44.6327 18.7153 44.8979 18.4206C45.1631 18.1259 45.4873 17.8903 45.8494 17.729C46.2116 17.5677 46.6036 17.4844 47 17.4844C47.3965 17.4844 47.7885 17.5677 48.1506 17.729C48.5128 17.8903 48.8369 18.1259 49.1021 18.4206C49.3673 18.7153 49.5676 19.0624 49.69 19.4395C49.8124 19.8165 49.8541 20.2151 49.8125 20.6094L48.7188 31.5688C48.682 31.9993 48.485 32.4004 48.1668 32.6926C47.8485 32.9849 47.4321 33.147 47 33.147C46.5679 33.147 46.1515 32.9849 45.8333 32.6926C45.515 32.4004 45.318 31.9993 45.2813 31.5688ZM47.0063 42.5C46.1775 42.5 45.3826 42.1708 44.7966 41.5847C44.2105 40.9987 43.8813 40.2038 43.8813 39.375C43.8813 38.5462 44.2105 37.7513 44.7966 37.1653C45.3826 36.5792 46.1775 36.25 47.0063 36.25C47.8351 36.25 48.6299 36.5792 49.216 37.1653C49.802 37.7513 50.1313 38.5462 50.1313 39.375C50.1313 40.2038 49.802 40.9987 49.216 41.5847C48.6299 42.1708 47.8351 42.5 47.0063 42.5Z" fill="#DC911B"/>
</svg>
