<svg width="220" height="220" viewBox="0 0 220 220" fill="none" xmlns="http://www.w3.org/2000/svg">
<path d="M110.377 9.77783L210.223 109.624L109.624 210.222L9.77836 110.376L110.377 9.77783Z" fill="white"/>
<path fill-rule="evenodd" clip-rule="evenodd" d="M110.376 9.77805L210.221 109.624L109.623 210.222L9.77707 110.377L110.376 9.77805ZM12.3845 110.38L109.62 207.615L207.614 109.621L110.379 12.3855L12.3845 110.38Z" fill="#080104"/>
<path fill-rule="evenodd" clip-rule="evenodd" d="M208.341 110.533L11.6695 111.311L11.6581 109.467L208.33 108.689L208.341 110.533Z" fill="#080104"/>
<path fill-rule="evenodd" clip-rule="evenodd" d="M217.392 109.632L110.368 2.60742L2.6072 110.368L109.631 217.393L217.392 109.632ZM110.365 0L-0.000218694 110.365L109.634 220L220 109.635L110.365 0Z" fill="#080104"/>
<path d="M144.291 69.6301C144.553 63.4513 143.118 57.3148 140.143 51.8861C137.167 46.4573 132.764 41.9434 127.41 38.8338L116.377 57.8773C118.249 58.9648 119.789 60.5434 120.83 62.4419C121.87 64.3405 122.372 66.4865 122.28 68.6474L144.291 69.6301Z" fill="#080104"/>
<path d="M93.4695 38.7601C88.1167 41.8465 83.7141 46.3414 80.7393 51.7573C77.7645 57.1731 76.3308 63.3034 76.5939 69.4834L98.6044 68.5959C98.5124 66.4347 99.0137 64.2908 100.054 62.3967C101.094 60.5027 102.634 58.9307 104.506 57.8513L93.4695 38.7601Z" fill="#080104"/>
<path d="M93.5355 97.4396C98.8953 100.538 104.998 102.112 111.181 101.991C117.365 101.87 123.393 100.058 128.613 96.7524L116.797 78.1327C114.971 79.2888 112.863 79.9224 110.7 79.9648C108.538 80.0071 106.404 79.4567 104.529 78.373L93.5355 97.4396Z" fill="#080104"/>
<path d="M117.952 67.9957C117.947 63.7953 114.539 60.3865 110.338 60.3818C106.138 60.3771 102.737 63.7783 102.741 67.9786C102.746 72.1789 106.155 75.5878 110.355 75.5925C114.556 75.5972 117.957 72.196 117.952 67.9957Z" fill="#080104"/>
<path d="M45.9032 121.197L43.3099 121.194L43.3077 119.24L45.901 119.243C46.2607 119.243 46.5536 119.168 46.7797 119.018C47.0116 118.869 47.1796 118.662 47.2837 118.4C47.3878 118.132 47.4397 117.832 47.4393 117.499C47.439 117.161 47.3835 116.848 47.2729 116.558C47.1682 116.263 47.0026 116.024 46.7761 115.842C46.5554 115.659 46.2624 115.568 45.8969 115.567L44.1216 115.565L44.1325 125.321L41.5914 125.318L41.5783 113.608L45.8947 113.613C46.7475 113.614 47.4816 113.781 48.0969 114.114C48.7122 114.447 49.1827 114.906 49.5082 115.491C49.8396 116.07 50.0057 116.735 50.0065 117.486C50.0074 118.242 49.8427 118.899 49.5127 119.456C49.1884 120.008 48.719 120.436 48.1043 120.741C47.4897 121.046 46.756 121.198 45.9032 121.197Z" fill="#080104"/>
<path d="M54.7473 115.714L52.0342 125.33L49.3452 125.327L53.2916 113.621L54.9712 113.623L54.7473 115.714ZM56.9075 125.335L54.1555 115.713L53.9008 113.622L55.6065 113.624L59.614 125.338L56.9075 125.335ZM56.9984 120.968L57.0006 122.922L51.2831 122.916L51.2809 120.962L56.9984 120.968Z" fill="#080104"/>
<path d="M69.515 123.403L69.5172 125.349L62.0506 125.341L62.0484 123.395L69.515 123.403ZM62.7707 123.395L62.7761 128.221L60.383 128.218L60.2384 123.393L62.7707 123.395ZM71.3599 123.405L71.1391 128.23L68.8069 128.228L68.8015 123.402L71.3599 123.405ZM68.19 113.638L68.1922 115.592L63.0753 115.587L63.0731 113.632L68.19 113.638ZM70.0262 113.64L70.0394 125.35L67.507 125.347L67.4938 113.637L70.0262 113.64ZM62.7685 113.632L65.3096 113.635L65.0017 118.428C64.9561 119.221 64.8786 119.921 64.769 120.526C64.6653 121.127 64.5353 121.652 64.3792 122.102C64.2289 122.553 64.0611 122.946 63.8758 123.284C63.6905 123.616 63.4936 123.906 63.285 124.152C63.0764 124.393 62.862 124.61 62.6418 124.803C62.4215 124.995 62.2042 125.175 61.9897 125.341L60.606 125.339L60.6039 123.393L61.0912 123.393C61.2361 123.265 61.3809 123.091 61.5257 122.871C61.6705 122.646 61.8036 122.349 61.925 121.979C62.0464 121.609 62.1532 121.135 62.2454 120.556C62.3376 119.977 62.4093 119.267 62.4606 118.425L62.7685 113.632Z" fill="#080104"/>
<path d="M75.0732 121.053L79.0244 113.65L81.4437 113.653L81.4568 125.363L78.9941 125.36L78.9859 118.041L75.0693 125.355L72.6065 125.353L72.5934 113.643L75.0649 113.646L75.0732 121.053Z" fill="#080104"/>
<path d="M92.3968 118.611L92.399 120.566C92.3999 121.391 92.2905 122.115 92.0707 122.737C91.8567 123.353 91.5498 123.87 91.15 124.288C90.756 124.7 90.2777 125.011 89.7152 125.219C89.1584 125.428 88.5407 125.531 87.8619 125.531C87.1831 125.53 86.5623 125.425 85.9993 125.215C85.4421 125.005 84.9602 124.694 84.5536 124.28C84.1529 123.862 83.8419 123.344 83.6207 122.727C83.3996 122.105 83.2885 121.381 83.2876 120.555L83.2854 118.601C83.2845 117.754 83.391 117.014 83.6049 116.382C83.8189 115.744 84.1287 115.213 84.5343 114.79C84.9399 114.362 85.4211 114.041 85.9778 113.827C86.5345 113.608 87.1522 113.498 87.831 113.499C88.5098 113.5 89.1278 113.611 89.685 113.831C90.2422 114.046 90.7241 114.368 91.1307 114.798C91.5372 115.222 91.8482 115.753 92.0636 116.391C92.2848 117.024 92.3958 117.764 92.3968 118.611ZM89.8666 120.563L89.8644 118.592C89.8637 118.035 89.8197 117.56 89.7322 117.169C89.6448 116.772 89.5139 116.447 89.3395 116.195C89.1652 115.943 88.9532 115.758 88.7036 115.639C88.454 115.521 88.1639 115.462 87.8332 115.462C87.5025 115.461 87.2096 115.52 86.9545 115.637C86.7051 115.755 86.4936 115.94 86.3198 116.192C86.1519 116.443 86.0246 116.768 85.938 117.164C85.8572 117.556 85.8172 118.03 85.8178 118.588L85.82 120.558C85.8206 121.094 85.8646 121.553 85.9521 121.934C86.0395 122.314 86.1704 122.625 86.3447 122.867C86.519 123.108 86.731 123.288 86.9806 123.406C87.236 123.519 87.529 123.576 87.8597 123.576C88.1846 123.577 88.4717 123.521 88.7211 123.408C88.9762 123.291 89.1878 123.111 89.3557 122.87C89.5237 122.629 89.651 122.318 89.7376 121.938C89.8242 121.557 89.8672 121.099 89.8666 120.563Z" fill="#080104"/>
<path d="M98.6418 115.763L95.9288 125.379L93.2398 125.376L97.1862 113.671L98.8657 113.672L98.6418 115.763ZM100.802 125.384L98.0501 115.763L97.7954 113.671L99.501 113.673L103.509 125.387L100.802 125.384ZM100.893 121.017L100.895 122.972L95.1777 122.965L95.1755 121.011L100.893 121.017Z" fill="#080104"/>
<path d="M107.272 113.682L107.285 125.392L104.736 125.389L104.722 113.679L107.272 113.682ZM113.442 113.689L109.508 120.593L106.697 120.59L106.346 118.361L108.13 118.363L110.362 113.685L113.442 113.689ZM110.784 125.396L108.185 120.181L109.932 118.414L113.803 125.399L110.784 125.396Z" fill="#080104"/>
<path d="M119.812 113.696L119.825 125.406L117.293 125.403L117.28 113.693L119.812 113.696ZM122.963 113.699L122.965 115.654L114.193 115.644L114.191 113.69L122.963 113.699Z" fill="#080104"/>
<path d="M126.835 121.111L130.786 113.708L133.205 113.711L133.218 125.421L130.756 125.418L130.747 118.099L126.831 125.414L124.368 125.411L124.355 113.701L126.826 113.704L126.835 121.111Z" fill="#080104"/>
<path d="M139.53 120.321L136.937 120.318L136.927 118.613L139.137 118.615C139.485 118.616 139.769 118.562 139.99 118.456C140.216 118.343 140.381 118.18 140.485 117.965C140.595 117.746 140.65 117.48 140.65 117.169C140.649 116.81 140.599 116.523 140.501 116.309C140.402 116.089 140.242 115.928 140.021 115.826C139.801 115.724 139.514 115.672 139.16 115.672L137.802 115.67L137.813 125.426L135.263 125.423L135.25 113.713L139.158 113.718C139.79 113.718 140.356 113.783 140.855 113.913C141.354 114.042 141.778 114.238 142.126 114.501C142.474 114.764 142.739 115.097 142.919 115.499C143.105 115.902 143.198 116.376 143.199 116.923C143.2 117.406 143.096 117.85 142.887 118.258C142.679 118.665 142.351 118.997 141.905 119.254C141.464 119.511 140.887 119.655 140.174 119.686L139.53 120.321ZM139.449 125.428L136.221 125.424L137.237 123.479L139.447 123.481C139.783 123.482 140.056 123.415 140.265 123.281C140.473 123.147 140.624 122.968 140.717 122.743C140.809 122.512 140.855 122.25 140.855 121.955C140.855 121.623 140.811 121.333 140.724 121.086C140.642 120.839 140.505 120.652 140.314 120.523C140.122 120.389 139.864 120.321 139.539 120.321L137.346 120.318L137.362 118.613L140.025 118.616L140.626 119.293C141.305 119.272 141.847 119.393 142.254 119.656C142.66 119.914 142.95 120.252 143.125 120.671C143.305 121.084 143.396 121.523 143.396 121.99C143.397 122.741 143.244 123.373 142.937 123.887C142.636 124.396 142.193 124.782 141.607 125.044C141.021 125.301 140.302 125.429 139.449 125.428Z" fill="#080104"/>
<path d="M152.286 118.477L152.288 120.424L147.093 120.418L147.091 118.472L152.286 118.477ZM147.808 113.727L147.821 125.437L145.271 125.434L145.258 113.724L147.808 113.727ZM154.126 113.734L154.139 125.444L151.615 125.441L151.602 113.732L154.126 113.734Z" fill="#080104"/>
<path d="M165.113 118.693L165.116 120.647C165.117 121.473 165.007 122.196 164.787 122.818C164.573 123.435 164.267 123.952 163.867 124.369C163.473 124.782 162.994 125.092 162.432 125.301C161.875 125.509 161.257 125.613 160.579 125.612C159.9 125.611 159.279 125.506 158.716 125.296C158.159 125.087 157.677 124.775 157.27 124.362C156.87 123.943 156.559 123.426 156.337 122.809C156.116 122.187 156.005 121.463 156.004 120.637L156.002 118.683C156.001 117.835 156.108 117.096 156.322 116.463C156.536 115.825 156.845 115.295 157.251 114.872C157.657 114.443 158.138 114.122 158.694 113.908C159.251 113.689 159.869 113.58 160.548 113.581C161.226 113.582 161.844 113.692 162.402 113.913C162.959 114.128 163.441 114.45 163.847 114.879C164.254 115.303 164.565 115.834 164.78 116.473C165.001 117.106 165.112 117.846 165.113 118.693ZM162.583 120.644L162.581 118.674C162.58 118.116 162.536 117.642 162.449 117.25C162.361 116.853 162.231 116.529 162.056 116.277C161.882 116.024 161.67 115.839 161.42 115.721C161.171 115.603 160.881 115.543 160.55 115.543C160.219 115.543 159.926 115.601 159.671 115.719C159.422 115.837 159.21 116.021 159.037 116.273C158.869 116.525 158.741 116.849 158.655 117.246C158.574 117.637 158.534 118.112 158.534 118.669L158.537 120.64C158.537 121.176 158.581 121.634 158.669 122.015C158.756 122.396 158.887 122.707 159.061 122.948C159.236 123.19 159.448 123.37 159.697 123.488C159.953 123.601 160.246 123.658 160.576 123.658C160.901 123.658 161.188 123.602 161.438 123.49C161.693 123.372 161.904 123.193 162.072 122.952C162.24 122.711 162.368 122.4 162.454 122.019C162.541 121.639 162.584 121.18 162.583 120.644Z" fill="#080104"/>
<path d="M53.8198 136.284L55.7768 136.286C55.7507 136.973 55.6034 137.553 55.3349 138.025C55.0664 138.494 54.6835 138.849 54.1861 139.092C53.6932 139.334 53.097 139.455 52.3976 139.454C51.8551 139.453 51.3731 139.369 50.9514 139.201C50.5298 139.029 50.1708 138.777 49.8746 138.446C49.5783 138.115 49.3537 137.707 49.2007 137.221C49.0522 136.731 48.9776 136.168 48.9769 135.532L48.9751 133.98C48.9744 133.344 49.0522 132.781 49.2086 132.291C49.3695 131.802 49.5976 131.392 49.8932 131.061C50.1932 130.727 50.5538 130.476 50.9751 130.309C51.4008 130.138 51.8804 130.053 52.414 130.053C53.1268 130.054 53.7233 130.18 54.2033 130.432C54.6833 130.684 55.0536 131.05 55.3141 131.532C55.5792 132.01 55.739 132.594 55.7936 133.285L53.8299 133.283C53.8159 132.847 53.7617 132.506 53.6673 132.259C53.5774 132.007 53.4337 131.831 53.2363 131.731C53.0389 131.626 52.7654 131.573 52.4157 131.573C52.1556 131.573 51.9315 131.616 51.7433 131.704C51.5551 131.788 51.4006 131.923 51.2797 132.112C51.1589 132.3 51.0695 132.547 51.0116 132.852C50.9581 133.158 50.9316 133.53 50.9321 133.97L50.9339 135.534C50.9343 135.965 50.9594 136.333 51.0091 136.639C51.0587 136.941 51.1375 137.188 51.2453 137.38C51.3531 137.573 51.499 137.713 51.6829 137.802C51.8713 137.89 52.109 137.934 52.3959 137.934C52.7277 137.935 52.9944 137.889 53.196 137.797C53.4022 137.705 53.5544 137.54 53.6528 137.301C53.7512 137.063 53.8068 136.724 53.8198 136.284Z" fill="#080104"/>
<path d="M63.8848 134.06L63.8865 135.586C63.8872 136.231 63.8027 136.796 63.6328 137.281C63.4675 137.762 63.2303 138.166 62.9213 138.492C62.6168 138.814 62.2472 139.057 61.8125 139.22C61.3823 139.382 60.9049 139.463 60.3803 139.463C59.8558 139.462 59.3759 139.38 58.9409 139.216C58.5103 139.053 58.1379 138.809 57.8237 138.487C57.514 138.16 57.2737 137.755 57.1027 137.274C56.9318 136.788 56.846 136.223 56.8453 135.578L56.8436 134.052C56.8428 133.391 56.9251 132.813 57.0905 132.319C57.2558 131.821 57.4952 131.407 57.8086 131.077C58.1221 130.742 58.494 130.491 58.9242 130.324C59.3544 130.153 59.8318 130.068 60.3563 130.068C60.8809 130.069 61.3585 130.155 61.7891 130.327C62.2197 130.495 62.5921 130.747 62.9063 131.082C63.2205 131.413 63.4608 131.828 63.6273 132.326C63.7982 132.821 63.884 133.398 63.8848 134.06ZM61.9295 135.584L61.9277 134.045C61.9273 133.61 61.8932 133.239 61.8256 132.934C61.758 132.624 61.6569 132.37 61.5221 132.173C61.3874 131.976 61.2236 131.832 61.0307 131.74C60.8378 131.647 60.6136 131.601 60.3581 131.601C60.1025 131.6 59.8761 131.646 59.679 131.738C59.4863 131.83 59.3228 131.974 59.1885 132.171C59.0587 132.367 58.9604 132.621 58.8935 132.93C58.831 133.236 58.8001 133.606 58.8006 134.042L58.8023 135.58C58.8028 135.999 58.8368 136.357 58.9044 136.654C58.972 136.951 59.0731 137.194 59.2078 137.383C59.3425 137.571 59.5063 137.712 59.6992 137.804C59.8966 137.892 60.1231 137.937 60.3786 137.937C60.6297 137.937 60.8516 137.893 61.0443 137.806C61.2414 137.714 61.4049 137.574 61.5347 137.386C61.6645 137.197 61.7629 136.955 61.8298 136.657C61.8967 136.36 61.9299 136.002 61.9295 135.584Z" fill="#080104"/>
<path d="M71.6767 137.83L71.6784 139.35L65.9082 139.343L65.9065 137.824L71.6767 137.83ZM66.4647 137.824L66.4689 141.592L64.6195 141.59L64.5077 137.822L66.4647 137.824ZM73.1024 137.832L72.9318 141.599L71.1294 141.597L71.1252 137.83L73.1024 137.832ZM70.6526 130.206L70.6543 131.731L66.7 131.727L66.6983 130.201L70.6526 130.206ZM72.0716 130.207L72.0819 139.35L70.1249 139.348L70.1146 130.205L72.0716 130.207ZM66.4629 130.201L68.4266 130.203L68.1887 133.945C68.1535 134.565 68.0936 135.111 68.009 135.584C67.9288 136.053 67.8284 136.463 67.7077 136.815C67.5915 137.166 67.4619 137.474 67.3187 137.737C67.1755 137.997 67.0233 138.223 66.8622 138.415C66.701 138.603 66.5353 138.773 66.3651 138.923C66.1949 139.074 66.0269 139.214 65.8612 139.343L64.7919 139.342L64.7902 137.823L65.1668 137.823C65.2787 137.723 65.3907 137.587 65.5026 137.415C65.6144 137.239 65.7173 137.007 65.8111 136.718C65.905 136.43 65.9875 136.059 66.0587 135.607C66.1299 135.155 66.1854 134.6 66.225 133.943L66.4629 130.201Z" fill="#080104"/>
<path d="M79.7468 137.839L79.7485 139.359L75.4915 139.354L75.4898 137.835L79.7468 137.839ZM76.0932 130.212L76.1035 139.355L74.133 139.353L74.1228 130.209L76.0932 130.212ZM79.1708 133.92L79.1724 135.396L75.4871 135.392L75.4854 133.916L79.1708 133.92ZM79.7248 130.216L79.7265 131.742L75.483 131.737L75.4813 130.211L79.7248 130.216Z" fill="#080104"/>
<path d="M84.2306 136.143L82.2265 136.14L82.2248 134.614L84.2288 134.617C84.5068 134.617 84.7332 134.559 84.9079 134.441C85.0871 134.324 85.2169 134.163 85.2974 133.958C85.3779 133.749 85.418 133.515 85.4177 133.255C85.4174 132.991 85.3745 132.746 85.2891 132.52C85.2081 132.29 85.0801 132.104 84.9051 131.961C84.7346 131.818 84.5081 131.747 84.2256 131.747L82.8537 131.745L82.8622 139.362L80.8985 139.36L80.8883 130.217L84.2239 130.221C84.883 130.221 85.4503 130.352 85.9258 130.612C86.4013 130.872 86.7649 131.23 87.0165 131.687C87.2725 132.139 87.4009 132.659 87.4016 133.245C87.4022 133.835 87.275 134.348 87.02 134.783C86.7694 135.214 86.4066 135.548 85.9316 135.786C85.4566 136.025 84.8896 136.143 84.2306 136.143Z" fill="#080104"/>
<path d="M91.0358 135.642L87.9227 130.225L90.3639 130.228L91.9686 133.909L93.4818 133.911L93.2013 135.644L91.0358 135.642ZM91.9433 135.335L90.2666 139.371L87.8254 139.368L90.355 134.222L91.9433 135.335ZM94.7285 130.233L94.7388 139.376L92.7818 139.374L92.7715 130.23L94.7285 130.233ZM99.4966 130.238L96.4562 135.648L94.3109 135.645L94.0265 133.912L95.5195 133.913L97.0756 130.235L99.4966 130.238ZM97.18 139.379L95.548 135.339L97.1339 134.229L99.6212 139.381L97.18 139.379Z" fill="#080104"/>
<path d="M102.375 136.025L105.428 130.245L107.298 130.247L107.308 139.39L105.405 139.388L105.398 133.673L102.372 139.384L100.469 139.382L100.458 130.239L102.368 130.241L102.375 136.025Z" fill="#080104"/>
<path d="M109.578 130.249L111.306 130.251L113.31 136.508L115.294 130.256L116.821 130.257L114.047 139.397L112.574 139.396L109.578 130.249ZM108.878 130.248L110.526 130.25L110.788 136.279L110.792 139.394L108.888 139.392L108.878 130.248ZM116.067 130.256L117.722 130.258L117.732 139.402L115.835 139.399L115.832 136.285L116.067 130.256Z" fill="#080104"/>
<path d="M126.213 134.13L126.215 135.656C126.216 136.301 126.131 136.866 125.961 137.351C125.796 137.832 125.559 138.236 125.25 138.562C124.945 138.884 124.576 139.127 124.141 139.29C123.711 139.452 123.233 139.533 122.709 139.533C122.184 139.532 121.704 139.45 121.269 139.286C120.839 139.123 120.466 138.879 120.152 138.557C119.842 138.23 119.602 137.825 119.431 137.344C119.26 136.858 119.174 136.293 119.174 135.648L119.172 134.122C119.171 133.461 119.253 132.883 119.419 132.389C119.584 131.891 119.824 131.477 120.137 131.146C120.45 130.812 120.822 130.561 121.253 130.394C121.683 130.223 122.16 130.138 122.685 130.138C123.209 130.139 123.687 130.225 124.117 130.397C124.548 130.565 124.92 130.817 125.235 131.152C125.549 131.483 125.789 131.898 125.956 132.396C126.127 132.891 126.212 133.468 126.213 134.13ZM124.258 135.654L124.256 134.115C124.256 133.68 124.222 133.309 124.154 133.004C124.086 132.694 123.985 132.44 123.851 132.243C123.716 132.046 123.552 131.902 123.359 131.809C123.166 131.717 122.942 131.671 122.686 131.671C122.431 131.67 122.205 131.716 122.007 131.808C121.815 131.9 121.651 132.044 121.517 132.241C121.387 132.437 121.289 132.691 121.222 133C121.159 133.306 121.128 133.676 121.129 134.112L121.131 135.65C121.131 136.069 121.165 136.427 121.233 136.724C121.3 137.021 121.401 137.264 121.536 137.453C121.671 137.641 121.835 137.782 122.028 137.874C122.225 137.962 122.451 138.007 122.707 138.007C122.958 138.007 123.18 137.963 123.373 137.876C123.57 137.784 123.733 137.644 123.863 137.456C123.993 137.267 124.091 137.025 124.158 136.727C124.225 136.43 124.258 136.072 124.258 135.654Z" fill="#080104"/>
<path d="M133.265 137.899L133.267 139.419L129.01 139.414L129.008 137.895L133.265 137.899ZM129.612 130.272L129.622 139.415L127.652 139.413L127.641 130.269L129.612 130.272ZM132.689 133.98L132.691 135.456L129.006 135.452L129.004 133.976L132.689 133.98ZM133.243 130.276L133.245 131.802L129.001 131.797L129 130.271L133.243 130.276Z" fill="#080104"/>
<path d="M137.651 138.526C137.65 138.25 137.749 138.02 137.946 137.836C138.143 137.647 138.41 137.553 138.746 137.554C139.082 137.554 139.349 137.649 139.546 137.837C139.744 138.022 139.843 138.252 139.843 138.528C139.843 138.805 139.745 139.035 139.548 139.219C139.351 139.403 139.084 139.495 138.748 139.494C138.412 139.494 138.145 139.402 137.947 139.217C137.75 139.033 137.651 138.802 137.651 138.526Z" fill="#080104"/>
<path d="M141.659 138.53C141.659 138.254 141.757 138.024 141.954 137.84C142.151 137.652 142.418 137.558 142.754 137.558C143.09 137.559 143.357 137.653 143.555 137.842C143.752 138.026 143.851 138.257 143.851 138.533C143.852 138.809 143.753 139.039 143.556 139.223C143.359 139.407 143.092 139.499 142.756 139.499C142.42 139.498 142.153 139.406 141.956 139.222C141.758 139.037 141.659 138.807 141.659 138.53Z" fill="#080104"/>
<path d="M145.667 138.535C145.667 138.259 145.765 138.029 145.962 137.845C146.159 137.656 146.426 137.562 146.762 137.563C147.098 137.563 147.365 137.658 147.563 137.846C147.76 138.031 147.859 138.261 147.859 138.537C147.86 138.814 147.761 139.044 147.564 139.228C147.367 139.412 147.101 139.504 146.764 139.503C146.428 139.503 146.161 139.411 145.964 139.226C145.766 139.042 145.667 138.811 145.667 138.535Z" fill="#080104"/>
<path d="M149.675 138.539C149.675 138.263 149.773 138.033 149.97 137.849C150.167 137.661 150.434 137.567 150.77 137.567C151.107 137.568 151.373 137.662 151.571 137.851C151.768 138.035 151.867 138.266 151.868 138.542C151.868 138.818 151.77 139.048 151.573 139.232C151.375 139.416 151.109 139.508 150.773 139.508C150.436 139.507 150.169 139.415 149.972 139.231C149.774 139.046 149.676 138.816 149.675 138.539Z" fill="#080104"/>
<path d="M153.683 138.544C153.683 138.268 153.782 138.038 153.979 137.854C154.176 137.665 154.442 137.571 154.779 137.572C155.115 137.572 155.382 137.667 155.579 137.855C155.777 138.04 155.876 138.27 155.876 138.546C155.876 138.823 155.778 139.053 155.581 139.237C155.384 139.421 155.117 139.513 154.781 139.512C154.444 139.512 154.178 139.42 153.98 139.235C153.783 139.051 153.684 138.82 153.683 138.544Z" fill="#080104"/>
<path d="M157.692 138.548C157.691 138.272 157.79 138.042 157.987 137.858C158.184 137.67 158.45 137.576 158.787 137.576C159.123 137.577 159.39 137.671 159.587 137.86C159.785 138.044 159.884 138.275 159.884 138.551C159.884 138.827 159.786 139.057 159.589 139.241C159.392 139.425 159.125 139.517 158.789 139.517C158.453 139.516 158.186 139.424 157.988 139.24C157.791 139.055 157.692 138.825 157.692 138.548Z" fill="#080104"/>
<path d="M161.7 138.553C161.699 138.277 161.798 138.047 161.995 137.863C162.192 137.674 162.459 137.58 162.795 137.581C163.131 137.581 163.398 137.676 163.595 137.864C163.793 138.049 163.892 138.279 163.892 138.555C163.892 138.832 163.794 139.062 163.597 139.246C163.4 139.43 163.133 139.522 162.797 139.521C162.461 139.521 162.194 139.428 161.996 139.244C161.799 139.06 161.7 138.829 161.7 138.553Z" fill="#080104"/>
<path d="M165.708 138.557C165.708 138.281 165.806 138.051 166.003 137.867C166.2 137.679 166.467 137.585 166.803 137.585C167.139 137.586 167.406 137.68 167.604 137.869C167.801 138.053 167.9 138.284 167.9 138.56C167.901 138.836 167.802 139.066 167.605 139.25C167.408 139.434 167.141 139.526 166.805 139.526C166.469 139.525 166.202 139.433 166.005 139.249C165.807 139.064 165.708 138.834 165.708 138.557Z" fill="#080104"/>
<path d="M61.3647 144.7L59.3201 152.063L57.2934 152.06L60.2676 143.098L61.5334 143.099L61.3647 144.7ZM62.9929 152.067L60.9187 144.699L60.7267 143.098L62.0122 143.099L65.0327 152.069L62.9929 152.067ZM63.0613 148.723L63.063 150.219L58.7539 150.215L58.7522 148.718L63.0613 148.723Z" fill="#080104"/>
<path d="M67.8691 143.106L67.8792 152.072L65.9575 152.07L65.9474 143.104L67.8691 143.106ZM72.5192 143.111L69.5541 148.398L67.4356 148.395L67.1713 146.689L68.5159 146.691L70.1974 143.109L72.5192 143.111ZM70.5158 152.075L68.5568 148.083L69.8736 146.729L72.7916 152.078L70.5158 152.075Z" fill="#080104"/>
<path d="M77.3202 143.117L77.3303 152.083L75.4217 152.081L75.4116 143.115L77.3202 143.117ZM79.6944 143.119L79.6961 144.616L73.0849 144.608L73.0833 143.112L79.6944 143.119Z" fill="#080104"/>
<path d="M82.6129 148.794L85.5907 143.126L87.414 143.128L87.4241 152.094L85.568 152.092L85.5617 146.488L82.61 152.089L80.7539 152.087L80.7438 143.12L82.6065 143.123L82.6129 148.794Z" fill="#080104"/>
<path d="M92.1813 148.189L90.2268 148.187L90.2188 146.881L91.8847 146.883C92.1471 146.884 92.3613 146.843 92.5273 146.761C92.6978 146.675 92.8222 146.55 92.9008 146.386C92.9837 146.217 93.025 146.014 93.0247 145.776C93.0244 145.501 92.987 145.281 92.9125 145.117C92.8379 144.949 92.7176 144.825 92.5513 144.747C92.3851 144.669 92.1686 144.63 91.9019 144.629L90.8787 144.628L90.8871 152.098L88.9654 152.096L88.9553 143.13L91.9002 143.133C92.3768 143.134 92.8032 143.183 93.1793 143.282C93.5555 143.381 93.8748 143.531 94.1374 143.733C94.4 143.934 94.5992 144.189 94.7351 144.497C94.8753 144.805 94.9457 145.169 94.9462 145.587C94.9466 145.957 94.8683 146.297 94.7112 146.609C94.5542 146.921 94.3074 147.175 93.9709 147.372C93.6389 147.569 93.2039 147.679 92.6661 147.703L92.1813 148.189ZM92.1201 152.099L89.6869 152.097L90.4526 150.607L92.1185 150.609C92.3721 150.609 92.5775 150.558 92.7348 150.456C92.8921 150.353 93.0056 150.216 93.0754 150.044C93.1452 149.867 93.1799 149.666 93.1797 149.44C93.1794 149.186 93.1463 148.964 93.0805 148.775C93.0191 148.586 92.9162 148.442 92.7718 148.344C92.6274 148.241 92.4327 148.189 92.1879 148.189L90.5351 148.187L90.5467 146.882L92.5537 146.884L93.0068 147.402C93.5184 147.386 93.9273 147.479 94.2336 147.68C94.5399 147.878 94.7588 148.137 94.8904 148.457C95.0263 148.773 95.0944 149.11 95.0948 149.467C95.0955 150.042 94.9801 150.526 94.7488 150.92C94.5219 151.31 94.1878 151.605 93.7464 151.806C93.305 152.002 92.7629 152.1 92.1201 152.099Z" fill="#080104"/>
<path d="M101.795 146.777L101.796 148.268L97.8809 148.263L97.8793 146.773L101.795 146.777ZM98.4195 143.14L98.4296 152.106L96.5079 152.104L96.4978 143.138L98.4195 143.14ZM103.181 143.146L103.191 152.112L101.289 152.11L101.279 143.144L103.181 143.146Z" fill="#080104"/>
<path d="M111.462 146.942L111.464 148.439C111.465 149.071 111.382 149.625 111.217 150.101C111.056 150.573 110.824 150.969 110.523 151.289C110.226 151.604 109.865 151.842 109.442 152.002C109.022 152.161 108.556 152.241 108.045 152.24C107.533 152.24 107.065 152.159 106.641 151.999C106.221 151.838 105.858 151.6 105.551 151.283C105.249 150.963 105.015 150.566 104.848 150.094C104.682 149.617 104.598 149.063 104.597 148.431L104.596 146.934C104.595 146.286 104.675 145.719 104.836 145.235C104.998 144.747 105.231 144.341 105.537 144.017C105.842 143.689 106.205 143.443 106.625 143.279C107.044 143.111 107.51 143.027 108.021 143.028C108.533 143.029 108.999 143.113 109.419 143.282C109.839 143.447 110.202 143.693 110.508 144.022C110.815 144.347 111.049 144.754 111.211 145.242C111.378 145.727 111.462 146.294 111.462 146.942ZM109.556 148.436L109.554 146.928C109.553 146.501 109.52 146.137 109.454 145.838C109.388 145.534 109.29 145.285 109.158 145.092C109.027 144.899 108.867 144.757 108.679 144.667C108.491 144.576 108.272 144.531 108.023 144.531C107.774 144.53 107.553 144.575 107.361 144.665C107.173 144.755 107.013 144.897 106.882 145.09C106.756 145.282 106.66 145.531 106.595 145.834C106.534 146.134 106.504 146.497 106.504 146.924L106.506 148.433C106.506 148.844 106.539 149.195 106.605 149.486C106.671 149.778 106.77 150.016 106.901 150.201C107.033 150.386 107.192 150.523 107.381 150.614C107.573 150.7 107.794 150.744 108.043 150.744C108.288 150.744 108.504 150.701 108.692 150.615C108.885 150.525 109.044 150.388 109.171 150.203C109.297 150.019 109.393 149.781 109.458 149.489C109.524 149.198 109.556 148.847 109.556 148.436Z" fill="#080104"/>
<path d="M117.414 149.141L119.322 149.143C119.297 149.816 119.153 150.385 118.891 150.849C118.629 151.308 118.256 151.657 117.771 151.894C117.29 152.132 116.709 152.25 116.027 152.249C115.498 152.249 115.028 152.166 114.616 152.001C114.205 151.833 113.855 151.586 113.566 151.261C113.277 150.937 113.058 150.536 112.909 150.06C112.764 149.579 112.691 149.027 112.691 148.403L112.689 146.882C112.688 146.258 112.764 145.706 112.917 145.226C113.073 144.746 113.296 144.343 113.584 144.019C113.877 143.691 114.229 143.445 114.639 143.282C115.055 143.114 115.522 143.03 116.043 143.031C116.738 143.032 117.32 143.155 117.788 143.402C118.256 143.649 118.617 144.009 118.871 144.481C119.13 144.949 119.285 145.522 119.339 146.2L117.424 146.198C117.41 145.771 117.357 145.436 117.265 145.194C117.177 144.947 117.037 144.775 116.845 144.676C116.652 144.573 116.385 144.521 116.044 144.521C115.791 144.521 115.572 144.564 115.389 144.65C115.205 144.732 115.054 144.865 114.936 145.049C114.819 145.234 114.731 145.476 114.675 145.776C114.623 146.075 114.597 146.441 114.597 146.872L114.599 148.405C114.6 148.828 114.624 149.189 114.673 149.489C114.721 149.785 114.798 150.027 114.903 150.216C115.008 150.405 115.15 150.543 115.33 150.629C115.513 150.715 115.745 150.759 116.025 150.759C116.349 150.759 116.609 150.715 116.805 150.625C117.006 150.534 117.155 150.372 117.251 150.139C117.347 149.905 117.401 149.572 117.414 149.141Z" fill="#080104"/>
<path d="M124.123 143.169L124.133 152.135L122.225 152.133L122.215 143.167L124.123 143.169ZM126.497 143.172L126.499 144.668L119.888 144.661L119.886 143.164L126.497 143.172Z" fill="#080104"/>
<path d="M129.006 146.401L130.823 146.404C131.462 146.404 132.015 146.522 132.483 146.756C132.951 146.991 133.312 147.322 133.566 147.749C133.825 148.176 133.954 148.675 133.955 149.246C133.955 149.677 133.881 150.069 133.733 150.422C133.589 150.775 133.38 151.08 133.105 151.339C132.834 151.597 132.506 151.796 132.121 151.935C131.741 152.074 131.311 152.143 130.83 152.143L127.721 152.139L127.711 143.173L129.632 143.175L129.641 150.651L130.828 150.653C131.095 150.653 131.318 150.587 131.497 150.456C131.676 150.325 131.811 150.153 131.903 149.939C131.994 149.726 132.04 149.49 132.04 149.231C132.039 148.981 131.993 148.755 131.901 148.554C131.809 148.353 131.673 148.194 131.494 148.079C131.315 147.96 131.092 147.9 130.825 147.9L129.008 147.898L129.006 146.401Z" fill="#080104"/>
<path d="M135.17 151.267C135.17 150.996 135.266 150.77 135.458 150.59C135.65 150.405 135.911 150.313 136.238 150.314C136.566 150.314 136.827 150.407 137.019 150.592C137.212 150.773 137.308 150.999 137.309 151.269C137.309 151.54 137.213 151.766 137.021 151.947C136.829 152.127 136.569 152.217 136.241 152.217C135.913 152.216 135.652 152.126 135.46 151.945C135.267 151.764 135.171 151.538 135.17 151.267Z" fill="#080104"/>
<path d="M139.079 151.271C139.079 151.001 139.175 150.775 139.367 150.594C139.559 150.41 139.82 150.318 140.147 150.318C140.475 150.319 140.736 150.411 140.928 150.596C141.121 150.777 141.217 151.003 141.218 151.274C141.218 151.545 141.122 151.771 140.93 151.951C140.738 152.131 140.478 152.221 140.15 152.221C139.822 152.221 139.561 152.13 139.369 151.949C139.176 151.768 139.08 151.542 139.079 151.271Z" fill="#080104"/>
<path d="M142.988 151.276C142.988 151.005 143.084 150.779 143.276 150.599C143.468 150.414 143.729 150.322 144.056 150.323C144.384 150.323 144.645 150.416 144.837 150.601C145.03 150.781 145.126 151.007 145.127 151.278C145.127 151.549 145.031 151.775 144.839 151.955C144.647 152.136 144.387 152.226 144.059 152.225C143.731 152.225 143.47 152.134 143.278 151.954C143.085 151.773 142.989 151.547 142.988 151.276Z" fill="#080104"/>
<path d="M146.897 151.28C146.897 151.009 146.993 150.784 147.185 150.603C147.377 150.419 147.638 150.327 147.965 150.327C148.293 150.327 148.554 150.42 148.746 150.605C148.939 150.786 149.035 151.012 149.036 151.283C149.036 151.554 148.94 151.779 148.748 151.96C148.556 152.14 148.296 152.23 147.968 152.23C147.64 152.229 147.379 152.139 147.187 151.958C146.994 151.777 146.898 151.551 146.897 151.28Z" fill="#080104"/>
<path d="M150.806 151.285C150.806 151.014 150.902 150.788 151.094 150.608C151.286 150.423 151.547 150.331 151.874 150.331C152.202 150.332 152.463 150.424 152.655 150.609C152.848 150.79 152.944 151.016 152.945 151.287C152.945 151.558 152.849 151.784 152.657 151.964C152.465 152.145 152.205 152.235 151.877 152.234C151.549 152.234 151.288 152.143 151.096 151.962C150.903 151.781 150.807 151.556 150.806 151.285Z" fill="#080104"/>
<path d="M154.715 151.289C154.715 151.018 154.811 150.792 155.003 150.612C155.195 150.427 155.455 150.335 155.783 150.336C156.111 150.336 156.372 150.429 156.564 150.614C156.757 150.795 156.853 151.02 156.854 151.291C156.854 151.562 156.758 151.788 156.566 151.968C156.374 152.149 156.114 152.239 155.786 152.239C155.458 152.238 155.197 152.148 155.005 151.967C154.812 151.786 154.716 151.56 154.715 151.289Z" fill="#080104"/>
<path d="M173.918 113.596L173.932 125.393L171.574 125.39L171.561 113.593L173.918 113.596Z" fill="#D7294A"/>
<path d="M116.461 185.51L116.463 187.31L111.303 201.889L107.972 201.885L113.156 188.128L106.562 188.121L106.559 185.499L116.461 185.51Z" fill="#080104"/>
</svg>
