<svg width="10" height="9" viewBox="0 0 10 9" fill="none" xmlns="http://www.w3.org/2000/svg">
<path fill-rule="evenodd" clip-rule="evenodd" d="M0 4.5C0 4.67047 0.0658402 4.83395 0.183037 4.95449C0.300234 5.07502 0.459188 5.14274 0.62493 5.14274H7.86537L5.18192 7.90139C5.12382 7.96115 5.07773 8.03209 5.04628 8.11017C5.01484 8.18825 4.99865 8.27193 4.99865 8.35645C4.99865 8.44096 5.01484 8.52464 5.04628 8.60272C5.07773 8.6808 5.12382 8.75175 5.18192 8.81151C5.24002 8.87127 5.309 8.91867 5.38492 8.95101C5.46083 8.98335 5.5422 9 5.62437 9C5.70654 9 5.78791 8.98335 5.86382 8.95101C5.93974 8.91867 6.00872 8.87127 6.06682 8.81151L9.8164 4.95506C9.8746 4.89536 9.92077 4.82443 9.95228 4.74634C9.98378 4.66825 10 4.58454 10 4.5C10 4.41546 9.98378 4.33175 9.95228 4.25366C9.92077 4.17557 9.8746 4.10464 9.8164 4.04494L6.06682 0.188492C5.94948 0.0678029 5.79032 0 5.62437 0C5.45842 0 5.29927 0.0678029 5.18192 0.188492C5.06458 0.309182 4.99865 0.472872 4.99865 0.643553C4.99865 0.814234 5.06458 0.977925 5.18192 1.09861L7.86537 3.85726H0.62493C0.459188 3.85726 0.300234 3.92498 0.183037 4.04551C0.0658402 4.16605 0 4.32953 0 4.5Z" fill="#DC911B"/>
</svg>
