<svg width="46" height="50" viewBox="0 0 46 50" fill="none" xmlns="http://www.w3.org/2000/svg">
<path d="M36.0035 34.1866C35.3267 33.7928 34.1987 33.7928 33.503 34.1866L23.7266 39.7374C23.031 40.1312 21.9217 40.1312 21.2261 39.7187L19.0452 38.4435C18.3684 38.0497 18.3684 37.3933 19.0452 36.9995L26.7911 32.5363C27.468 32.1425 28.6148 32.105 29.3292 32.4426C29.3292 32.4426 29.4797 32.5176 30.3257 32.5176C32.5818 32.5176 34.4055 30.6986 34.4055 28.4482C34.4055 26.1979 32.5818 24.3789 30.3257 24.3789C28.0696 24.3789 26.2459 26.1979 26.2459 28.4482C26.2459 28.8795 26.2459 28.8795 26.2459 28.8795C26.3587 29.3296 25.8887 30.0235 25.1931 30.4173L16.4319 35.4618C15.7551 35.8556 14.627 35.8556 13.9502 35.4618L9.92682 33.1177C9.24999 32.7239 8.68597 31.7487 8.68597 30.9611L8.70477 27.3043C8.70477 26.5167 9.2688 25.5415 9.96443 25.1477L18.9324 19.9907C19.6092 19.5969 20.7373 19.6157 21.4141 20.0282C21.4141 20.0282 21.8465 20.2908 22.8806 20.2908C25.1367 20.2908 26.9603 18.4717 26.9603 16.2214C26.9603 13.9711 25.1367 12.152 22.8806 12.152C20.6245 12.152 18.8008 13.9711 18.8008 16.2214C18.8008 16.4839 18.8008 16.4839 18.8008 16.4839C18.8384 16.7652 18.312 17.3091 17.6352 17.7029L10.002 22.1098C9.3252 22.5036 8.76117 22.1848 8.76117 21.3972L8.77997 17.8904C8.77997 17.1028 9.344 16.1276 10.0396 15.7338L19.722 10.2392C20.4177 9.84544 20.9817 8.88905 20.9817 8.08268V1.03162C20.9817 0.244 20.4177 -0.0935507 19.722 0.300258L1.39126 10.7081C0.69563 11.1019 0.131606 12.0583 0.131606 12.8646L0 35.9118C0 36.6995 0.545224 37.6746 1.24085 38.0684L21.1885 49.6952C21.8653 50.089 22.9934 50.1077 23.689 49.7139L42.2078 39.1936C42.9034 38.7998 42.9034 38.1622 42.2078 37.7684L36.0035 34.1866ZM30.3257 27.0605C31.1153 27.0605 31.7358 27.6981 31.7358 28.467C31.7358 29.2546 31.0965 29.8734 30.3257 29.8734C29.5361 29.8734 28.9156 29.2358 28.9156 28.467C28.9156 27.6794 29.5549 27.0605 30.3257 27.0605ZM22.8806 14.7962C23.6702 14.7962 24.2906 15.4338 24.2906 16.2026C24.2906 16.9715 23.6702 17.6279 22.8806 17.6279C22.0909 17.6279 21.4705 16.9903 21.4705 16.2214C21.4705 15.4525 22.0909 14.7962 22.8806 14.7962Z" fill="#9B9B9B"/>
<path d="M25.4186 0.16877C24.7417 -0.225039 24.1777 0.0937588 24.1777 0.881377V8.0262C24.1777 8.81381 24.7417 9.78896 25.4186 10.1828L34.1045 15.246C34.7814 15.6398 34.7814 16.2962 34.1045 16.69L20.38 24.5849C19.7031 24.9787 18.5563 25.0162 17.8418 24.6412C17.8418 24.6412 17.6538 24.5474 16.7702 24.5474C14.5141 24.5474 12.6904 26.3664 12.6904 28.6168C12.6904 30.8671 14.5141 32.6861 16.7702 32.6861C19.0263 32.6861 20.85 30.8671 20.85 28.6168C20.85 28.2042 20.85 28.2042 20.85 28.2042C20.756 27.7729 21.2448 27.1166 21.9216 26.7227L35.195 19.0904C35.8718 18.6965 36.4358 19.0153 36.4358 19.803L36.3794 29.2544C36.3794 30.042 36.9247 31.0171 37.6203 31.4109L43.7682 34.9552C44.445 35.349 45.0278 35.0302 45.0278 34.2426L45.1406 13.127C45.1406 12.3393 44.5954 11.3642 43.8998 10.9704L25.4186 0.16877ZM16.789 30.042C15.9994 30.042 15.3789 29.4044 15.3789 28.6355C15.3789 27.8667 16.0182 27.2291 16.789 27.2291C17.5786 27.2291 18.1991 27.8667 18.1991 28.6355C18.1991 29.4044 17.5598 30.042 16.789 30.042Z" fill="#DC911B"/>
</svg>
