<svg width="9" height="6" viewBox="0 0 9 6" fill="none" xmlns="http://www.w3.org/2000/svg">
<path d="M8.84985 4.48307C9.05005 4.67579 9.05005 4.98826 8.84985 5.18098L8.66861 5.35546C8.46841 5.54818 8.14383 5.54818 7.94363 5.35546L4.5 2.04038L1.05637 5.35545C0.856173 5.54818 0.53159 5.54818 0.331392 5.35545L0.150148 5.18098C-0.0500493 4.98825 -0.0500493 4.67579 0.150148 4.48306L3.95291 0.82226L3.95625 0.819021L4.13749 0.644543C4.21257 0.572271 4.30513 0.527102 4.40207 0.509034C4.43617 0.502679 4.47081 0.499677 4.50541 0.500028C4.6348 0.50133 4.76378 0.549499 4.86251 0.64454L5.04375 0.819018L5.04742 0.822581L8.84985 4.48307Z" fill="#fff"/>
</svg>
